<svg width="222" height="36" viewBox="0 0 222 36" fill="none" xmlns="http://www.w3.org/2000/svg">
<path fill-rule="evenodd" clip-rule="evenodd" d="M124.239 -1.52588e-05C119.821 -1.52588e-05 116.239 3.58171 116.239 7.99998V28C116.239 32.4183 119.821 36 124.239 36H213.239C217.657 36 221.239 32.4183 221.239 28V7.99998C221.239 3.58171 217.657 -1.52588e-05 213.239 -1.52588e-05H124.239Z" fill="black"/>
<path fill-rule="evenodd" clip-rule="evenodd" d="M124.742 14.6873C124.447 14.7816 124.255 15.0868 124.255 15.5485L124.257 30.0793C124.257 30.5359 124.443 30.8364 124.73 30.9367L132.709 22.8055L124.742 14.6873Z" fill="url(#paint0_linear)"/>
<path fill-rule="evenodd" clip-rule="evenodd" d="M124.73 30.9367C124.937 31.0082 125.197 30.9748 125.479 30.8169L135.216 25.3602L132.709 22.8055L124.73 30.9367Z" fill="url(#paint1_linear)"/>
<path fill-rule="evenodd" clip-rule="evenodd" d="M135.217 25.3602L138.537 23.4999C139.21 23.1214 139.21 22.5055 138.537 22.1278L135.205 20.2606L132.709 22.8041L135.217 25.3602Z" fill="url(#paint2_linear)"/>
<path fill-rule="evenodd" clip-rule="evenodd" d="M135.204 20.2606L125.479 14.8113C125.203 14.6576 124.949 14.6218 124.743 14.6873L132.709 22.8041L135.204 20.2606Z" fill="url(#paint3_linear)"/>
<path fill-rule="evenodd" clip-rule="evenodd" d="M179.898 26.2794C179.392 26.2315 179.286 26.1368 179.286 25.5278L179.289 16.6381C179.35 16.0896 179.493 15.9182 179.97 15.6367H177.77L176.618 16.2025H177.815L177.821 25.5218V25.8715C177.821 26.1546 177.771 26.2201 177.499 26.5773L177.498 26.5774L177.496 26.5811L177.495 26.5815L177.495 26.5816L177.492 26.5853L177.492 26.5854L177.492 26.5861C177.465 26.6216 177.436 26.6599 177.404 26.7016H180.115L180.684 26.3565C180.553 26.3405 180.421 26.3291 180.289 26.3176L180.289 26.3176C180.159 26.3063 180.028 26.295 179.898 26.2794ZM152.631 26.3602L150.569 26.8414C149.733 26.9756 148.983 27.0936 148.189 27.0936C144.211 27.0936 142.696 24.1102 142.696 21.7753C142.696 18.9238 144.843 16.28 148.521 16.28C149.299 16.28 150.047 16.3966 150.729 16.5861C151.76 16.8812 152.267 17.2419 152.586 17.4684L152.631 17.5002L151.433 18.6596L150.928 18.7747L151.288 18.19L151.285 18.1868C150.797 17.7007 149.9 16.8086 148.202 16.8086C145.928 16.8086 144.211 18.5708 144.211 21.1436C144.211 23.9068 146.171 26.506 149.314 26.506C150.237 26.506 150.713 26.317 151.144 26.1405V23.7716L148.967 23.891L150.121 23.2593H153.177L152.803 23.6258C152.702 23.7131 152.688 23.7428 152.66 23.8599C152.645 23.9937 152.631 24.4191 152.631 24.5687V26.3602ZM157.36 26.9041C154.915 26.9041 153.609 24.964 153.609 23.2073C153.609 21.1547 155.254 19.3985 157.592 19.3985C159.852 19.3985 161.267 21.2026 161.267 23.0967C161.267 24.9468 159.869 26.9041 157.36 26.9041ZM159.745 23.898C159.745 24.5083 159.653 25.1344 159.284 25.6361C158.929 26.1368 158.316 26.4336 157.715 26.4336C155.854 26.4336 155.1 23.8794 155.1 22.3308C155.1 21.6545 155.207 20.9652 155.808 20.4167C156.178 20.0869 156.683 19.8849 157.192 19.8849C159.098 19.8849 159.745 22.5175 159.745 23.898ZM165.546 26.9041C163.101 26.9041 161.793 24.964 161.793 23.2073C161.793 21.1547 163.437 19.3985 165.776 19.3985C168.037 19.3985 169.454 21.2026 169.454 23.0967C169.454 24.9468 168.054 26.9041 165.546 26.9041ZM167.931 23.898C167.931 24.5083 167.841 25.1344 167.469 25.6361C167.115 26.1368 166.501 26.4336 165.899 26.4336C164.035 26.4336 163.284 23.8794 163.284 22.3308C163.284 21.6545 163.391 20.9652 163.992 20.4167C164.36 20.0869 164.871 19.8849 165.378 19.8849C167.286 19.8849 167.931 22.5175 167.931 23.898ZM175.082 20.1677C175.435 20.4636 176.172 21.0916 176.172 22.2825C176.172 23.4432 175.53 23.9904 174.882 24.5083L174.855 24.5366C174.663 24.7328 174.451 24.949 174.451 25.2752C174.451 25.6156 174.675 25.8031 174.841 25.9426L174.851 25.9505L175.406 26.3876C176.082 26.9687 176.698 27.5014 176.698 28.5837C176.698 30.0579 175.297 31.5447 172.651 31.5447C170.423 31.5447 169.345 30.4629 169.345 29.3031C169.345 28.7388 169.621 27.9394 170.531 27.3918C171.472 26.8056 172.742 26.7205 173.44 26.6737L173.468 26.6719L173.436 26.6297C173.228 26.3578 173.005 26.0659 173.005 25.604C173.005 25.3663 173.068 25.2145 173.135 25.0514L173.159 24.9932L173.148 24.9943L173.148 24.9943C172.984 25.0102 172.818 25.0262 172.667 25.0262C171.036 25.0262 170.114 23.786 170.114 22.564C170.114 21.8431 170.437 21.0433 171.099 20.4636C171.976 19.7279 173.022 19.6011 173.853 19.6011H177.023L176.037 20.1677H175.082ZM173.638 27.1094C173.79 27.1094 173.866 27.1094 173.992 27.1261C175.159 27.9738 175.666 28.3955 175.666 29.1949C175.666 30.1661 174.882 30.8875 173.405 30.8875C171.762 30.8875 170.699 30.0862 170.699 28.9752C170.699 27.8618 171.683 27.487 172.024 27.3602C172.667 27.14 173.498 27.1094 173.638 27.1094ZM174.434 24.1479C174.79 23.786 174.821 23.2863 174.821 23.0025C174.821 21.8752 174.161 20.1194 172.883 20.1194C172.484 20.1194 172.052 20.3233 171.806 20.6387C171.546 20.9652 171.468 21.3888 171.468 21.7962C171.468 22.8459 172.069 24.5868 173.39 24.5868C173.776 24.5868 174.191 24.3959 174.434 24.1479ZM186.846 25.6491L186.11 26.3565C186.054 26.3882 185.997 26.4216 185.941 26.4549C185.828 26.5218 185.715 26.5884 185.603 26.6407C185.092 26.8772 184.572 26.9366 184.11 26.9366C183.619 26.9366 182.849 26.9041 182.063 26.3249C180.971 25.5413 180.494 24.1943 180.494 23.0206C180.494 20.5904 182.435 19.3985 184.019 19.3985C184.572 19.3985 185.14 19.5397 185.603 19.8375C186.362 20.3494 186.565 21.013 186.676 21.3763L186.68 21.3888L183.064 22.8775L181.88 22.9713C182.263 24.964 183.586 26.1228 185.048 26.1228C185.778 26.1228 186.32 25.8799 186.817 25.6296C186.817 25.6296 186.917 25.5766 186.846 25.6491ZM185.111 21.2648C185.111 21.4831 184.958 21.577 184.665 21.6857L181.865 22.924C181.859 22.8279 181.852 22.7318 181.845 22.6364L181.845 22.636L181.845 22.6356L181.845 22.6352V22.6352V22.6351V22.6351V22.635V22.635V22.6349C181.831 22.4514 181.818 22.2703 181.818 22.0967C181.818 20.4032 182.972 19.9155 183.586 19.9155C184.416 19.9155 185.111 20.6387 185.111 21.2648ZM191.28 25.7159V29.7082H190.501V19.5495H191.28V20.7065C191.786 19.9587 192.713 19.366 193.788 19.366C195.718 19.366 197.017 20.8575 197.017 23.2184C197.017 25.5636 195.718 27.0862 193.788 27.0862C192.773 27.0862 191.863 26.5525 191.28 25.7159ZM193.657 20.0818C195.271 20.0818 196.181 21.439 196.181 23.2184C196.181 25.0006 195.271 26.3695 193.657 26.3695C192.655 26.3695 191.696 25.5376 191.28 24.8362V21.5844C191.696 20.8844 192.655 20.0818 193.657 20.0818ZM198.08 16.7445H198.857V26.9032H198.08V16.7445ZM205.195 26.2139C205.224 26.4015 205.263 26.6263 205.315 26.8813H206.211C206.142 26.644 206.089 26.3987 206.057 26.153C206.025 25.9078 206.012 25.656 206.012 25.3955V21.7679C206.012 20.9913 205.753 20.3972 205.236 19.9861C204.719 19.5709 204.032 19.3628 203.184 19.3628C202.333 19.3628 201.642 19.5741 201.114 19.9945C200.584 20.4153 200.334 20.9025 200.363 21.4581L200.38 21.4975H201.176C201.176 21.0855 201.357 20.7437 201.716 20.4678C202.078 20.1975 202.554 20.0586 203.141 20.0586C203.783 20.0586 204.278 20.2105 204.63 20.511C204.982 20.811 205.158 21.2249 205.158 21.7511V22.6648H203.343C202.37 22.6648 201.585 22.8691 200.977 23.2802C200.369 23.6894 200.064 24.2245 200.064 24.8836C200.064 25.5436 200.274 26.0652 200.693 26.4503C201.112 26.8358 201.701 27.0258 202.459 27.0258C203.088 27.0258 203.547 26.8967 204.03 26.6333C204.513 26.3718 204.891 26.0397 205.158 25.6407C205.158 25.8353 205.171 26.0267 205.195 26.2139ZM202.554 26.3035C203.215 26.3035 203.69 26.153 204.175 25.8553C204.658 25.5594 204.986 25.1734 205.158 24.7062V23.2941H203.334C202.638 23.2941 202.061 23.4511 201.608 23.7679C201.153 24.0838 200.923 24.466 200.923 24.9105C200.923 25.33 201.069 25.6653 201.359 25.9194C201.65 26.1762 202.047 26.3035 202.554 26.3035ZM208.218 29.1735C208.038 29.1735 207.754 29.1271 207.588 29.0514L207.454 29.7829C207.648 29.8438 207.98 29.8893 208.232 29.8893C209.07 29.8893 209.68 29.4448 210.068 28.5205L213.806 19.5495H212.926L210.322 25.9751L207.693 19.5495H206.825L209.89 26.9645L209.323 28.2748C209.025 28.9752 208.694 29.1735 208.218 29.1735Z" fill="white"/>
<path fill-rule="evenodd" clip-rule="evenodd" d="M145.24 5.77617C143.798 5.77617 142.638 6.79095 142.638 8.3685C142.638 9.93901 143.798 10.9679 145.24 10.9679C146.096 10.9679 146.795 10.5999 147.278 10.0512V8.18028H144.928V8.95427H146.415V9.72826C146.192 9.94605 145.746 10.1789 145.24 10.1789C144.259 10.1789 143.53 9.41238 143.53 8.3685C143.53 7.30913 144.259 6.55814 145.24 6.55814C145.79 6.55814 146.259 6.85056 146.527 7.22652L147.233 6.81301C146.839 6.24225 146.207 5.77617 145.24 5.77617ZM148.353 5.85878V10.8702H151.751V10.0962H149.223V8.69894H151.699V7.92494H149.223V6.63324H151.751V5.85878H148.353ZM154.158 10.8702V6.63324H152.656V5.85878H156.53V6.63324H155.028V10.8702H154.158ZM160.422 5.85878H159.553V10.8702H160.422V5.85878ZM162.845 10.8702V6.63324H161.344V5.85878H165.217V6.63324H163.715V10.8702H162.845ZM170.56 5.77617C169.072 5.77617 168.025 6.87309 168.025 8.3685C168.025 9.86344 169.072 10.9604 170.56 10.9604C172.039 10.9604 173.095 9.86344 173.095 8.3685C173.095 6.87309 172.039 5.77617 170.56 5.77617ZM172.203 8.3685C172.203 7.33166 171.556 6.55814 170.56 6.55814C169.556 6.55814 168.917 7.33166 168.917 8.3685C168.917 9.39736 169.556 10.1789 170.56 10.1789C171.556 10.1789 172.203 9.39736 172.203 8.3685ZM174.981 7.2866L177.568 10.8702H178.409V5.85878H177.539V9.33024L175.003 5.85878H174.111V10.8702H174.981V7.2866Z" fill="white"/>
<path fill-rule="evenodd" clip-rule="evenodd" d="M8.23914 -1.52588e-05C3.82086 -1.52588e-05 0.239136 3.58171 0.239136 7.99998V28C0.239136 32.4183 3.82086 36 8.23914 36H97.2391C101.657 36 105.239 32.4183 105.239 28V7.99998C105.239 3.58171 101.657 -1.52588e-05 97.2391 -1.52588e-05H8.23914Z" fill="black"/>
<path fill-rule="evenodd" clip-rule="evenodd" d="M67.0432 25.5507C67.6642 24.9849 67.9735 24.252 67.9735 23.3512C67.9735 22.619 67.7618 22.0055 67.3376 21.5153C66.9118 21.0235 66.2499 20.5946 65.3487 20.2277C64.612 19.9341 64.1044 19.6619 63.825 19.4104C63.5039 19.1383 63.3441 18.7921 63.3441 18.3735C63.3441 17.9955 63.4842 17.6764 63.7636 17.4146C64.0942 17.1217 64.5554 16.9745 65.1457 16.9745C65.8926 16.9745 66.56 17.1369 67.1502 17.4615L67.5697 16.0785C66.9377 15.7434 66.146 15.5755 65.1929 15.5755C64.1241 15.5755 63.2694 15.8532 62.6287 16.4095C61.9857 16.965 61.6646 17.6788 61.6646 18.5494C61.6646 19.8815 62.5807 20.8946 64.4145 21.5861C65.0882 21.8384 65.5707 22.1113 65.8595 22.405C66.1499 22.6986 66.2947 23.0607 66.2947 23.4904C66.2947 23.9727 66.1192 24.3594 65.7674 24.6475C65.414 24.9356 64.9221 25.0804 64.2901 25.0804C63.4095 25.0804 62.6012 24.8544 61.8645 24.404L61.4757 25.8181C62.1596 26.2582 63.0632 26.4778 64.1902 26.4778C65.4109 26.4778 66.3608 26.1691 67.0432 25.5507ZM39.1168 26.3211H40.9041L37.5159 15.7307H35.4334L32.0618 26.3211H33.8019L34.7345 23.2103H38.1377L39.1168 26.3211ZM36.9571 19.1399L37.8426 21.9052H35.0305L35.9001 19.1399C36.1284 18.2605 36.2945 17.5952 36.3976 17.1448H36.429C36.688 18.1921 36.8635 18.8574 36.9571 19.1399ZM48.5337 25.4879C49.2278 24.7343 49.5749 23.7077 49.5749 22.409C49.5749 21.2463 49.2774 20.3089 48.6808 19.5958C48.0858 18.8836 47.3421 18.5279 46.4512 18.5279C45.3115 18.5279 44.4623 18.9831 43.9027 19.8951H43.8713L43.7776 18.6847H42.3019C42.3428 19.5441 42.3641 20.3821 42.3641 21.1986V29.4326H44.042V25.4099H44.0735C44.5088 26.1325 45.2234 26.4937 46.2182 26.4937C47.1398 26.4937 47.9119 26.1587 48.5337 25.4879ZM47.8655 22.471C47.8655 21.7278 47.7002 21.115 47.3681 20.6328C47.0052 20.1298 46.5181 19.8783 45.9073 19.8783C45.4933 19.8783 45.1171 20.0184 44.7811 20.2945C44.4442 20.5731 44.2239 20.9367 44.1207 21.3872C44.0688 21.5973 44.0428 21.7691 44.0428 21.9044V23.1777C44.0428 23.7332 44.2113 24.2019 44.5481 24.5846C44.885 24.9674 45.3226 25.1584 45.8609 25.1584C46.4929 25.1584 46.9848 24.9117 47.3366 24.4199C47.6892 23.9273 47.8655 23.278 47.8655 22.471ZM57.2194 25.4879C57.9144 24.7343 58.2614 23.7077 58.2614 22.409C58.2614 21.2463 57.9632 20.3089 57.3689 19.5958C56.7724 18.8836 56.0286 18.5279 55.1385 18.5279C53.9981 18.5279 53.1489 18.9831 52.5901 19.8951H52.5586L52.4649 18.6847H50.9892C51.0301 19.5441 51.0514 20.3821 51.0514 21.1986V29.4326H52.7294V25.4099H52.7608C53.1953 26.1325 53.9099 26.4937 54.9047 26.4937C55.8264 26.4937 56.5984 26.1587 57.2194 25.4879ZM56.552 22.471C56.552 21.7278 56.3859 21.115 56.0538 20.6328C55.691 20.1298 55.2054 19.8783 54.5939 19.8783C54.1791 19.8783 53.8037 20.0184 53.4668 20.2945C53.13 20.5731 52.9104 20.9367 52.8073 21.3872C52.7561 21.5973 52.7294 21.7691 52.7294 21.9044V23.1777C52.7294 23.7332 52.8978 24.2019 53.2331 24.5846C53.5699 24.9666 54.0075 25.1584 54.5474 25.1584C55.1794 25.1584 55.6713 24.9117 56.0231 24.4199C56.3757 23.9273 56.552 23.278 56.552 22.471ZM73.5213 19.9579H71.6718V23.6655C71.6718 24.6085 71.9976 25.0796 72.6508 25.0796C72.9507 25.0796 73.1994 25.0534 73.3962 25.0008L73.4426 26.2892C73.112 26.4142 72.6768 26.477 72.1377 26.477C71.475 26.477 70.9571 26.2725 70.5833 25.8643C70.211 25.4552 70.0237 24.7693 70.0237 23.8056V19.9563H68.9219V18.6831H70.0237V17.2849L71.6718 16.7819V18.6831H73.5213V19.9579ZM80.8714 25.3311C81.5341 24.5775 81.8663 23.6138 81.8663 22.44C81.8663 21.298 81.5451 20.3662 80.9014 19.6444C80.2284 18.9003 79.3367 18.5287 78.2286 18.5287C77.0787 18.5287 76.1642 18.9059 75.4865 19.6603C74.8073 20.4139 74.4689 21.3832 74.4689 22.5665C74.4689 23.6973 74.7979 24.6356 75.4558 25.3788C76.1138 26.1221 76.9961 26.4937 78.1042 26.4937C79.2541 26.4937 80.1765 26.107 80.8714 25.3311ZM80.1253 22.4949C80.1253 21.7906 79.9766 21.1866 79.6751 20.6829C79.3233 20.0733 78.8204 19.7693 78.1688 19.7693C77.4943 19.7693 76.9819 20.0741 76.6301 20.6829C76.3287 21.1874 76.1799 21.801 76.1799 22.5267C76.1799 23.231 76.3287 23.835 76.6301 24.338C76.9929 24.9475 77.4998 25.2515 78.1538 25.2515C78.7945 25.2515 79.2974 24.9412 79.6602 24.322C79.9695 23.8088 80.1253 23.1984 80.1253 22.4949ZM86.7915 20.1298C86.9773 20.1298 87.1544 20.1457 87.3204 20.1768V18.5589C87.1961 18.539 87.056 18.5279 86.9009 18.5279C86.4657 18.5279 86.062 18.664 85.6881 18.9369C85.3056 19.2401 85.0262 19.6444 84.8491 20.1465H84.8027L84.7413 18.6855H83.2798C83.3215 19.408 83.3427 20.2094 83.3427 21.0895L83.327 26.3211H85.0042V22.3143C85.0042 21.7071 85.1443 21.2041 85.4237 20.8062C85.7448 20.355 86.2013 20.1298 86.7915 20.1298ZM94.8248 22.1416C94.8248 22.4456 94.8051 22.7018 94.7634 22.9111H89.7295C89.7492 23.6655 89.9924 24.2425 90.4599 24.6404C90.8841 24.9961 91.4327 25.1743 92.1064 25.1743C92.8517 25.1743 93.5317 25.0542 94.1432 24.813L94.4061 25.9908C93.6915 26.3059 92.8478 26.4627 91.8742 26.4627C90.7031 26.4627 89.7839 26.1142 89.1149 25.4178C88.4475 24.7215 88.113 23.7865 88.113 22.6135C88.113 21.462 88.4239 20.503 89.0464 19.7383C89.6981 18.9218 90.5788 18.5136 91.6869 18.5136C92.7754 18.5136 93.5994 18.9218 94.159 19.7383C94.6021 20.3869 94.8248 21.189 94.8248 22.1416ZM92.8989 20.3972C93.1264 20.7641 93.2358 21.1986 93.2248 21.7015V21.7007H89.7295C89.7807 21.1882 89.9468 20.7481 90.2262 20.3813C90.567 19.9197 91.0132 19.6897 91.5618 19.6897C92.1623 19.6897 92.6085 19.9253 92.8989 20.3972Z" fill="white"/>
<path fill-rule="evenodd" clip-rule="evenodd" d="M53.8085 6.46771H54.6325V11.9404H53.8085V6.46771ZM36.4551 11.3308C37.0099 10.8573 37.2878 10.1522 37.2878 9.21557C37.2878 8.38159 37.0304 7.74098 36.5173 7.29295C36.0592 6.89664 35.38 6.69849 34.4788 6.69849C33.9688 6.69849 33.4966 6.7351 33.0582 6.80672V11.9244C33.3943 11.9658 33.7957 11.9865 34.2648 11.9865C35.2108 11.9865 35.9411 11.7677 36.4551 11.3308ZM35.9411 7.84125C36.2591 8.16593 36.4181 8.63146 36.4181 9.23865C36.4181 9.91826 36.2449 10.4355 35.9018 10.7904C35.5586 11.1454 35.0715 11.3228 34.4403 11.3228C34.1703 11.3228 33.9846 11.3157 33.883 11.2997V7.40913C34.0664 7.37253 34.2876 7.35502 34.5473 7.35502C35.1588 7.35502 35.6232 7.51736 35.9411 7.84125ZM41.899 10.0336C41.899 10.6106 41.7361 11.0833 41.4103 11.4541C41.0687 11.8353 40.6161 12.0255 40.0511 12.0255C39.5064 12.0255 39.0728 11.8433 38.7493 11.4772C38.4266 11.1119 38.2653 10.6512 38.2653 10.0957C38.2653 9.51479 38.4313 9.03811 38.765 8.66807C39.0987 8.29803 39.5473 8.11261 40.1124 8.11261C40.6571 8.11261 41.0947 8.29485 41.426 8.66011C41.7408 9.01503 41.899 9.47341 41.899 10.0336ZM40.8223 9.17021C40.9695 9.4177 41.0435 9.71453 41.0435 10.0607C41.0435 10.4069 40.9672 10.7061 40.8145 10.9584C40.6366 11.2631 40.3895 11.4151 40.0747 11.4151C39.7536 11.4151 39.5048 11.2655 39.3262 10.9663C39.179 10.7188 39.105 10.422 39.105 10.0758C39.105 9.71931 39.1782 9.4177 39.3262 9.17021C39.4993 8.871 39.7512 8.72139 40.0825 8.72139C40.4029 8.72139 40.6492 8.871 40.8223 9.17021ZM48.082 8.18901L48.0817 8.1898H47.2721L46.8219 9.94213C46.7102 10.3798 46.626 10.7912 46.5701 11.1772H46.5473C46.4709 10.7809 46.3717 10.3695 46.2498 9.94213L45.7453 8.1898H45.0731L44.5466 9.98033C44.4034 10.4634 44.3018 10.8629 44.2404 11.1764H44.2255C44.1586 10.796 44.0752 10.3941 43.9736 9.97237L43.5542 8.18901H42.7065L43.7981 11.9404H44.5623L45.0731 10.3114C45.2006 9.91507 45.2998 9.51161 45.3714 9.09939H45.3864C45.4635 9.50047 45.5627 9.90473 45.6847 10.3114L46.1655 11.9404H46.9211L48.0817 8.1898H48.082V8.18901ZM51.5331 11.9404H52.358V9.69305C52.358 9.14236 52.2155 8.72775 51.9306 8.45002C51.7016 8.22322 51.4135 8.11022 51.0672 8.11022C50.7933 8.11022 50.543 8.18105 50.3195 8.32111C50.1314 8.44127 49.9882 8.59167 49.8922 8.77391H49.8693L49.8308 8.18741H49.1059C49.1256 8.57417 49.1358 8.93148 49.1358 9.26093V11.9396H49.9606V9.71453C49.9606 9.46863 50.0378 9.25377 50.1897 9.07154C50.3431 8.8893 50.5407 8.79858 50.7854 8.79858C51.2844 8.79858 51.5331 9.12963 51.5331 9.79173V11.9404ZM58.9998 11.4541C59.3256 11.0833 59.4885 10.6106 59.4885 10.0336C59.4885 9.47341 59.3303 9.01503 59.0155 8.66011C58.6834 8.29485 58.2466 8.11261 57.7011 8.11261C57.1368 8.11261 56.6882 8.29803 56.3545 8.66807C56.0208 9.03811 55.8548 9.51479 55.8548 10.0957C55.8548 10.6512 56.0161 11.1119 56.3388 11.4772C56.6615 11.8433 57.0951 12.0255 57.6405 12.0255C58.2048 12.0255 58.6582 11.8353 58.9998 11.4541ZM58.6322 10.0607C58.6322 9.71453 58.5582 9.4177 58.4111 9.17021C58.2387 8.871 57.9916 8.72139 57.672 8.72139C57.3399 8.72139 57.088 8.871 56.9157 9.17021C56.7677 9.4177 56.6945 9.71931 56.6945 10.0758C56.6945 10.422 56.7685 10.7188 56.9157 10.9663C57.0943 11.2655 57.343 11.4151 57.6642 11.4151C57.979 11.4151 58.2253 11.2631 58.4032 10.9584C58.5567 10.7061 58.6322 10.4069 58.6322 10.0607ZM62.7398 11.9404H63.4804C63.4449 11.7191 63.4268 11.4207 63.4268 11.0459V9.6644C63.4268 8.62987 62.9405 8.11261 61.9708 8.11261C61.4687 8.11261 61.0429 8.22084 60.6982 8.4365L60.8658 8.984C61.1444 8.79938 61.4671 8.70627 61.8331 8.70627C62.347 8.70627 62.6036 8.95296 62.6036 9.44715V9.51718C61.9165 9.51161 61.3829 9.63018 61.0036 9.8721C60.6234 10.114 60.4345 10.4634 60.4345 10.9217C60.4345 11.2249 60.5313 11.4804 60.7249 11.6857C60.9382 11.9117 61.2216 12.0255 61.5718 12.0255C62.0409 12.0255 62.4021 11.8528 62.6555 11.5082H62.6784L62.7398 11.9404ZM62.6241 10.6512V10.0726C61.7142 10.0567 61.2593 10.309 61.2593 10.8286C61.2593 11.0244 61.3113 11.1708 61.4175 11.2687C61.5238 11.3666 61.6592 11.4151 61.8205 11.4151C62.0015 11.4151 62.1707 11.357 62.325 11.2417C62.48 11.1255 62.5753 10.9782 62.6107 10.7976C62.6193 10.757 62.6241 10.7077 62.6241 10.6512ZM67.4352 11.9404H68.1672C68.1475 11.6316 68.138 11.295 68.138 10.9297V6.46771H67.3124V8.62112H67.2967C67.0984 8.28132 66.7497 8.11181 66.2515 8.11181C65.7982 8.11181 65.4173 8.28689 65.1064 8.63703C64.7853 9.01265 64.6255 9.50445 64.6255 10.1116C64.6255 10.6774 64.7727 11.1382 65.0678 11.4931C65.3629 11.848 65.7352 12.0255 66.1823 12.0255C66.7418 12.0255 67.1401 11.7963 67.3738 11.3379H67.3967L67.4352 11.9404ZM67.3124 10.3583V9.73284C67.3124 9.62461 67.3046 9.53707 67.2896 9.47023C67.2432 9.26969 67.1432 9.10098 66.9913 8.9649C66.8379 8.82882 66.6529 8.76038 66.4396 8.76038C66.1319 8.76038 65.8911 8.88373 65.714 9.13122C65.5385 9.37871 65.4495 9.69464 65.4495 10.0806C65.4495 10.4514 65.5337 10.7522 65.7029 10.9838C65.8816 11.2305 66.1224 11.3539 66.4239 11.3539C66.6946 11.3539 66.9111 11.2512 67.0755 11.0451C67.2345 10.8549 67.3124 10.6257 67.3124 10.3583ZM74.7326 11.4541C75.0585 11.0833 75.2214 10.6106 75.2214 10.0336C75.2214 9.47341 75.0632 9.01503 74.7484 8.66011C74.4178 8.29485 73.9794 8.11261 73.4356 8.11261C72.8697 8.11261 72.4211 8.29803 72.0874 8.66807C71.7537 9.03811 71.5876 9.51479 71.5876 10.0957C71.5876 10.6512 71.749 11.1119 72.0717 11.4772C72.3959 11.8433 72.8296 12.0255 73.3734 12.0255C73.9393 12.0255 74.3911 11.8353 74.7326 11.4541ZM74.3667 10.0607C74.3667 9.71453 74.2927 9.4177 74.1455 9.17021C73.9716 8.871 73.726 8.72139 73.4049 8.72139C73.0743 8.72139 72.8225 8.871 72.6486 9.17021C72.5006 9.4177 72.4274 9.71931 72.4274 10.0758C72.4274 10.422 72.5014 10.7188 72.6486 10.9663C72.8272 11.2655 73.0759 11.4151 73.397 11.4151C73.7118 11.4151 73.9598 11.2631 74.1376 10.9584C74.2895 10.7061 74.3667 10.4069 74.3667 10.0607ZM78.8323 11.9404H79.6563V9.69305C79.6563 9.14236 79.5147 8.72775 79.229 8.45002C78.9999 8.22322 78.7119 8.11022 78.3664 8.11022C78.0917 8.11022 77.8422 8.18105 77.6179 8.32111C77.4306 8.44127 77.2873 8.59167 77.1905 8.77391H77.1677L77.1292 8.18741H76.4051C76.4248 8.57417 76.4342 8.93148 76.4342 9.26093V11.9396H77.2598V9.71453C77.2598 9.46863 77.3361 9.25377 77.4888 9.07154C77.6415 8.8893 77.8391 8.79858 78.0838 8.79858C78.5836 8.79858 78.8323 9.12963 78.8323 9.79173V11.9404ZM85.2065 8.8137H84.2991V10.6361C84.2991 11.0992 84.4604 11.3308 84.7799 11.3308C84.9279 11.3308 85.0507 11.318 85.1475 11.2918L85.1687 11.9244C85.0058 11.9865 84.7917 12.0175 84.5281 12.0175C84.2023 12.0175 83.9488 11.9173 83.7654 11.7167C83.5813 11.5162 83.49 11.1788 83.49 10.7053V8.8137H82.9477V8.18901H83.49V7.50144L84.2983 7.25475V8.18821H85.2065V8.8137ZM88.7482 11.9404H89.5738V9.70976C89.5738 9.1543 89.4337 8.73412 89.1543 8.45162C88.93 8.22482 88.6474 8.11181 88.3059 8.11181C87.8234 8.11181 87.4511 8.31713 87.1914 8.72855H87.1757V6.46771H86.3517V11.9396H87.1757V9.6835C87.1757 9.56572 87.1898 9.46545 87.2142 9.38349C87.3575 8.99355 87.6188 8.79858 88.0013 8.79858C88.4995 8.79858 88.7482 9.1352 88.7482 9.80764V11.9404ZM94.078 9.88722C94.078 10.0368 94.067 10.1626 94.0473 10.2652H91.5736C91.5847 10.6361 91.7027 10.9186 91.9317 11.1143C92.1411 11.2894 92.411 11.3769 92.7416 11.3769C93.1076 11.3769 93.4413 11.318 93.7419 11.1995L93.871 11.7788C93.5192 11.9332 93.1052 12.0104 92.6259 12.0104C92.0514 12.0104 91.5988 11.8393 91.2714 11.4971C90.9424 11.1549 90.7795 10.6957 90.7795 10.1196C90.7795 9.55378 90.9314 9.08268 91.2376 8.70706C91.5571 8.30599 91.9892 8.10545 92.5346 8.10545C93.0682 8.10545 93.4735 8.30599 93.7474 8.70706C93.9686 9.02538 94.078 9.4193 94.078 9.88722ZM93.1312 9.03095C93.2429 9.2108 93.2973 9.42407 93.291 9.67156H91.5736C91.6004 9.4193 91.6815 9.20364 91.8184 9.02299C91.986 8.79619 92.2056 8.68319 92.4748 8.68319C92.7699 8.68319 92.9879 8.79938 93.1312 9.03095Z" fill="white"/>
<path fill-rule="evenodd" clip-rule="evenodd" d="M20.6684 6.44209C20.8001 7.65248 20.3255 8.84522 19.6317 9.72193C18.9078 10.585 17.7497 11.2451 16.6218 11.1601C16.4741 9.99545 17.0456 8.75699 17.6854 8.0014C18.4085 7.14394 19.6643 6.48701 20.6684 6.44209ZM24.3608 13.4244C24.2349 13.5003 22.1489 14.7585 22.1717 17.3244C22.1979 20.4229 24.8538 21.4472 24.8864 21.4585C24.8705 21.5306 24.4705 22.9367 23.4743 24.3645C22.6424 25.6214 21.7709 26.8503 20.3866 26.8727C19.7285 26.888 19.2841 26.6968 18.821 26.4975C18.338 26.2896 17.8347 26.073 17.0472 26.073C16.2124 26.073 15.6867 26.2966 15.1798 26.5122C14.7414 26.6986 14.3171 26.8791 13.719 26.904C12.4006 26.9529 11.3933 25.5621 10.5313 24.3164C8.80803 21.7729 7.46658 17.1487 9.26523 14.002C10.1368 12.4587 11.7259 11.4649 13.4245 11.4385C14.1725 11.423 14.8899 11.7143 15.5189 11.9697C15.9998 12.165 16.429 12.3392 16.7805 12.3392C17.0893 12.3392 17.5064 12.1719 17.9926 11.9769C18.7588 11.6696 19.6965 11.2936 20.6517 11.3951C21.3049 11.4144 23.1639 11.6558 24.3633 13.4229L24.3608 13.4244Z" fill="white"/>
<defs>
<linearGradient id="paint0_linear" x1="124.255" y1="14.6873" x2="124.255" y2="30.9367" gradientUnits="userSpaceOnUse">
<stop stop-color="#1E79AF"/>
<stop offset="1" stop-color="#63FFD3"/>
</linearGradient>
<linearGradient id="paint1_linear" x1="129.308" y1="20.74" x2="123.065" y2="29.022" gradientUnits="userSpaceOnUse">
<stop stop-color="#DC4057"/>
<stop offset="1" stop-color="#9E36BB"/>
</linearGradient>
<linearGradient id="paint2_linear" x1="132.778" y1="20.2606" x2="132.778" y2="25.2493" gradientUnits="userSpaceOnUse">
<stop stop-color="#FF9676"/>
<stop offset="1" stop-color="#FFD074"/>
</linearGradient>
<linearGradient id="paint3_linear" x1="121.337" y1="18.0195" x2="127.57" y2="27.713" gradientUnits="userSpaceOnUse">
<stop stop-color="#51C6AD"/>
<stop offset="1" stop-color="#D5FFA1"/>
</linearGradient>
</defs>
</svg>
