<svg width="84" height="75" viewBox="0 0 84 75" fill="none" xmlns="http://www.w3.org/2000/svg">
<path d="M18.5006 46.2753V73.5128C18.3506 73.5186 18.2007 73.5205 18.05 73.5205C17.8988 73.5205 17.7488 73.5186 17.5989 73.5128V46.2753C17.7488 46.2695 17.8988 46.2676 18.05 46.2676C18.2007 46.2676 18.3506 46.2695 18.5006 46.2753Z" fill="url(#paint0_linear)"/>
<path d="M31.6763 59.8936C31.6763 60.0449 31.6744 60.1949 31.6686 60.3448H4.43103C4.42526 60.1949 4.42334 60.0449 4.42334 59.8936C4.42334 59.743 4.42526 59.5931 4.43103 59.4431H31.6686C31.6744 59.5931 31.6763 59.743 31.6763 59.8936Z" fill="url(#paint1_linear)"/>
<path d="M27.9983 50.5837L8.7395 69.8425C8.51968 69.6368 8.30627 69.424 8.1012 69.2042L17.5989 59.7065L17.8629 59.4431L25.3476 51.9584L27.36 49.9454C27.5798 50.1505 27.7932 50.3639 27.9983 50.5837Z" fill="url(#paint2_linear)"/>
<path d="M27.9983 69.2042C27.7932 69.424 27.5798 69.6374 27.36 69.8425L25.3476 67.8295L18.5006 60.9831L8.1012 50.5837C8.30627 50.3639 8.51968 50.1505 8.7395 49.9454L27.9983 69.2042Z" fill="url(#paint3_linear)"/>
<path fill-rule="evenodd" clip-rule="evenodd" d="M4.42395 59.8937C4.42395 52.3687 10.5244 46.2676 18.0501 46.2676C25.5752 46.2676 31.6756 52.3687 31.6756 59.8937C31.6756 67.4195 25.5752 73.5199 18.0501 73.5199C10.5244 73.5199 4.42395 67.4195 4.42395 59.8937ZM8.35248 59.8937C8.35248 65.2501 12.6944 69.5914 18.0501 69.5914C23.4059 69.5914 27.7471 65.2495 27.7471 59.8937C27.7471 54.538 23.4059 50.1967 18.0501 50.1967C12.6937 50.1967 8.35248 54.538 8.35248 59.8937Z" fill="url(#paint4_linear)"/>
<path d="M24.1787 59.8943C24.1787 63.2794 21.4345 66.0229 18.05 66.0229C14.665 66.0229 11.9208 63.2794 11.9208 59.8943C11.9208 56.5092 14.665 53.765 18.05 53.765C21.4345 53.765 24.1787 56.5092 24.1787 59.8943Z" fill="url(#paint5_linear)"/>
<path d="M24.0185 61.2831L20.4066 57.6711C19.8157 57.045 18.9787 56.6534 18.0495 56.6534C16.2595 56.6534 14.8086 58.1044 14.8086 59.8937C14.8086 60.8229 15.2002 61.6599 15.8269 62.2508L19.4389 65.8627C21.7082 65.3372 23.4924 63.5518 24.0185 61.2831Z" fill="url(#paint6_linear)"/>
<path d="M21.2903 59.8943C21.2903 61.6836 19.8394 63.1346 18.0501 63.1346C16.2601 63.1346 14.8092 61.6836 14.8092 59.8943C14.8092 58.1044 16.2601 56.6534 18.0501 56.6534C19.8394 56.6534 21.2903 58.1044 21.2903 59.8943Z" fill="url(#paint7_radial)"/>
<path d="M70.8243 46.2753V73.5128C70.6743 73.5186 70.5244 73.5205 70.3731 73.5205C70.2225 73.5205 70.0719 73.5186 69.9226 73.5128V46.2753C70.0726 46.2695 70.2225 46.2676 70.3731 46.2676C70.5244 46.2676 70.6743 46.2695 70.8243 46.2753Z" fill="url(#paint8_linear)"/>
<path d="M84 59.8936C84 60.0449 83.9975 60.1949 83.9923 60.3448H56.7548C56.749 60.1949 56.7471 60.0449 56.7471 59.8936C56.7471 59.743 56.749 59.5931 56.7548 59.4431H83.9923C83.9975 59.5931 84 59.743 84 59.8936Z" fill="url(#paint9_linear)"/>
<path d="M80.3221 50.5837L69.9227 60.9831L63.0757 67.8295L61.0634 69.8425C60.8435 69.6368 60.6301 69.424 60.425 69.2042L69.2844 60.3448L69.735 59.8936L69.9221 59.7065L70.1861 59.4431L79.6838 49.9454C79.9036 50.1505 80.117 50.3639 80.3221 50.5837Z" fill="url(#paint10_linear)"/>
<path d="M80.3221 69.2042C80.117 69.424 79.9036 69.6374 79.6838 69.8425L60.425 50.5837C60.6301 50.3639 60.8435 50.1505 61.0634 49.9454L63.0757 51.9584L70.3739 59.256L80.3221 69.2042Z" fill="url(#paint11_linear)"/>
<path fill-rule="evenodd" clip-rule="evenodd" d="M56.7471 59.8937C56.7471 52.3687 62.8481 46.2676 70.3732 46.2676C77.899 46.2676 83.9994 52.3687 83.9994 59.8937C83.9994 67.4195 77.899 73.5199 70.3732 73.5199C62.8481 73.5199 56.7471 67.4195 56.7471 59.8937ZM60.6756 59.8937C60.6756 65.2501 65.0175 69.5914 70.3732 69.5914C75.729 69.5914 80.0709 65.2495 80.0709 59.8937C80.0709 54.538 75.7296 50.1967 70.3732 50.1967C65.0175 50.1967 60.6756 54.538 60.6756 59.8937Z" fill="url(#paint12_linear)"/>
<path d="M76.5025 59.8943C76.5025 63.2794 73.7583 66.0229 70.3733 66.0229C66.9882 66.0229 64.2446 63.2794 64.2446 59.8943C64.2446 56.5092 66.9882 53.765 70.3733 53.765C73.7583 53.765 76.5025 56.5092 76.5025 59.8943Z" fill="url(#paint13_linear)"/>
<path d="M76.3423 61.2831L72.7303 57.6711C72.1394 57.045 71.3025 56.6534 70.3732 56.6534C68.5833 56.6534 67.1323 58.1044 67.1323 59.8937C67.1323 60.8229 67.5239 61.6599 68.1507 62.2508L71.7626 65.8627C74.0313 65.3372 75.8161 63.5518 76.3423 61.2831Z" fill="url(#paint14_linear)"/>
<path d="M73.6141 59.8943C73.6141 61.6836 72.1631 63.1346 70.3732 63.1346C68.5833 63.1346 67.1323 61.6836 67.1323 59.8943C67.1323 58.1044 68.5833 56.6534 70.3732 56.6534C72.1631 56.6534 73.6141 58.1044 73.6141 59.8943Z" fill="url(#paint15_radial)"/>
<path fill-rule="evenodd" clip-rule="evenodd" d="M60.7959 51.0828C59.48 52.9773 58.577 55.1801 58.2172 57.5609C58.1448 58.0441 57.9429 58.4805 57.6494 58.8349C57.1758 59.4124 56.4612 59.7744 55.6659 59.7744H50.2102H29.6466H28.7481H23.1866H4.19833C1.87967 59.7744 0 57.8948 0 55.5768V49.4936C0 39.3871 8.19287 31.1942 18.3 31.1942H38.8469C38.8469 33.7 37.2178 35.9155 34.8261 36.6621L33.8052 36.9807C30.2836 38.0797 29.6466 41.3411 29.6466 45.0306V46.636V48.3875C29.6466 51.8661 32.4651 54.6847 35.9438 54.6847H50.2102V24.0742C50.2102 21.9747 51.8963 20.2437 53.9958 20.2315C56.4272 20.2174 58.6927 21.0711 60.4622 22.5259C62.2199 23.9702 63.49 26.0022 63.9586 28.3668L63.9587 28.3674L65.2898 35.0914L66.2623 40.003H66.3601H69.1991C74.3107 40.003 78.718 43.0164 80.7405 47.3634C81.3314 48.6336 79.9696 49.9095 78.7237 49.2687C77.2771 48.5241 75.7066 47.9862 74.0518 47.6941L74.0531 47.6953C73.1123 47.5294 72.1446 47.4416 71.1563 47.4416C67.2362 47.4416 63.6328 48.8042 60.7959 51.0828Z" fill="url(#paint16_linear)"/>
<path d="M51.7534 20.7213H44.0674C43.0818 20.7213 42.2826 19.9221 42.2826 18.9358V17.9059C42.2826 16.9203 43.0818 16.1211 44.0674 16.1211H51.7534C52.739 16.1211 53.5382 16.9203 53.5382 17.9059V18.9358C53.5382 19.9221 52.739 20.7213 51.7534 20.7213Z" fill="url(#paint17_linear)"/>
<path d="M62.9231 15.7782C62.9231 12.0702 61.7305 9.06384 60.259 9.06384C58.7882 9.06384 57.5956 12.0702 57.5956 15.7782C57.5956 19.4869 58.7882 22.4926 60.259 22.4926C61.7305 22.4926 62.9231 19.4869 62.9231 15.7782Z" fill="url(#paint18_linear)"/>
<path d="M59.7591 22.9726H55.9427C52.236 22.9726 49.2316 19.9676 49.2316 16.2614V15.295C49.2316 11.5889 52.236 8.58447 55.9427 8.58447H59.7591C60.432 8.58447 60.9768 9.12921 60.9768 9.80212V21.755C60.9768 22.4272 60.432 22.9726 59.7591 22.9726Z" fill="url(#paint19_linear)"/>
<path d="M18.9025 24.5382H36.4098C38.4407 24.5382 40.0871 26.1846 40.0871 28.2155V29.9824C40.0871 30.6515 39.5443 31.1943 38.8752 31.1943H16.4371C15.768 31.1943 15.2258 30.6515 15.2258 29.9824V28.2155C15.2258 26.1846 16.8716 24.5382 18.9025 24.5382Z" fill="url(#paint20_linear)"/>
<path d="M17.7706 50.835H8.11337C7.104 50.835 6.28625 50.0173 6.28625 49.0079C6.28625 47.9992 7.104 47.1808 8.11337 47.1808H17.7706C18.7794 47.1808 19.5977 47.9985 19.5977 49.0079C19.5977 50.0173 18.7794 50.835 17.7706 50.835Z" fill="url(#paint21_linear)"/>
<path d="M17.7706 55.4678H8.11337C7.104 55.4678 6.28625 54.6501 6.28625 53.6407C6.28625 52.632 7.104 51.8136 8.11337 51.8136H17.7706C18.7794 51.8136 19.5977 52.632 19.5977 53.6407C19.5977 54.6501 18.7794 55.4678 17.7706 55.4678Z" fill="url(#paint22_linear)"/>
<path d="M32.3099 24.2455L10.5979 24.2423C9.89948 24.2423 9.33274 23.6756 9.33337 22.9772L9.33591 1.26518C9.33654 0.566102 9.90264 0 10.6017 0L32.3137 0.00316611C33.0128 0.00316611 33.5789 0.569901 33.5789 1.26835L33.5757 22.981C33.5757 23.6794 33.009 24.2455 32.3099 24.2455Z" fill="url(#paint23_linear)"/>
<path d="M17.8065 9.02213L30.4862 21.705L30.7256 21.9171C31.0035 22.1634 31.4215 22.1634 31.6995 21.9177L31.7001 21.9171C31.9781 21.6708 32.396 21.6708 32.674 21.9171C32.9285 22.1432 33.3015 22.1615 33.5757 21.9728L33.5776 8.22743L25.3546 0.00185393L17.5608 0.0012207L17.5596 8.47185C17.5596 8.68208 17.6495 8.88282 17.8065 9.02213Z" fill="url(#paint24_linear)"/>
<path d="M25.3546 0.00248715L25.3533 8.47312C25.3533 8.68335 25.2634 8.88345 25.1057 9.02276L24.8651 9.23552C24.5877 9.48185 24.1698 9.48121 23.8918 9.23552L23.8912 9.23489C23.6132 8.98856 23.1953 8.98856 22.9173 9.23489C22.6393 9.48121 22.2214 9.48121 21.9434 9.23489L21.9427 9.23425C21.6648 8.98793 21.2468 8.98856 20.9688 9.23425C20.6909 9.48058 20.2729 9.48058 19.9949 9.23425C19.717 8.98793 19.299 8.98793 19.0211 9.23362L19.0204 9.23425C18.7424 9.48058 18.3245 9.48058 18.0465 9.23425L17.8072 9.02149C17.6495 8.88218 17.5596 8.68208 17.5596 8.47185L17.5608 0.0012207L25.3546 0.00248715Z" fill="url(#paint25_linear)"/>
<path d="M11.295 20.7394H16.6433V22.2813H11.295V20.7394Z" fill="url(#paint26_linear)"/>
<path d="M11.2958 17.4694H19.781V19.0113H11.2958V17.4694Z" fill="url(#paint27_linear)"/>
<defs>
<linearGradient id="paint0_linear" x1="17.5987" y1="73.5257" x2="18.5008" y2="73.5257" gradientUnits="userSpaceOnUse">
<stop stop-color="#575C55"/>
<stop offset="1" stop-color="#45425A"/>
</linearGradient>
<linearGradient id="paint1_linear" x1="4.42322" y1="60.3448" x2="31.6765" y2="60.3448" gradientUnits="userSpaceOnUse">
<stop stop-color="#575C55"/>
<stop offset="1" stop-color="#45425A"/>
</linearGradient>
<linearGradient id="paint2_linear" x1="8.10125" y1="69.8425" x2="27.9983" y2="69.8425" gradientUnits="userSpaceOnUse">
<stop stop-color="#575C55"/>
<stop offset="1" stop-color="#45425A"/>
</linearGradient>
<linearGradient id="paint3_linear" x1="8.10125" y1="69.8425" x2="27.9983" y2="69.8425" gradientUnits="userSpaceOnUse">
<stop stop-color="#575C55"/>
<stop offset="1" stop-color="#45425A"/>
</linearGradient>
<linearGradient id="paint4_linear" x1="21.8582" y1="39.8434" x2="-9.36258" y2="59.478" gradientUnits="userSpaceOnUse">
<stop/>
<stop offset="1" stop-color="#4A4A4A"/>
</linearGradient>
<linearGradient id="paint5_linear" x1="5.9261" y1="59.6717" x2="17.7394" y2="70.5204" gradientUnits="userSpaceOnUse">
<stop stop-color="#6BDEC5"/>
<stop offset="1" stop-color="#39B993"/>
</linearGradient>
<linearGradient id="paint6_linear" x1="10.3045" y1="61.0911" x2="19.1798" y2="69.2423" gradientUnits="userSpaceOnUse">
<stop stop-color="#6BDEC5"/>
<stop offset="1" stop-color="#39B993"/>
</linearGradient>
<radialGradient id="paint7_radial" cx="0" cy="0" r="1" gradientUnits="userSpaceOnUse" gradientTransform="translate(18.0498 59.8941) scale(3.2407)">
<stop stop-color="#45425A"/>
<stop offset="0.4759" stop-color="#424059"/>
<stop offset="0.7742" stop-color="#3A3B56"/>
<stop offset="1" stop-color="#2D3251"/>
</radialGradient>
<linearGradient id="paint8_linear" x1="69.9223" y1="73.5257" x2="70.8244" y2="73.5257" gradientUnits="userSpaceOnUse">
<stop stop-color="#575C55"/>
<stop offset="1" stop-color="#45425A"/>
</linearGradient>
<linearGradient id="paint9_linear" x1="56.7468" y1="60.3448" x2="84.0001" y2="60.3448" gradientUnits="userSpaceOnUse">
<stop stop-color="#575C55"/>
<stop offset="1" stop-color="#45425A"/>
</linearGradient>
<linearGradient id="paint10_linear" x1="60.425" y1="69.8425" x2="80.322" y2="69.8425" gradientUnits="userSpaceOnUse">
<stop stop-color="#575C55"/>
<stop offset="1" stop-color="#45425A"/>
</linearGradient>
<linearGradient id="paint11_linear" x1="60.425" y1="69.8425" x2="80.322" y2="69.8425" gradientUnits="userSpaceOnUse">
<stop stop-color="#575C55"/>
<stop offset="1" stop-color="#45425A"/>
</linearGradient>
<linearGradient id="paint12_linear" x1="74.1817" y1="39.8434" x2="42.9606" y2="59.4787" gradientUnits="userSpaceOnUse">
<stop/>
<stop offset="1" stop-color="#4A4A4A"/>
</linearGradient>
<linearGradient id="paint13_linear" x1="58.25" y1="59.6717" x2="70.0633" y2="70.5204" gradientUnits="userSpaceOnUse">
<stop stop-color="#6BDEC5"/>
<stop offset="1" stop-color="#39B993"/>
</linearGradient>
<linearGradient id="paint14_linear" x1="62.6282" y1="61.0911" x2="71.5036" y2="69.2423" gradientUnits="userSpaceOnUse">
<stop stop-color="#6BDEC5"/>
<stop offset="1" stop-color="#39B993"/>
</linearGradient>
<radialGradient id="paint15_radial" cx="0" cy="0" r="1" gradientUnits="userSpaceOnUse" gradientTransform="translate(70.3734 59.8941) scale(3.2407 3.24038)">
<stop stop-color="#45425A"/>
<stop offset="0.4759" stop-color="#424059"/>
<stop offset="0.7742" stop-color="#3A3B56"/>
<stop offset="1" stop-color="#2D3251"/>
</radialGradient>
<linearGradient id="paint16_linear" x1="34.6062" y1="-1.86539" x2="7.13059" y2="62.1792" gradientUnits="userSpaceOnUse">
<stop stop-color="#FFA981"/>
<stop offset="0.0658534" stop-color="#FFA77F"/>
<stop offset="0.428" stop-color="#FF8666"/>
<stop offset="1" stop-color="#FF5C45"/>
<stop offset="1" stop-color="#FF5C45"/>
</linearGradient>
<linearGradient id="paint17_linear" x1="49.4833" y1="15.0367" x2="44.1403" y2="23.2586" gradientUnits="userSpaceOnUse">
<stop/>
<stop offset="1" stop-color="#4A4A4A"/>
</linearGradient>
<linearGradient id="paint18_linear" x1="54.9902" y1="15.5347" x2="63.3455" y2="18.5788" gradientUnits="userSpaceOnUse">
<stop stop-color="#6BDEC5"/>
<stop offset="1" stop-color="#39B993"/>
</linearGradient>
<linearGradient id="paint19_linear" x1="56.5014" y1="1.3904" x2="43.1154" y2="9.71774" gradientUnits="userSpaceOnUse">
<stop stop-color="#FFA981"/>
<stop offset="0.428" stop-color="#FF8666"/>
<stop offset="1" stop-color="#FF5C45"/>
</linearGradient>
<linearGradient id="paint20_linear" x1="31.1308" y1="22.9692" x2="25.0328" y2="37.2937" gradientUnits="userSpaceOnUse">
<stop/>
<stop offset="1" stop-color="#4A4A4A"/>
</linearGradient>
<linearGradient id="paint21_linear" x1="23.4113" y1="52.3359" x2="23.4113" y2="46.5877" gradientUnits="userSpaceOnUse">
<stop stop-color="#E58200" stop-opacity="0.01"/>
<stop offset="0.2413" stop-color="#DA760F" stop-opacity="0.243137"/>
<stop offset="0.7044" stop-color="#BC5737" stop-opacity="0.705882"/>
<stop offset="1" stop-color="#A64153"/>
</linearGradient>
<linearGradient id="paint22_linear" x1="23.4113" y1="56.9688" x2="23.4113" y2="51.2206" gradientUnits="userSpaceOnUse">
<stop stop-color="#E58200" stop-opacity="0.01"/>
<stop offset="0.2413" stop-color="#DA760F" stop-opacity="0.243137"/>
<stop offset="0.7044" stop-color="#BC5737" stop-opacity="0.705882"/>
<stop offset="1" stop-color="#A64153"/>
</linearGradient>
<linearGradient id="paint23_linear" x1="-0.982315" y1="11.2192" x2="21.4561" y2="35.4647" gradientUnits="userSpaceOnUse">
<stop stop-color="#F7D0AD"/>
<stop offset="1" stop-color="#E89F7B"/>
</linearGradient>
<linearGradient id="paint24_linear" x1="34.8759" y1="4.33834" x2="19.5709" y2="-3.7036" gradientUnits="userSpaceOnUse">
<stop stop-color="#FFC77E" stop-opacity="0.01"/>
<stop offset="0.1923" stop-color="#DE7B09" stop-opacity="0.108173"/>
<stop offset="0.503695" stop-color="#FF9A50" stop-opacity="0.501961"/>
<stop offset="0.887854" stop-color="#FFBC86" stop-opacity="0.886275"/>
<stop offset="1" stop-color="#FFECAD"/>
</linearGradient>
<linearGradient id="paint25_linear" x1="13.1843" y1="1.93712" x2="22.4895" y2="10.7554" gradientUnits="userSpaceOnUse">
<stop stop-color="#F8F6FB"/>
<stop offset="1" stop-color="#FBF1DC"/>
</linearGradient>
<linearGradient id="paint26_linear" x1="11.1568" y1="21.7668" x2="11.9633" y2="23.8317" gradientUnits="userSpaceOnUse">
<stop stop-color="#F8F6FB"/>
<stop offset="1" stop-color="#FBE8DC"/>
</linearGradient>
<linearGradient id="paint27_linear" x1="11.0765" y1="18.4968" x2="11.6289" y2="20.7407" gradientUnits="userSpaceOnUse">
<stop stop-color="#F8F6FB"/>
<stop offset="1" stop-color="#FBE8DC"/>
</linearGradient>
</defs>
</svg>
