<svg width="305" height="296" viewBox="0 0 305 296" fill="none" xmlns="http://www.w3.org/2000/svg">
<path fill-rule="evenodd" clip-rule="evenodd" d="M90.7251 38.4894L320.562 0V277.124V295.819H90.7251V38.4894Z" fill="white"/>
<path fill-rule="evenodd" clip-rule="evenodd" d="M109.493 38.9044L318.436 10.4471V262.846V279.873H109.493V38.9044Z" fill="url(#paint0_linear)"/>
<mask id="mask0" mask-type="alpha" maskUnits="userSpaceOnUse" x="109" y="10" width="210" height="270">
<path fill-rule="evenodd" clip-rule="evenodd" d="M109.493 38.9044L318.436 10.4471V262.846V279.873H109.493V38.9044Z" fill="white"/>
</mask>
<g mask="url(#mask0)">
<path fill-rule="evenodd" clip-rule="evenodd" d="M99.3032 89.54L101.735 134.02L125.806 133.179L125.13 88.6381L99.3032 89.54Z" fill="#FDE3C2"/>
<path fill-rule="evenodd" clip-rule="evenodd" d="M125.595 132.634L130.586 132.46L131.767 88.796L124.951 88.092L125.595 132.634Z" fill="#E9C3AF"/>
<path fill-rule="evenodd" clip-rule="evenodd" d="M101.777 134.035L125.956 133.19L125.86 130.443L101.777 134.035Z" fill="#E9C3AF"/>
<mask id="mask1" mask-type="alpha" maskUnits="userSpaceOnUse" x="104" y="107" width="17" height="18">
<path fill-rule="evenodd" clip-rule="evenodd" d="M111.367 108.42C107.326 110.862 104.481 116.131 105.011 120.189C105.541 124.247 109.247 125.558 113.288 123.115C117.33 120.673 120.175 115.403 119.643 111.346C119.285 108.599 117.47 107.111 115.082 107.194C113.942 107.234 112.673 107.632 111.367 108.42Z" fill="white"/>
</mask>
<g mask="url(#mask1)">
<path fill-rule="evenodd" clip-rule="evenodd" d="M111.367 108.42C107.326 110.862 104.481 116.131 105.011 120.189C105.541 124.247 109.247 125.558 113.288 123.115C117.33 120.673 120.175 115.403 119.643 111.346C119.285 108.599 117.47 107.111 115.082 107.194C113.942 107.234 112.673 107.632 111.367 108.42Z" fill="url(#paint1_linear)"/>
</g>
<mask id="mask2" mask-type="alpha" maskUnits="userSpaceOnUse" x="104" y="101" width="20" height="20">
<path fill-rule="evenodd" clip-rule="evenodd" d="M116.203 108.804C114.438 111.04 112.837 113.412 111.343 115.866C111.188 115.751 111.037 115.63 110.885 115.513C110.311 115.065 109.707 114.653 109.103 114.24C107.895 113.414 106.655 112.631 105.312 111.971C106.102 113.319 106.989 114.543 107.911 115.725C108.372 116.316 108.832 116.906 109.323 117.461C109.81 118.021 110.275 118.605 110.786 119.134L111.792 120.173L112.824 118.904C114.921 116.327 116.839 113.603 118.568 110.727C120.299 107.85 121.902 104.873 123.071 101.54C120.449 103.692 118.263 106.198 116.203 108.804Z" fill="white"/>
</mask>
<g mask="url(#mask2)">
<path fill-rule="evenodd" clip-rule="evenodd" d="M116.203 108.804C114.438 111.04 112.837 113.412 111.343 115.866C111.188 115.751 111.037 115.63 110.885 115.513C110.311 115.065 109.707 114.653 109.103 114.24C107.895 113.414 106.655 112.631 105.312 111.971C106.102 113.319 106.989 114.543 107.911 115.725C108.372 116.316 108.832 116.906 109.323 117.461C109.81 118.021 110.275 118.605 110.786 119.134L111.792 120.173L112.824 118.904C114.921 116.327 116.839 113.603 118.568 110.727C120.299 107.85 121.902 104.873 123.071 101.54C120.449 103.692 118.263 106.198 116.203 108.804Z" fill="url(#paint2_linear)"/>
</g>
<path fill-rule="evenodd" clip-rule="evenodd" d="M153.167 131.649L129.339 132.481L126.915 88.0015L152.483 87.1086L153.167 131.649Z" fill="#FDE3C2"/>
<path fill-rule="evenodd" clip-rule="evenodd" d="M152.482 87.109L158.995 87.8249L157.935 131.483L153.167 131.65L152.482 87.109Z" fill="#E9C3AF"/>
<path fill-rule="evenodd" clip-rule="evenodd" d="M129.339 132.481L153.167 131.649L153.104 129.836L129.339 132.481Z" fill="#E9C3AF"/>
<mask id="mask3" mask-type="alpha" maskUnits="userSpaceOnUse" x="133" y="105" width="17" height="19">
<path fill-rule="evenodd" clip-rule="evenodd" d="M140.505 107.321C136.465 109.762 133.618 115.031 134.148 119.089C134.68 123.148 138.385 124.458 142.427 122.016C146.467 119.573 149.314 114.303 148.783 110.247C148.424 107.499 146.609 106.011 144.219 106.095C143.081 106.135 141.81 106.532 140.505 107.321Z" fill="white"/>
</mask>
<g mask="url(#mask3)">
<path fill-rule="evenodd" clip-rule="evenodd" d="M140.505 107.321C136.465 109.762 133.618 115.031 134.148 119.089C134.68 123.148 138.385 124.458 142.427 122.016C146.467 119.573 149.314 114.303 148.783 110.247C148.424 107.499 146.609 106.011 144.219 106.095C143.081 106.135 141.81 106.532 140.505 107.321Z" fill="url(#paint3_linear)"/>
</g>
<mask id="mask4" mask-type="alpha" maskUnits="userSpaceOnUse" x="133" y="100" width="19" height="20">
<path fill-rule="evenodd" clip-rule="evenodd" d="M144.24 107.705C142.474 109.941 140.873 112.312 139.379 114.767C139.224 114.651 139.074 114.531 138.922 114.414C138.347 113.965 137.743 113.554 137.138 113.141C135.931 112.314 134.689 111.532 133.349 110.872C134.137 112.219 135.025 113.443 135.947 114.626C136.408 115.217 136.868 115.807 137.357 116.361C137.845 116.921 138.309 117.506 138.821 118.034L139.828 119.073L140.859 117.805C142.957 115.228 144.875 112.504 146.604 109.627C148.335 106.751 149.938 103.773 151.108 100.44C148.485 102.593 146.299 105.098 144.24 107.705Z" fill="white"/>
</mask>
<g mask="url(#mask4)">
<path fill-rule="evenodd" clip-rule="evenodd" d="M144.24 107.705C142.474 109.941 140.873 112.312 139.379 114.767C139.224 114.651 139.074 114.531 138.922 114.414C138.347 113.965 137.743 113.554 137.138 113.141C135.931 112.314 134.689 111.532 133.349 110.872C134.137 112.219 135.025 113.443 135.947 114.626C136.408 115.217 136.868 115.807 137.357 116.361C137.845 116.921 138.309 117.506 138.821 118.034L139.828 119.073L140.859 117.805C142.957 115.228 144.875 112.504 146.604 109.627C148.335 106.751 149.938 103.773 151.108 100.44C148.485 102.593 146.299 105.098 144.24 107.705Z" fill="url(#paint4_linear)"/>
</g>
<path fill-rule="evenodd" clip-rule="evenodd" d="M176.188 130.672L158.09 131.304L156.442 103.06L175.861 102.382L176.188 130.672Z" fill="#E3DCB1"/>
<path fill-rule="evenodd" clip-rule="evenodd" d="M175.861 102.382L180.805 102.808L179.81 130.545L176.189 130.671L175.861 102.382Z" fill="#A69A85"/>
<mask id="mask5" mask-type="alpha" maskUnits="userSpaceOnUse" x="158" y="129" width="19" height="3">
<path fill-rule="evenodd" clip-rule="evenodd" d="M158.047 130.09L176.146 129.458L176.188 130.672L158.09 131.304L158.047 130.09Z" fill="white"/>
</mask>
<g mask="url(#mask5)">
<path fill-rule="evenodd" clip-rule="evenodd" d="M158.09 131.304L176.188 130.672L176.148 129.521L158.09 131.304Z" fill="#A69A85"/>
</g>
<mask id="mask6" mask-type="alpha" maskUnits="userSpaceOnUse" x="161" y="114" width="12" height="12">
<path fill-rule="evenodd" clip-rule="evenodd" d="M166.192 115.299C163.138 116.842 160.973 120.144 161.353 122.674C161.736 125.204 164.519 126.005 167.572 124.463C170.625 122.92 172.791 119.619 172.409 117.089C172.152 115.375 170.792 114.455 168.993 114.518C168.135 114.548 167.177 114.801 166.192 115.299Z" fill="white"/>
</mask>
<g mask="url(#mask6)">
<path fill-rule="evenodd" clip-rule="evenodd" d="M166.192 115.299C163.138 116.842 160.973 120.144 161.353 122.674C161.736 125.204 164.519 126.005 167.572 124.463C170.625 122.92 172.791 119.619 172.409 117.089C172.152 115.375 170.792 114.455 168.993 114.518C168.135 114.548 167.177 114.801 166.192 115.299Z" fill="url(#paint5_linear)"/>
</g>
<mask id="mask7" mask-type="alpha" maskUnits="userSpaceOnUse" x="160" y="110" width="15" height="14">
<path fill-rule="evenodd" clip-rule="evenodd" d="M169.028 115.625C167.659 117.087 166.419 118.637 165.259 120.241C165.14 120.167 165.026 120.088 164.908 120.014C164.468 119.724 164.004 119.458 163.542 119.191C162.616 118.66 161.665 118.155 160.637 117.732C161.237 118.605 161.916 119.397 162.619 120.163C162.971 120.546 163.323 120.929 163.697 121.288C164.07 121.65 164.425 122.029 164.817 122.37L165.588 123.041L166.386 122.212C168.01 120.527 169.499 118.746 170.84 116.865C172.182 114.986 173.429 113.041 174.341 110.867C172.315 112.277 170.624 113.918 169.028 115.625Z" fill="white"/>
</mask>
<g mask="url(#mask7)">
<path fill-rule="evenodd" clip-rule="evenodd" d="M169.028 115.625C167.659 117.087 166.419 118.637 165.259 120.241C165.14 120.167 165.026 120.088 164.908 120.014C164.468 119.724 164.004 119.458 163.542 119.191C162.616 118.66 161.665 118.155 160.637 117.732C161.237 118.605 161.916 119.397 162.619 120.163C162.971 120.546 163.323 120.929 163.697 121.288C164.07 121.65 164.425 122.029 164.817 122.37L165.588 123.041L166.386 122.212C168.01 120.527 169.499 118.746 170.84 116.865C172.182 114.986 173.429 113.041 174.341 110.867C172.315 112.277 170.624 113.918 169.028 115.625Z" fill="url(#paint6_linear)"/>
</g>
<path fill-rule="evenodd" clip-rule="evenodd" d="M197.393 130.13L179.497 130.755L177.858 102.511L197.06 101.841L197.393 130.13Z" fill="#E3DCB1"/>
<mask id="mask8" mask-type="alpha" maskUnits="userSpaceOnUse" x="196" y="101" width="7" height="30">
<path fill-rule="evenodd" clip-rule="evenodd" d="M196.406 101.863L201.926 101.671L202.913 129.937L197.393 130.13L196.406 101.863Z" fill="white"/>
</mask>
<g mask="url(#mask8)">
<path fill-rule="evenodd" clip-rule="evenodd" d="M197.06 101.84L201.948 102.269L200.975 130.005L197.393 130.13L197.06 101.84Z" fill="#A69A85"/>
</g>
<mask id="mask9" mask-type="alpha" maskUnits="userSpaceOnUse" x="179" y="128" width="19" height="3">
<path fill-rule="evenodd" clip-rule="evenodd" d="M179.454 129.541L197.351 128.916L197.393 130.131L179.497 130.756L179.454 129.541Z" fill="white"/>
</mask>
<g mask="url(#mask9)">
<path fill-rule="evenodd" clip-rule="evenodd" d="M179.497 130.755L197.393 130.13L197.353 128.98L179.497 130.755Z" fill="#A69A85"/>
</g>
<mask id="mask10" mask-type="alpha" maskUnits="userSpaceOnUse" x="182" y="113" width="13" height="12">
<path fill-rule="evenodd" clip-rule="evenodd" d="M187.662 114.198C184.578 115.743 182.389 119.045 182.773 121.576C183.156 124.106 185.969 124.905 189.054 123.362C192.137 121.818 194.326 118.516 193.941 115.986C193.683 114.272 192.309 113.353 190.492 113.416C189.625 113.446 188.659 113.7 187.662 114.198Z" fill="white"/>
</mask>
<g mask="url(#mask10)">
<path fill-rule="evenodd" clip-rule="evenodd" d="M187.662 114.198C184.578 115.743 182.389 119.045 182.773 121.576C183.156 124.106 185.969 124.905 189.054 123.362C192.137 121.818 194.326 118.516 193.941 115.986C193.683 114.272 192.309 113.353 190.492 113.416C189.625 113.446 188.659 113.7 187.662 114.198Z" fill="url(#paint7_linear)"/>
</g>
<mask id="mask11" mask-type="alpha" maskUnits="userSpaceOnUse" x="181" y="110" width="15" height="13">
<path fill-rule="evenodd" clip-rule="evenodd" d="M190.192 115.075C188.864 116.536 187.66 118.084 186.536 119.688C186.421 119.613 186.309 119.535 186.196 119.46C185.768 119.17 185.317 118.903 184.868 118.635C183.967 118.104 183.044 117.597 182.044 117.174C182.629 118.047 183.287 118.84 183.972 119.607C184.315 119.99 184.657 120.373 185.021 120.733C185.382 121.095 185.727 121.475 186.108 121.816L186.857 122.488L187.631 121.66C189.207 119.976 190.649 118.196 191.951 116.317C193.254 114.44 194.463 112.496 195.347 110.323C193.38 111.731 191.739 113.37 190.192 115.075Z" fill="white"/>
</mask>
<g mask="url(#mask11)">
<path fill-rule="evenodd" clip-rule="evenodd" d="M190.192 115.075C188.864 116.536 187.66 118.084 186.536 119.688C186.421 119.613 186.309 119.535 186.196 119.46C185.768 119.17 185.317 118.903 184.868 118.635C183.967 118.104 183.044 117.597 182.044 117.174C182.629 118.047 183.287 118.84 183.972 119.607C184.315 119.99 184.657 120.373 185.021 120.733C185.382 121.095 185.727 121.475 186.108 121.816L186.857 122.488L187.631 121.66C189.207 119.976 190.649 118.196 191.951 116.317C193.254 114.44 194.463 112.496 195.347 110.323C193.38 111.731 191.739 113.37 190.192 115.075Z" fill="url(#paint8_linear)"/>
</g>
<path fill-rule="evenodd" clip-rule="evenodd" d="M188.853 101.955L170.637 102.591L168.969 73.8553L188.514 73.1728L188.853 101.955Z" fill="#E3DCB1"/>
<mask id="mask12" mask-type="alpha" maskUnits="userSpaceOnUse" x="187" y="72" width="8" height="30">
<path fill-rule="evenodd" clip-rule="evenodd" d="M187.849 73.1959L193.468 72.9997L194.473 101.759L188.853 101.955L187.849 73.1959Z" fill="white"/>
</mask>
<g mask="url(#mask12)">
<path fill-rule="evenodd" clip-rule="evenodd" d="M188.514 73.1723L193.49 73.608L192.499 101.827L188.853 101.955L188.514 73.1723Z" fill="#A69A85"/>
</g>
<path fill-rule="evenodd" clip-rule="evenodd" d="M170.637 102.591L188.854 101.955L188.813 100.785L170.637 102.591Z" fill="#A69A85"/>
<mask id="mask13" mask-type="alpha" maskUnits="userSpaceOnUse" x="173" y="85" width="13" height="12">
<path fill-rule="evenodd" clip-rule="evenodd" d="M178.773 86.0843C175.688 87.6288 173.499 90.9317 173.884 93.463C174.269 95.9931 177.08 96.7942 180.165 95.2497C183.247 93.7052 185.438 90.4035 185.054 87.8734C184.794 86.1599 183.42 85.239 181.603 85.3024C180.737 85.3327 179.769 85.5866 178.773 86.0843Z" fill="white"/>
</mask>
<g mask="url(#mask13)">
<path fill-rule="evenodd" clip-rule="evenodd" d="M178.773 86.0843C175.688 87.6288 173.499 90.9317 173.884 93.463C174.269 95.9931 177.08 96.7942 180.165 95.2497C183.247 93.7052 185.438 90.4035 185.054 87.8734C184.794 86.1599 183.42 85.239 181.603 85.3024C180.737 85.3327 179.769 85.5866 178.773 86.0843Z" fill="url(#paint9_linear)"/>
</g>
<mask id="mask14" mask-type="alpha" maskUnits="userSpaceOnUse" x="173" y="82" width="15" height="13">
<path fill-rule="evenodd" clip-rule="evenodd" d="M181.683 86.8594C180.316 88.34 179.076 89.9088 177.917 91.5348C177.797 91.4581 177.684 91.3799 177.566 91.3044C177.125 91.0105 176.663 90.7409 176.199 90.4713C175.274 89.932 174.321 89.4185 173.293 88.9898C173.893 89.8758 174.573 90.6781 175.277 91.4535C175.628 91.8418 175.981 92.2301 176.356 92.5942C176.728 92.9596 177.085 93.3452 177.475 93.6904L178.245 94.3708L179.045 93.5325C180.669 91.8237 182.154 90.0219 183.495 88.1181C184.837 86.2156 186.083 84.2459 186.995 82.0439C184.969 83.4718 183.279 85.1333 181.683 86.8594Z" fill="white"/>
</mask>
<g mask="url(#mask14)">
<path fill-rule="evenodd" clip-rule="evenodd" d="M181.683 86.8594C180.316 88.34 179.076 89.9088 177.917 91.5348C177.797 91.4581 177.684 91.3799 177.566 91.3044C177.125 91.0105 176.663 90.7409 176.199 90.4713C175.274 89.932 174.321 89.4185 173.293 88.9898C173.893 89.8758 174.573 90.6781 175.277 91.4535C175.628 91.8418 175.981 92.2301 176.356 92.5942C176.728 92.9596 177.085 93.3452 177.475 93.6904L178.245 94.3708L179.045 93.5325C180.669 91.8237 182.154 90.0219 183.495 88.1181C184.837 86.2156 186.083 84.2459 186.995 82.0439C184.969 83.4718 183.279 85.1333 181.683 86.8594Z" fill="url(#paint10_linear)"/>
</g>
<path fill-rule="evenodd" clip-rule="evenodd" d="M81.3718 236.249L82.8049 247.901L80.2456 278.371L84.1865 250.139L100.618 249.358L83.8797 248.237L83.7254 237.816L110.19 236.475L81.3718 236.249Z" fill="#FFFCE9"/>
<path fill-rule="evenodd" clip-rule="evenodd" d="M109.418 237.706L108.598 248.237H102.66V245.436C102.66 245.436 106.422 245.465 106.608 242.972C106.79 240.53 106.22 237.93 106.22 237.93L109.418 237.706ZM113.257 279.323L110.572 277.811L108.776 249.749H102.506V277.559L81.3921 279.323H113.257Z" fill="#F2B39A"/>
<path fill-rule="evenodd" clip-rule="evenodd" d="M112.393 248.236C116.347 247.959 120.301 247.941 124.254 247.9C128.208 247.939 132.162 247.957 136.114 248.236C132.162 248.517 128.208 248.534 124.254 248.572C120.301 248.532 116.347 248.514 112.393 248.236Z" fill="#F0758F"/>
<path fill-rule="evenodd" clip-rule="evenodd" d="M109.091 236.249L110.524 247.901L107.965 278.371L111.906 250.139L128.338 249.358L111.599 248.237L111.445 237.816L137.909 236.475L109.091 236.249Z" fill="#FFFCE9"/>
<path fill-rule="evenodd" clip-rule="evenodd" d="M123.874 256.684L125.929 255.079L127.065 257.545L129.568 257.167L129.526 259.93L131.901 260.868L130.692 263.294L132.397 265.332L130.296 266.865L130.939 269.535L128.428 269.824L127.863 272.519L125.517 271.497L123.874 273.593L122.23 271.497L119.883 272.519L119.319 269.824L116.808 269.535L117.451 266.865L115.35 265.332L117.055 263.294L115.846 260.868L118.221 259.93L118.18 257.167L120.682 257.545L121.819 255.079L123.874 256.684Z" fill="#FFF8E2"/>
<path fill-rule="evenodd" clip-rule="evenodd" d="M137.137 237.706L136.317 248.237H130.38V245.436C130.38 245.436 134.141 245.465 134.327 242.972C134.51 240.53 133.939 237.93 133.939 237.93L137.137 237.706ZM140.975 279.323L138.291 277.811L136.495 249.749H130.225V277.559L109.111 279.323H140.975Z" fill="#F2B39A"/>
<path fill-rule="evenodd" clip-rule="evenodd" d="M139.839 248.236C143.793 247.959 147.747 247.941 151.699 247.9C155.654 247.939 159.606 247.957 163.56 248.236C159.606 248.517 155.654 248.534 151.699 248.572C147.747 248.532 143.793 248.514 139.839 248.236Z" fill="#F0758F"/>
<path fill-rule="evenodd" clip-rule="evenodd" d="M136.537 236.249L137.97 247.901L135.411 278.371L139.352 250.139L155.783 249.358L139.045 248.237L138.89 237.816L165.355 236.475L136.537 236.249Z" fill="#FFFCE9"/>
<path fill-rule="evenodd" clip-rule="evenodd" d="M151.319 256.684L153.374 255.079L154.511 257.545L157.013 257.167L156.972 259.93L159.347 260.868L158.138 263.294L159.843 265.332L157.742 266.865L158.385 269.535L155.874 269.824L155.308 272.519L152.963 271.497L151.319 273.593L149.676 271.497L147.329 272.519L146.765 269.824L144.254 269.535L144.897 266.865L142.796 265.332L144.501 263.294L143.292 260.868L145.667 259.93L145.625 257.167L148.128 257.545L149.264 255.079L151.319 256.684Z" fill="#FFF8E2"/>
<path fill-rule="evenodd" clip-rule="evenodd" d="M164.583 237.706L163.763 248.237H157.826V245.436C157.826 245.436 161.587 245.465 161.773 242.972C161.956 240.53 161.385 237.93 161.385 237.93L164.583 237.706ZM168.421 279.323L165.737 277.811L163.941 249.749H157.671V277.559L136.557 279.323H168.421Z" fill="#F2B39A"/>
<path fill-rule="evenodd" clip-rule="evenodd" d="M165.145 225.237L166.962 239.692L163.717 277.494L168.715 242.471L189.549 241.498L168.325 240.108L168.13 227.183L201.684 225.516L165.145 225.237Z" fill="#FFFCE9"/>
<path fill-rule="evenodd" clip-rule="evenodd" d="M183.887 250.589L186.493 248.596L187.934 251.658L191.106 251.189L191.054 254.615L194.065 255.779L192.532 258.788L194.693 261.319L192.029 263.218L192.846 266.533L189.662 266.892L188.946 270.234L185.972 268.967L183.887 271.568L181.804 268.967L178.828 270.234L178.112 266.892L174.928 266.533L175.744 263.218L173.082 261.319L175.243 258.788L173.709 255.779L176.72 254.615L176.669 251.189L179.839 251.658L181.282 248.596L183.887 250.589Z" fill="#FFF8E2"/>
<mask id="mask15" mask-type="alpha" maskUnits="userSpaceOnUse" x="164" y="227" width="42" height="52">
<path fill-rule="evenodd" clip-rule="evenodd" d="M205.09 227.045H164.687V278.675H205.09V227.045Z" fill="white"/>
</mask>
<g mask="url(#mask15)">
<path fill-rule="evenodd" clip-rule="evenodd" d="M200.221 227.045L199.183 240.108H191.653V236.634C191.653 236.634 196.424 236.669 196.658 233.578C196.89 230.548 196.167 227.322 196.167 227.322L200.221 227.045ZM205.09 278.676L201.684 276.8L199.408 241.984H191.46V276.486L164.687 278.676H205.09Z" fill="#F2B39A"/>
</g>
<path fill-rule="evenodd" clip-rule="evenodd" d="M169.331 240.108C174.344 239.764 179.356 239.741 184.369 239.692C189.382 239.739 194.395 239.761 199.408 240.108C194.395 240.455 189.382 240.477 184.369 240.525C179.356 240.475 174.344 240.454 169.331 240.108Z" fill="#F0758F"/>
</g>
<mask id="mask16" mask-type="alpha" maskUnits="userSpaceOnUse" x="226" y="227" width="22" height="53">
<path fill-rule="evenodd" clip-rule="evenodd" d="M226.538 227.486L227.526 279.873H246.905L247.893 227.486H226.538Z" fill="white"/>
</mask>
<g mask="url(#mask16)">
<path fill-rule="evenodd" clip-rule="evenodd" d="M226.538 227.486L227.526 279.873H246.905L247.893 227.486H226.538Z" fill="url(#paint11_linear)"/>
</g>
<path fill-rule="evenodd" clip-rule="evenodd" d="M228.737 265.577H244.683V240.834H228.737V265.577Z" fill="#F9C6B2"/>
<mask id="mask17" mask-type="alpha" maskUnits="userSpaceOnUse" x="228" y="227" width="19" height="53">
<path fill-rule="evenodd" clip-rule="evenodd" d="M228.974 227.486H246.911V279.873H228.974V227.486Z" fill="white"/>
</mask>
<g mask="url(#mask17)">
<path fill-rule="evenodd" clip-rule="evenodd" d="M228.974 227.485L229.362 279.873H246.911L232.991 277.514L233.185 227.485H228.974Z" fill="#F2B39A"/>
</g>
<mask id="mask18" mask-type="alpha" maskUnits="userSpaceOnUse" x="249" y="227" width="22" height="53">
<path fill-rule="evenodd" clip-rule="evenodd" d="M249.223 227.486L250.216 279.873H269.693L270.688 227.486H249.223Z" fill="white"/>
</mask>
<g mask="url(#mask18)">
<path fill-rule="evenodd" clip-rule="evenodd" d="M249.223 227.486L250.216 279.873H269.693L270.688 227.486H249.223Z" fill="url(#paint12_linear)"/>
</g>
<path fill-rule="evenodd" clip-rule="evenodd" d="M251.281 265.577H267.227V240.834H251.281V265.577Z" fill="#F9C6B2"/>
<mask id="mask19" mask-type="alpha" maskUnits="userSpaceOnUse" x="251" y="227" width="19" height="53">
<path fill-rule="evenodd" clip-rule="evenodd" d="M251.222 227.486H269.159V279.873H251.222V227.486Z" fill="white"/>
</mask>
<g mask="url(#mask19)">
<path fill-rule="evenodd" clip-rule="evenodd" d="M251.222 227.485L251.61 279.873H269.159L255.239 277.514L255.433 227.485H251.222Z" fill="#F2B39A"/>
</g>
<mask id="mask20" mask-type="alpha" maskUnits="userSpaceOnUse" x="271" y="227" width="22" height="53">
<path fill-rule="evenodd" clip-rule="evenodd" d="M271.466 227.486L272.461 279.873H291.938L292.933 227.486H271.466Z" fill="white"/>
</mask>
<g mask="url(#mask20)">
<path fill-rule="evenodd" clip-rule="evenodd" d="M271.466 227.486L272.461 279.873H291.938L292.933 227.486H271.466Z" fill="url(#paint13_linear)"/>
</g>
<path fill-rule="evenodd" clip-rule="evenodd" d="M273.825 265.577H289.77V240.834H273.825V265.577Z" fill="#F9C6B2"/>
<mask id="mask21" mask-type="alpha" maskUnits="userSpaceOnUse" x="274" y="227" width="18" height="53">
<path fill-rule="evenodd" clip-rule="evenodd" d="M274.018 227.486H291.83V279.873H274.018V227.486Z" fill="white"/>
</mask>
<g mask="url(#mask21)">
<path fill-rule="evenodd" clip-rule="evenodd" d="M274.018 227.485L274.404 279.873H291.83L278.007 277.514L278.2 227.485H274.018Z" fill="#F2B39A"/>
</g>
<mask id="mask22" mask-type="alpha" maskUnits="userSpaceOnUse" x="296" y="227" width="23" height="53">
<path fill-rule="evenodd" clip-rule="evenodd" d="M296.918 227.486L297.906 279.873H317.286L318.274 227.486H296.918Z" fill="white"/>
</mask>
<g mask="url(#mask22)">
<path fill-rule="evenodd" clip-rule="evenodd" d="M296.918 227.486L297.906 279.873H317.286L318.274 227.486H296.918Z" fill="url(#paint14_linear)"/>
</g>
<path fill-rule="evenodd" clip-rule="evenodd" d="M299.118 265.577H315.063V240.834H299.118V265.577Z" fill="#F9C6B2"/>
<mask id="mask23" mask-type="alpha" maskUnits="userSpaceOnUse" x="299" y="227" width="19" height="53">
<path fill-rule="evenodd" clip-rule="evenodd" d="M299.354 227.486H317.291V279.873H299.354V227.486Z" fill="white"/>
</mask>
<g mask="url(#mask23)">
<path fill-rule="evenodd" clip-rule="evenodd" d="M299.354 227.485L299.743 279.873H317.291L303.371 277.514L303.566 227.485H299.354Z" fill="#F2B39A"/>
</g>
<mask id="mask24" mask-type="alpha" maskUnits="userSpaceOnUse" x="239" y="174" width="22" height="54">
<path fill-rule="evenodd" clip-rule="evenodd" d="M239.184 174.7L240.172 227.088H259.552L260.54 174.7H239.184Z" fill="white"/>
</mask>
<g mask="url(#mask24)">
<path fill-rule="evenodd" clip-rule="evenodd" d="M239.184 174.7L240.172 227.088H259.552L260.54 174.7H239.184Z" fill="url(#paint15_linear)"/>
</g>
<path fill-rule="evenodd" clip-rule="evenodd" d="M241.384 212.792H257.329V188.048H241.384V212.792Z" fill="#F9C6B2"/>
<mask id="mask25" mask-type="alpha" maskUnits="userSpaceOnUse" x="241" y="174" width="19" height="54">
<path fill-rule="evenodd" clip-rule="evenodd" d="M241.62 174.7H259.557V227.087H241.62V174.7Z" fill="white"/>
</mask>
<g mask="url(#mask25)">
<path fill-rule="evenodd" clip-rule="evenodd" d="M241.62 174.7L242.009 227.087H259.557L245.637 224.729L245.832 174.7H241.62Z" fill="#F2B39A"/>
</g>
<mask id="mask26" mask-type="alpha" maskUnits="userSpaceOnUse" x="261" y="174" width="23" height="54">
<path fill-rule="evenodd" clip-rule="evenodd" d="M261.869 174.7L262.862 227.088H282.34L283.334 174.7H261.869Z" fill="white"/>
</mask>
<g mask="url(#mask26)">
<path fill-rule="evenodd" clip-rule="evenodd" d="M261.869 174.7L262.862 227.088H282.34L283.334 174.7H261.869Z" fill="url(#paint16_linear)"/>
</g>
<path fill-rule="evenodd" clip-rule="evenodd" d="M263.927 212.792H279.873V188.048H263.927V212.792Z" fill="#F9C6B2"/>
<mask id="mask27" mask-type="alpha" maskUnits="userSpaceOnUse" x="263" y="174" width="19" height="54">
<path fill-rule="evenodd" clip-rule="evenodd" d="M263.868 174.7H281.805V227.087H263.868V174.7Z" fill="white"/>
</mask>
<g mask="url(#mask27)">
<path fill-rule="evenodd" clip-rule="evenodd" d="M263.868 174.7L264.257 227.087H281.805L267.885 224.729L268.08 174.7H263.868Z" fill="#F2B39A"/>
</g>
<mask id="mask28" mask-type="alpha" maskUnits="userSpaceOnUse" x="284" y="174" width="22" height="54">
<path fill-rule="evenodd" clip-rule="evenodd" d="M284.113 174.7L285.107 227.088H304.585L305.579 174.7H284.113Z" fill="white"/>
</mask>
<g mask="url(#mask28)">
<path fill-rule="evenodd" clip-rule="evenodd" d="M284.113 174.7L285.107 227.088H304.585L305.579 174.7H284.113Z" fill="url(#paint17_linear)"/>
</g>
<path fill-rule="evenodd" clip-rule="evenodd" d="M286.471 212.792H302.417V188.048H286.471V212.792Z" fill="#F9C6B2"/>
<mask id="mask29" mask-type="alpha" maskUnits="userSpaceOnUse" x="286" y="174" width="19" height="54">
<path fill-rule="evenodd" clip-rule="evenodd" d="M286.665 174.7H304.477V227.087H286.665V174.7Z" fill="white"/>
</mask>
<g mask="url(#mask29)">
<path fill-rule="evenodd" clip-rule="evenodd" d="M286.665 174.7L287.05 227.087H304.477L290.653 224.729L290.847 174.7H286.665Z" fill="#F2B39A"/>
</g>
<path fill-rule="evenodd" clip-rule="evenodd" d="M220.182 21.994H207.747V126.872L77.3386 136.049L78.2029 148.488L207.747 139.372V295.819H220.182V138.497L350.59 129.32L349.726 116.88L220.182 125.997V21.994Z" fill="white"/>
<path fill-rule="evenodd" clip-rule="evenodd" d="M227.97 97.5289C231.388 97.1072 234.818 96.9114 238.246 96.6967C241.679 96.5504 245.11 96.3866 248.554 96.4502C245.136 96.8748 241.706 97.0692 238.277 97.2825C234.845 97.4272 231.414 97.591 227.97 97.5289Z" fill="#F0758F"/>
<path fill-rule="evenodd" clip-rule="evenodd" d="M224.557 87.2238L226.333 97.3212L225.506 124.014L227.635 99.2111L241.856 97.7819L227.281 97.5652L226.671 88.4836L249.572 86.1101L224.557 87.2238Z" fill="#FFFCE9"/>
<path fill-rule="evenodd" clip-rule="evenodd" d="M238.318 104.375L240.027 102.882L241.126 104.981L243.28 104.538L243.371 106.95L245.474 107.659L244.536 109.83L246.109 111.53L244.355 112.964L245.036 115.263L242.87 115.629L242.504 118.005L240.421 117.22L239.091 119.124L237.569 117.37L235.579 118.368L234.967 116.043L232.775 115.906L233.211 113.548L231.317 112.306L232.704 110.45L231.544 108.389L233.562 107.464L233.399 105.055L235.588 105.271L236.461 103.068L238.318 104.375Z" fill="#FFF8E2"/>
<path fill-rule="evenodd" clip-rule="evenodd" d="M248.958 87.2192L248.729 96.4412L243.577 96.7112L243.449 94.269C243.449 94.269 246.714 94.1227 246.761 91.9401C246.808 89.8013 246.194 87.5598 246.194 87.5598L248.958 87.2192ZM254.192 123.344L251.793 122.147L248.952 97.7519L243.512 98.037L244.783 122.294L226.544 124.793L254.192 123.344Z" fill="#F2B39A"/>
<path fill-rule="evenodd" clip-rule="evenodd" d="M251.85 96.2775C255.268 95.8558 258.698 95.66 262.126 95.4453C265.558 95.299 268.99 95.1352 272.432 95.1988C269.016 95.6234 265.586 95.8177 262.156 96.0311C258.725 96.1758 255.294 96.3396 251.85 96.2775Z" fill="#F0758F"/>
<path fill-rule="evenodd" clip-rule="evenodd" d="M248.437 85.9723L250.213 96.0698L249.386 122.763L251.514 97.9596L265.736 96.5304L251.161 96.3138L250.551 87.2321L273.452 84.8586L248.437 85.9723Z" fill="#FFFCE9"/>
<path fill-rule="evenodd" clip-rule="evenodd" d="M262.198 103.124L263.907 101.63L265.006 103.729L267.16 103.286L267.25 105.698L269.354 106.408L268.416 108.579L269.988 110.279L268.235 111.712L268.916 114.012L266.75 114.378L266.382 116.754L264.301 115.969L262.971 117.872L261.448 116.118L259.459 117.117L258.846 114.792L256.654 114.654L257.091 112.296L255.197 111.054L256.583 109.199L255.423 107.138L257.441 106.212L257.279 103.804L259.468 104.019L260.341 101.817L262.198 103.124Z" fill="#FFF8E2"/>
<path fill-rule="evenodd" clip-rule="evenodd" d="M272.838 85.9677L272.609 95.1898L267.457 95.4598L267.329 93.0175C267.329 93.0175 270.594 92.8713 270.641 90.6886C270.688 88.5499 270.074 86.3084 270.074 86.3084L272.838 85.9677ZM278.071 122.092L275.673 120.896L272.832 96.5005L267.392 96.7856L268.663 121.042L250.424 123.541L278.071 122.092Z" fill="#F2B39A"/>
<path fill-rule="evenodd" clip-rule="evenodd" d="M275.97 95.0133C279.388 94.5916 282.818 94.3958 286.246 94.1811C289.678 94.0348 293.108 93.8711 296.552 93.9347C293.134 94.3593 289.705 94.5536 286.276 94.7669C282.845 94.9116 279.413 95.0754 275.97 95.0133Z" fill="#F0758F"/>
<path fill-rule="evenodd" clip-rule="evenodd" d="M272.557 84.7083L274.333 94.8057L273.505 121.499L275.634 96.6956L289.856 95.2664L275.281 95.0497L274.671 85.9681L297.572 83.5946L272.557 84.7083Z" fill="#FFFCE9"/>
<path fill-rule="evenodd" clip-rule="evenodd" d="M286.317 101.86L288.027 100.366L289.126 102.465L291.28 102.022L291.37 104.434L293.474 105.144L292.536 107.315L294.108 109.015L292.355 110.448L293.035 112.747L290.87 113.114L290.502 115.49L288.421 114.705L287.09 116.608L285.568 114.854L283.579 115.853L282.966 113.528L280.774 113.39L281.21 111.032L279.317 109.79L280.703 107.935L279.543 105.874L281.561 104.948L281.399 102.54L283.588 102.755L284.461 100.553L286.317 101.86Z" fill="#FFF8E2"/>
<path fill-rule="evenodd" clip-rule="evenodd" d="M296.958 84.7036L296.728 93.9257L291.576 94.1957L291.448 91.7534C291.448 91.7534 294.713 91.6071 294.761 89.4245C294.807 87.2857 294.193 85.0443 294.193 85.0443L296.958 84.7036ZM302.19 120.828L299.793 119.632L296.951 95.2364L291.512 95.5215L292.783 119.778L274.544 122.277L302.19 120.828Z" fill="#F2B39A"/>
<path fill-rule="evenodd" clip-rule="evenodd" d="M296.72 74.0666L298.956 86.5236L297.855 119.464L300.606 88.8547L318.665 87.0618L300.16 86.8221L299.403 75.619L328.484 72.6444L296.72 74.0666Z" fill="#FFFCE9"/>
<path fill-rule="evenodd" clip-rule="evenodd" d="M314.159 95.2063L316.333 93.3587L317.724 95.9487L320.459 95.3973L320.569 98.3725L323.239 99.2446L322.044 101.925L324.037 104.022L321.808 105.791L322.668 108.63L319.918 109.086L319.447 112.018L316.806 111.054L315.112 113.405L313.184 111.244L310.656 112.478L309.882 109.612L307.099 109.446L307.657 106.533L305.258 105.006L307.02 102.713L305.55 100.172L308.114 99.0253L307.914 96.0548L310.69 96.3173L311.805 93.596L314.159 95.2063Z" fill="#FFF8E2"/>
<mask id="mask30" mask-type="alpha" maskUnits="userSpaceOnUse" x="296" y="73" width="38" height="48">
<path fill-rule="evenodd" clip-rule="evenodd" d="M331.512 73.8159L296.405 75.6558L298.752 120.445L333.86 118.605L331.512 73.8159Z" fill="white"/>
</mask>
<g mask="url(#mask30)">
<path fill-rule="evenodd" clip-rule="evenodd" d="M327.282 74.0376L326.973 85.4171L320.431 85.7599L320.273 82.7466C320.273 82.7466 324.42 82.5598 324.482 79.8674C324.546 77.2287 323.771 74.4626 323.771 74.4626L327.282 74.0376ZM333.86 118.606L330.815 117.133L327.255 87.0344L320.348 87.3963L321.917 117.327L298.752 120.446L333.86 118.606Z" fill="#F2B39A"/>
</g>
<path fill-rule="evenodd" clip-rule="evenodd" d="M301.034 86.7766C305.374 86.25 309.729 86.0014 314.082 85.7312C318.44 85.5434 322.797 85.334 327.169 85.4069C322.829 85.9363 318.474 86.1834 314.12 86.4537C309.762 86.6386 305.405 86.848 301.034 86.7766Z" fill="#F0758F"/>
<path fill-rule="evenodd" clip-rule="evenodd" d="M109.42 38.9044L318.363 10.4471V262.846V279.873H109.42V38.9044Z" fill="url(#paint18_linear)" style="mix-blend-mode:color"/>
<path fill-rule="evenodd" clip-rule="evenodd" d="M65.0528 159.045C65.6217 153.548 78.256 150.164 88.1052 145.671C88.1052 145.671 100.996 144.217 126.779 141.311C141.314 144.6 152.922 149.171 152.922 149.171C164.055 244.093 146.16 282.874 103.784 256.288C77.0957 212.813 58.6667 184.821 65.0528 159.045Z" fill="url(#paint19_linear)"/>
<path fill-rule="evenodd" clip-rule="evenodd" d="M112.438 278.773C101.737 265.336 98.3025 245.077 102.143 217.99C100.756 228.201 105.256 238.274 113.268 242.897C121.281 247.521 130.965 245.632 137.215 238.226C143.464 230.821 144.843 219.602 140.623 210.484C134.682 196.943 137.679 186.33 148.354 180.9C155.151 209.905 159.219 233.445 160.556 251.518L156.478 252.563C155.014 252.939 153.637 253.671 152.437 254.708L151.824 255.238C150.722 255.681 149.665 256.343 148.702 257.232L146.349 259.403L144.496 261.007C144.402 261.087 144.312 261.169 144.223 261.251C142.857 261.678 141.682 262.297 140.526 263.297L138.976 264.638L137.308 265.792L133.7 267.873C132.77 268.411 132.041 269.064 131.22 269.775L130.034 270.321C128.972 270.812 128.013 271.539 127.035 272.216L127.03 272.219L125.438 272.677C124.158 273.046 122.993 273.672 121.971 274.491L121.569 274.801C120.821 275.147 120.027 275.475 119.307 275.889L117.538 276.91C115.669 277.017 113.927 277.686 112.438 278.773Z" fill="url(#paint20_linear)"/>
<path fill-rule="evenodd" clip-rule="evenodd" d="M116.847 114.921C117.754 115.223 118.907 114.691 120.216 113.334C120.918 113.135 121.36 112.725 121.99 112.141C122.798 111.392 123.913 110.357 126.277 109.121C133.737 90.5993 118.239 84.5088 80.278 100.072C79.493 102.551 80.9657 116.141 82.1935 119.874C82.4707 120.743 82.8514 120.289 83.162 119.918C83.2018 119.871 83.2405 119.825 83.2777 119.783C82.9866 119.513 82.7303 119.193 83.1983 119.33L96.6943 120.573C99.3504 123.54 101.99 124.72 104.654 124.11C96.1013 134.054 91.8248 139.026 91.8248 139.026C93.1226 141.403 93.7083 143.637 93.5825 145.728C107.206 149.499 116.701 147.15 122.067 134.278C118.901 127.268 117.018 115.971 116.847 114.921ZM83.7012 120.104C83.6629 119.441 83.4967 119.536 83.2777 119.783C83.4705 119.961 83.6785 120.118 83.7012 120.104Z" fill="url(#paint21_linear)"/>
<mask id="mask31" mask-type="alpha" maskUnits="userSpaceOnUse" x="80" y="91" width="49" height="57">
<path fill-rule="evenodd" clip-rule="evenodd" d="M116.847 114.921C117.754 115.223 118.907 114.691 120.216 113.334C120.918 113.135 121.36 112.725 121.99 112.141C122.798 111.392 123.913 110.357 126.277 109.121C133.737 90.5993 118.239 84.5088 80.278 100.072C79.493 102.551 80.9657 116.141 82.1935 119.874C82.4707 120.743 82.8514 120.289 83.162 119.918C83.2018 119.871 83.2405 119.825 83.2777 119.783C82.9866 119.513 82.7303 119.193 83.1983 119.33L96.6943 120.573C99.3504 123.54 101.99 124.72 104.654 124.11C96.1013 134.054 91.8248 139.026 91.8248 139.026C93.1226 141.403 93.7083 143.637 93.5825 145.728C107.206 149.499 116.701 147.15 122.067 134.278C118.901 127.268 117.018 115.971 116.847 114.921ZM83.7012 120.104C83.6629 119.441 83.4967 119.536 83.2777 119.783C83.4705 119.961 83.6785 120.118 83.7012 120.104Z" fill="white"/>
</mask>
<g mask="url(#mask31)">
<path opacity="0.305339" fill-rule="evenodd" clip-rule="evenodd" d="M123.716 137.918C110.362 148.53 102.481 151.129 100.073 145.717C105.734 145.175 110.536 141.301 112.303 135.853C116.396 129.597 117.486 120.927 118.99 121.548C119.973 126.496 122.687 135.855 123.716 137.918Z" fill="url(#paint22_linear)"/>
</g>
<path fill-rule="evenodd" clip-rule="evenodd" d="M108.836 159.518C115.217 156.441 120.531 151.054 125.37 144.047C125.71 143.586 126.36 142.496 126.443 141.2C126.598 138.657 125.957 135.818 124.522 132.683C123.874 131.222 122.75 131.024 122.019 132.081C118.631 137.255 111.57 141.83 100.835 145.808C97.0306 144.95 93.8062 142.297 92.1867 138.604C91.8333 137.808 91.0863 137.811 90.4813 138.634C89.4178 140.135 88.7305 141.332 88.4188 142.224C87.8812 143.597 87.9066 144.621 88.1096 145.402C89.0528 149.668 91.3179 153.93 94.9044 158.19C96.3165 159.777 97.668 159.872 98.1042 158.476C98.1042 158.476 99.0061 155.786 100.81 150.405C103.487 156.544 104.826 159.615 104.826 159.615C105.485 161.096 106.583 160.578 108.305 159.767C108.476 159.686 108.653 159.603 108.836 159.518Z" fill="white"/>
<path fill-rule="evenodd" clip-rule="evenodd" d="M110.527 98.9567C110.298 95.0003 115.64 89.4474 125.899 85.7764C126.59 86.6634 127.193 87.5972 127.709 88.5703C127.743 88.5555 127.778 88.5406 127.813 88.5256C132.365 96.6318 130.682 107.571 122.944 117.032C120.982 119.208 115.228 117.342 116.843 114.918C128.115 108.87 120.952 98.0369 117.118 103.144C117.163 102.887 117.203 102.63 117.239 102.372C116.559 103.143 115.924 104.242 115.405 105.714C114.622 108.301 110.899 105.506 110.527 98.9567Z" fill="url(#paint23_linear)"/>
<path fill-rule="evenodd" clip-rule="evenodd" d="M115.501 112.646C118.831 123.145 113.998 131.854 106.083 136.363C106.123 136.246 106.162 136.131 106.2 136.018C102.323 138.344 97.6595 139.657 92.824 139.662C85.7815 139.674 82.2661 134.007 81.9296 120.473C81.8908 118.758 82.1313 118.788 83.3282 118.933C83.9007 119.002 84.6921 119.098 85.7765 119.042C86.9091 118.968 87.8922 118.879 88.7575 118.8C92.4994 118.461 94.0386 118.322 95.9487 120.417H97.3233C97.8419 120.95 98.7468 120.895 99.6417 120.841C99.9934 120.82 100.343 120.799 100.668 120.813C100.649 120.721 100.633 120.626 100.622 120.53C104.619 122.481 110.484 120.647 112.779 112.79C113.427 110.491 114.834 110.549 115.501 112.646Z" fill="url(#paint24_linear)"/>
<path opacity="0.267043" fill-rule="evenodd" clip-rule="evenodd" d="M119.864 103.969C118.811 103.638 117.467 105.072 116.861 107.171C116.256 109.27 116.618 111.241 117.671 111.572C118.724 111.903 120.068 110.469 120.674 108.37C121.279 106.27 120.917 104.3 119.864 103.969Z" fill="#E63D17"/>
<path fill-rule="evenodd" clip-rule="evenodd" d="M85.7765 111.092C87.7664 109.586 89.0234 111.051 89.5471 115.486C89.7304 116.281 89.9351 117.172 90.1616 118.158L90.1753 118.217C90.1303 118.19 90.0854 118.163 90.0408 118.136L90.2003 118.827C91.1185 118.631 92.0636 119.018 92.5696 119.799C93.0761 120.58 93.0377 121.588 92.4726 122.329C91.9081 123.07 90.9361 123.386 90.0353 123.122C89.5003 122.461 88.6554 122.664 87.8716 123.396C83.0414 124.805 81.0168 121.331 83.6201 117.522C84.7107 115.95 85.321 114.166 85.4512 112.169C85.5712 112.432 85.7105 112.684 85.8674 112.924C85.8067 111.703 85.7765 111.092 85.7765 111.092Z" fill="url(#paint25_linear)"/>
<path fill-rule="evenodd" clip-rule="evenodd" d="M94.849 104.471C94.0898 104.471 93.4744 105.087 93.4744 105.846C93.4744 106.605 94.0898 107.22 94.849 107.22C95.6082 107.22 96.2236 106.605 96.2236 105.846C96.2236 105.087 95.6082 104.471 94.849 104.471Z" fill="black"/>
<path fill-rule="evenodd" clip-rule="evenodd" d="M81.6526 105.021C80.8939 105.021 80.278 105.637 80.278 106.396C80.278 107.155 80.8939 107.77 81.6526 107.77C82.4113 107.77 83.0272 107.155 83.0272 106.396C83.0272 105.637 82.4113 105.021 81.6526 105.021Z" fill="black"/>
<path fill-rule="evenodd" clip-rule="evenodd" d="M83.6567 120.433C82.2062 120.304 82.3227 120.931 82.7989 122.418C84.5016 127.236 91.3936 127.115 94.9354 121.81C95.4169 121.127 94.9225 120.423 94.0572 120.455C89.2856 120.641 85.8189 120.634 83.6567 120.433Z" fill="url(#paint26_linear)"/>
<path fill-rule="evenodd" clip-rule="evenodd" d="M80.2077 97.3232C78.4053 97.3232 76.7727 98.1629 75.5923 99.5196C74.4108 100.877 73.6798 102.751 73.6798 104.822C73.6798 106.892 74.4108 108.767 75.5923 110.124C76.7727 111.481 78.4053 112.32 80.2077 112.32C82.01 112.32 83.6421 111.481 84.8236 110.124C86.0046 108.767 86.7355 106.892 86.7355 104.822C86.7355 102.751 86.0046 100.877 84.8236 99.5196C83.6421 98.1629 82.01 97.3232 80.2077 97.3232ZM102.736 106.811L115.178 106.253C115.662 106.232 116.038 105.817 116.017 105.327C115.997 104.836 115.586 104.455 115.102 104.477L102.771 105.03C102.598 103.255 101.815 101.661 100.636 100.468C99.2959 99.1114 97.443 98.2718 95.3976 98.2718C93.3516 98.2718 91.4998 99.1114 90.1593 100.468C88.8187 101.825 87.9888 103.699 87.9888 105.77C87.9888 107.841 88.8187 109.715 90.1593 111.073C91.4998 112.43 93.3516 113.269 95.3976 113.269C97.443 113.269 99.2959 112.43 100.636 111.073C101.748 109.947 102.508 108.465 102.736 106.811ZM91.4046 101.729C92.4265 100.694 93.8384 100.054 95.3976 100.054C96.9568 100.054 98.3687 100.694 99.3906 101.729C100.412 102.763 101.044 104.192 101.044 105.77C101.044 107.349 100.412 108.777 99.3906 109.812C98.3692 110.846 96.9568 111.486 95.3976 111.486C93.8384 111.486 92.4265 110.846 91.4046 109.812C90.3827 108.777 89.7507 107.349 89.7507 105.77C89.7507 104.192 90.3832 102.763 91.4046 101.729ZM76.6892 100.78C77.5898 99.7459 78.8336 99.1065 80.2077 99.1065C81.5817 99.1065 82.8255 99.7459 83.7261 100.78C84.6262 101.814 85.1832 103.243 85.1832 104.822C85.1832 106.4 84.6262 107.829 83.7261 108.863C82.8255 109.898 81.5817 110.538 80.2077 110.538C78.8336 110.538 77.5898 109.898 76.6892 108.863C75.7891 107.829 75.2321 106.4 75.2321 104.822C75.2321 103.243 75.7891 101.814 76.6892 100.78Z" fill="black"/>
<path fill-rule="evenodd" clip-rule="evenodd" d="M103.428 69.0662C122.653 72.7515 136.016 84.5085 125.789 91.1821C99.1285 99.3661 90.2948 91.6499 103.428 69.0662Z" fill="url(#paint27_linear)"/>
<path fill-rule="evenodd" clip-rule="evenodd" d="M110.396 87.2618C110.369 79.0606 111.619 67.3168 94.47 68.2904C77.3205 69.2639 80.1496 86.2261 80.1496 86.2261C80.1496 86.2261 78.6265 95.1459 94.5594 95.8346C110.492 96.5232 110.423 95.463 110.396 87.2618Z" fill="url(#paint28_linear)"/>
<path fill-rule="evenodd" clip-rule="evenodd" d="M123.688 89.4786C103.957 93.8294 80.7626 89.5877 80.864 84.6936C80.8714 83.8553 79.922 83.7539 77.9464 84.5674C65.7295 89.6767 61.5063 94.3349 63.6769 97.3101C68.1491 103.356 85.6139 104.8 95.3965 102.541C113.655 98.2924 121.517 93.2355 121.517 93.2355C125.749 90.7641 128.023 88.5398 123.688 89.4786Z" fill="url(#paint29_linear)"/>
<path opacity="0.130604" fill-rule="evenodd" clip-rule="evenodd" d="M127.246 143.204C122.924 149.266 119.245 152.779 114.369 155.057C114.762 154.58 114.879 153.77 114.721 152.627C113.944 146.967 115.632 142.881 119.783 140.368C122.272 139.04 124.312 137.025 125.694 134.527C126.245 133.86 126.707 134.11 127.08 135.278C128.202 138.689 128.628 141.287 127.246 143.204Z" fill="#FF916F"/>
<path fill-rule="evenodd" clip-rule="evenodd" d="M25.1046 144.06H73.8677C74.9739 144.06 75.8792 144.973 75.8792 146.089V191.518C75.8792 192.634 74.9739 193.547 73.8677 193.547H25.1046C23.9984 193.547 23.0937 192.634 23.0937 191.518V146.089C23.0937 144.973 23.9984 144.06 25.1046 144.06Z" fill="url(#paint30_linear)"/>
<path fill-rule="evenodd" clip-rule="evenodd" d="M93.5582 144.06H73.0457C72.4874 144.06 72.0303 144.517 72.0303 145.075V192.533C72.0303 193.091 72.4874 193.547 73.0457 193.547H93.5582C94.117 193.547 94.5741 193.091 94.5741 192.533V145.075C94.5741 144.517 94.117 144.06 93.5582 144.06Z" fill="url(#paint31_linear)"/>
<path fill-rule="evenodd" clip-rule="evenodd" d="M45.9532 144.06H53.0203C53.1937 144.06 53.3354 144.196 53.3354 144.363V155.855C53.3354 156.021 53.1937 156.157 53.0203 156.157H45.9532C45.7797 156.157 45.6375 156.021 45.6375 155.855V144.363C45.6375 144.196 45.7797 144.06 45.9532 144.06Z" fill="url(#paint32_linear)"/>
<path opacity="0.273507" fill-rule="evenodd" clip-rule="evenodd" d="M72.0302 168.804V192.776C72.0302 193.2 72.4838 193.547 73.0383 193.547H92.3746C91.6646 181.901 75.7587 185.662 72.0302 168.804Z" fill="url(#paint33_linear)"/>
<path fill-rule="evenodd" clip-rule="evenodd" d="M77.4896 180.35H88.5648C89.1481 180.35 89.6254 180.828 89.6254 181.411V186.987C89.6254 187.571 89.1481 188.048 88.5648 188.048H77.4896C76.9062 188.048 76.429 187.571 76.429 186.987V181.411C76.429 180.828 76.9062 180.35 77.4896 180.35Z" fill="url(#paint34_linear)"/>
<mask id="mask32" mask-type="alpha" maskUnits="userSpaceOnUse" x="0" y="191" width="94" height="88">
<path fill-rule="evenodd" clip-rule="evenodd" d="M93.4342 191.803H0.384094V278.653H93.4342V191.803Z" fill="white"/>
</mask>
<g mask="url(#mask32)">
<path fill-rule="evenodd" clip-rule="evenodd" d="M3.93014 191.803H89.8886C91.8387 191.803 93.4342 193.404 93.4342 195.363V275.092C93.4342 277.05 91.8387 278.653 89.8886 278.653H3.93014C1.98 278.653 0.383987 277.05 0.383987 275.092V195.363C0.383987 193.404 1.98 191.803 3.93014 191.803Z" fill="url(#paint35_linear)"/>
</g>
<path fill-rule="evenodd" clip-rule="evenodd" d="M124.682 191.897H88.6597C87.679 191.897 86.8762 192.698 86.8762 193.678V276.992C86.8762 277.972 87.679 278.773 88.6597 278.773H124.682C125.663 278.773 126.465 277.972 126.465 276.992V193.678C126.465 192.698 125.663 191.897 124.682 191.897Z" fill="url(#paint36_linear)"/>
<path opacity="0.273507" fill-rule="evenodd" clip-rule="evenodd" d="M86.8762 242.483V277.643C86.8762 278.265 87.5381 278.773 88.3474 278.773H116.568C115.532 261.693 92.3177 267.209 86.8762 242.483Z" fill="url(#paint37_linear)"/>
<path fill-rule="evenodd" clip-rule="evenodd" d="M40.6798 191.347H52.7941C53.092 191.347 53.3354 191.592 53.3354 191.89V234.243C53.3354 234.541 53.092 234.785 52.7941 234.785H40.6798C40.3824 234.785 40.139 234.541 40.139 234.243V191.89C40.139 191.592 40.3824 191.347 40.6798 191.347Z" fill="url(#paint38_linear)"/>
<path fill-rule="evenodd" clip-rule="evenodd" d="M97.3975 251.831H115.395C116.343 251.831 117.118 252.41 117.118 253.119V259.89C117.118 260.599 116.343 261.178 115.395 261.178H97.3975C96.4493 261.178 95.6738 260.599 95.6738 259.89V253.119C95.6738 252.41 96.4493 251.831 97.3975 251.831Z" fill="url(#paint39_linear)"/>
<path fill-rule="evenodd" clip-rule="evenodd" d="M102.806 268.946C107.005 267.701 111.353 267.027 115.732 266.942C115.732 266.942 126.259 258.061 146.396 239.03C149.372 236.245 150.889 231.346 149.898 226.73C149.898 226.73 148.646 219.409 145.974 206.335C148.416 200.293 152.136 196.437 158.387 194.634C164.638 192.832 171.369 194.009 176.64 197.828C179.483 214.597 180.904 222.983 180.904 222.983C182.758 235.662 179.897 245.876 172.183 250.978C140.93 270.147 125.304 279.732 125.304 279.732C122.061 284.781 116.413 287.753 110.425 287.562C104.437 287.372 98.989 284.046 96.0721 278.802C103.487 277.705 108.067 276.072 109.812 273.902C107.766 273.404 105.627 273.444 103.601 274.017C102.259 274.131 101.057 273.187 100.848 271.853C100.639 270.52 101.493 269.25 102.806 268.946Z" fill="url(#paint40_linear)"/>
<mask id="mask33" mask-type="alpha" maskUnits="userSpaceOnUse" x="96" y="193" width="86" height="95">
<path fill-rule="evenodd" clip-rule="evenodd" d="M102.806 268.946C107.005 267.701 111.353 267.027 115.732 266.942C115.732 266.942 126.259 258.061 146.396 239.03C149.372 236.245 150.889 231.346 149.898 226.73C149.898 226.73 148.646 219.409 145.974 206.335C148.416 200.293 152.136 196.437 158.387 194.634C164.638 192.832 171.369 194.009 176.64 197.828C179.483 214.597 180.904 222.983 180.904 222.983C182.758 235.662 179.897 245.876 172.183 250.978C140.93 270.147 125.304 279.732 125.304 279.732C122.061 284.781 116.413 287.753 110.425 287.562C104.437 287.372 98.989 284.046 96.0721 278.802C103.487 277.705 108.067 276.072 109.812 273.902C107.766 273.404 105.627 273.444 103.601 274.017C102.259 274.131 101.057 273.187 100.848 271.853C100.639 270.52 101.493 269.25 102.806 268.946Z" fill="white"/>
</mask>
<g mask="url(#mask33)">
<path opacity="0.519368" fill-rule="evenodd" clip-rule="evenodd" d="M181.111 187.498C166.971 191.592 159.774 195.792 159.523 200.101C161.231 208.057 163.975 214.234 167.757 218.631C175.418 227.585 175.999 238.034 166.223 244.814C159.518 249.152 155.665 254.34 154.666 260.379C154.333 262.053 153.73 263.419 152.858 264.477L177.59 249.109C185.957 243.471 189.024 233.74 186.795 219.919C186.459 219.552 186.235 219.12 186.125 218.665C186.002 218.38 185.927 218.079 185.901 217.775L185.9 217.771C185.801 217.577 185.711 217.394 185.644 217.184C185.512 216.912 185.422 216.62 185.381 216.32C185.279 216.049 185.188 215.754 185.15 215.47C185.128 215.391 185.11 215.312 185.096 215.232C185.036 215.083 184.976 214.902 184.931 214.747C184.858 214.556 184.806 214.361 184.776 214.165C184.753 214.113 184.73 214.071 184.703 214.02C184.547 213.83 184.42 213.626 184.32 213.411C184.177 213.236 184.054 213.043 183.955 212.838L183.953 212.834C183.867 212.661 183.754 212.516 183.666 212.339C183.635 212.278 183.606 212.239 183.563 212.182C183.42 211.992 183.303 211.789 183.214 211.58C183.148 211.467 183.092 211.349 183.034 211.233L182.861 210.947C182.146 209.761 182.391 208.266 183.373 207.362L183.332 207.305C182.94 207.001 182.643 206.607 182.456 206.169C182.31 205.921 182.205 205.655 182.14 205.383C182.111 205.316 182.084 205.25 182.061 205.182C181.858 204.882 181.718 204.551 181.642 204.21C181.478 203.825 181.41 203.495 181.41 203.075C181.113 202.636 180.952 202.135 180.925 201.629C180.78 201.225 180.757 200.898 180.757 200.48C180.721 200.372 180.688 200.266 180.663 200.154C180.518 199.814 180.431 199.486 180.431 199.04V196.585C180.112 196.108 179.941 195.557 179.941 194.984V194.315L179.763 193.784C179.601 193.299 179.452 192.918 179.452 192.388V190.279C179.452 189.118 180.144 188.118 181.14 187.664L181.111 187.498Z" fill="url(#paint41_linear)"/>
</g>
<path fill-rule="evenodd" clip-rule="evenodd" d="M162.827 201.113C145.538 210.561 142.384 208.676 139.419 198.858C130.153 168.373 131.699 151.802 146.075 148.472C161.948 144.796 171.59 159.166 179.277 190.323C180.683 195.841 179.277 198.001 174.816 197.766C171.198 197.67 167.201 198.785 162.827 201.113Z" fill="url(#paint42_linear)"/>
<mask id="mask34" mask-type="alpha" maskUnits="userSpaceOnUse" x="53" y="58" width="12" height="21">
<path fill-rule="evenodd" clip-rule="evenodd" d="M64.6269 58.505H53.85V78.1704H64.6269V58.505Z" fill="white"/>
</mask>
<g mask="url(#mask34)">
<path fill-rule="evenodd" clip-rule="evenodd" d="M57.7151 65.2817L54.3329 64.6441C54.0731 64.5905 53.85 64.378 53.85 64.1654V63.1557C53.85 61.5078 55.5222 60.1528 57.7151 59.8605V58.877C57.7151 58.6644 57.9381 58.5049 58.2352 58.5049H60.2422C60.5393 58.5049 60.7619 58.6644 60.7619 58.877V59.8605C62.9547 60.1528 64.6269 61.5078 64.6269 63.1557V65.3877C64.6269 66.1849 64.3303 66.6368 63.5866 67.1149L58.7926 69.7462C58.3465 70.0386 58.2352 70.3839 58.1979 70.8357V73.3601C58.1979 73.7059 58.6073 73.9982 59.0897 73.9982H59.3873C59.8706 73.9982 60.279 73.7059 60.279 73.3601V71.1281C60.279 70.915 60.5026 70.809 60.7619 70.862L64.144 71.5001C64.4044 71.5531 64.6269 71.7657 64.6269 71.9782V73.4928C64.6269 75.1407 62.9547 76.5225 60.7619 76.7886V77.7978C60.7619 78.0109 60.5393 78.1704 60.2422 78.1704H58.2352C57.9381 78.1704 57.7151 78.0109 57.7151 77.7978V76.7886C55.5222 76.5225 53.85 75.1407 53.85 73.4928V69.9052C53.924 69.2676 54.0731 68.7627 54.853 68.2847L59.7216 65.68C60.131 65.4145 60.2422 65.1222 60.279 64.7501V63.2885C60.279 62.9426 59.8706 62.6503 59.3873 62.6503H59.0897C58.6073 62.6503 58.1979 62.9426 58.1979 63.2885V65.0156C58.1979 65.2282 57.9754 65.3347 57.7151 65.2817Z" fill="white"/>
</g>
<path fill-rule="evenodd" clip-rule="evenodd" d="M110.015 132.663C100.622 142.906 85.6612 144.485 80.8277 129.984C80.5528 129.16 78.6283 124.211 80.2779 119.812C86.2181 114.934 92.9599 115.963 103.646 118.163C103.646 118.163 113.886 104.599 114.369 104.141C114.851 103.684 116.018 104.966 116.018 104.966L105.495 118.696C106.227 119.217 106.524 119.967 106.386 120.946C106.292 125.417 107.213 128.212 109.15 129.331C110.742 130.327 110.892 131.096 110.015 132.663Z" fill="url(#paint43_linear)"/>
<mask id="mask35" mask-type="alpha" maskUnits="userSpaceOnUse" x="79" y="104" width="38" height="37">
<path fill-rule="evenodd" clip-rule="evenodd" d="M110.015 132.663C100.622 142.906 85.6612 144.485 80.8277 129.984C80.5528 129.16 78.6283 124.211 80.2779 119.812C86.2181 114.934 92.9599 115.963 103.646 118.163C103.646 118.163 113.886 104.599 114.369 104.141C114.851 103.684 116.018 104.966 116.018 104.966L105.495 118.696C106.227 119.217 106.524 119.967 106.386 120.946C106.292 125.417 107.213 128.212 109.15 129.331C110.742 130.327 110.892 131.096 110.015 132.663Z" fill="white"/>
</mask>
<g mask="url(#mask35)">
<path opacity="0.173572" fill-rule="evenodd" clip-rule="evenodd" d="M107.123 118.944C107.255 117.874 105.797 117.064 102.746 116.513C103.767 119.89 102.321 123.381 99.1527 125.184C92.3608 130.46 91.1235 136.184 95.442 142.356C102.401 141.706 108.499 138.187 111.988 132.805C112.32 132.364 112.196 131.944 111.614 131.544C107.918 128.707 106.421 124.507 107.123 118.944Z" fill="url(#paint44_linear)"/>
</g>
<defs>
<linearGradient id="paint0_linear" x1="43.8219" y1="149.517" x2="253.298" y2="309.438" gradientUnits="userSpaceOnUse">
<stop stop-color="#FFE1A1"/>
<stop offset="1" stop-color="#FEDC93"/>
</linearGradient>
<linearGradient id="paint1_linear" x1="100.816" y1="92.0474" x2="79.3049" y2="129.352" gradientUnits="userSpaceOnUse">
<stop stop-color="#C47B8A"/>
<stop offset="1" stop-color="#FFCFBC"/>
</linearGradient>
<linearGradient id="paint2_linear" x1="88.1066" y1="116.669" x2="123.075" y2="138.888" gradientUnits="userSpaceOnUse">
<stop stop-color="#FFF9E8"/>
<stop offset="1" stop-color="#F2DBCA"/>
</linearGradient>
<linearGradient id="paint3_linear" x1="129.951" y1="90.9495" x2="108.445" y2="128.258" gradientUnits="userSpaceOnUse">
<stop stop-color="#C47B8A"/>
<stop offset="1" stop-color="#FFCFBC"/>
</linearGradient>
<linearGradient id="paint4_linear" x1="116.142" y1="115.57" x2="151.111" y2="137.788" gradientUnits="userSpaceOnUse">
<stop stop-color="#FFF9E8"/>
<stop offset="1" stop-color="#F2DBCA"/>
</linearGradient>
<linearGradient id="paint5_linear" x1="157.168" y1="105.464" x2="146.604" y2="131.906" gradientUnits="userSpaceOnUse">
<stop stop-color="#C47B8A"/>
<stop offset="1" stop-color="#FFCFBC"/>
</linearGradient>
<linearGradient id="paint6_linear" x1="145.711" y1="119.499" x2="169.226" y2="140.358" gradientUnits="userSpaceOnUse">
<stop stop-color="#FFF9E8"/>
<stop offset="1" stop-color="#F2DBCA"/>
</linearGradient>
<linearGradient id="paint7_linear" x1="178.552" y1="104.366" x2="168.068" y2="130.889" gradientUnits="userSpaceOnUse">
<stop stop-color="#C47B8A"/>
<stop offset="1" stop-color="#FFCFBC"/>
</linearGradient>
<linearGradient id="paint8_linear" x1="167.552" y1="118.925" x2="190.998" y2="139.12" gradientUnits="userSpaceOnUse">
<stop stop-color="#FFF9E8"/>
<stop offset="1" stop-color="#F2DBCA"/>
</linearGradient>
<linearGradient id="paint9_linear" x1="169.664" y1="76.2524" x2="159.178" y2="102.775" gradientUnits="userSpaceOnUse">
<stop stop-color="#C47B8A"/>
<stop offset="1" stop-color="#FFCFBC"/>
</linearGradient>
<linearGradient id="paint10_linear" x1="158.37" y1="90.775" x2="182.16" y2="111.607" gradientUnits="userSpaceOnUse">
<stop stop-color="#FFF9E8"/>
<stop offset="1" stop-color="#F2DBCA"/>
</linearGradient>
<linearGradient id="paint11_linear" x1="225.493" y1="221.194" x2="213.378" y2="279.279" gradientUnits="userSpaceOnUse">
<stop stop-color="#FFF7E2"/>
<stop offset="1" stop-color="#F9DBC6"/>
</linearGradient>
<linearGradient id="paint12_linear" x1="248.173" y1="221.194" x2="236.114" y2="279.303" gradientUnits="userSpaceOnUse">
<stop stop-color="#FFF7E2"/>
<stop offset="1" stop-color="#F9DBC6"/>
</linearGradient>
<linearGradient id="paint13_linear" x1="270.416" y1="221.194" x2="258.359" y2="279.304" gradientUnits="userSpaceOnUse">
<stop stop-color="#FFF7E2"/>
<stop offset="1" stop-color="#F9DBC6"/>
</linearGradient>
<linearGradient id="paint14_linear" x1="295.874" y1="221.194" x2="283.759" y2="279.279" gradientUnits="userSpaceOnUse">
<stop stop-color="#FFF7E2"/>
<stop offset="1" stop-color="#F9DBC6"/>
</linearGradient>
<linearGradient id="paint15_linear" x1="238.14" y1="168.409" x2="226.024" y2="226.493" gradientUnits="userSpaceOnUse">
<stop stop-color="#FFF7E2"/>
<stop offset="1" stop-color="#F9DBC6"/>
</linearGradient>
<linearGradient id="paint16_linear" x1="260.819" y1="168.409" x2="248.76" y2="226.518" gradientUnits="userSpaceOnUse">
<stop stop-color="#FFF7E2"/>
<stop offset="1" stop-color="#F9DBC6"/>
</linearGradient>
<linearGradient id="paint17_linear" x1="283.063" y1="168.409" x2="271.006" y2="226.519" gradientUnits="userSpaceOnUse">
<stop stop-color="#FFF7E2"/>
<stop offset="1" stop-color="#F9DBC6"/>
</linearGradient>
<linearGradient id="paint18_linear" x1="43.7486" y1="149.517" x2="253.225" y2="309.438" gradientUnits="userSpaceOnUse">
<stop stop-color="#FFE1A1"/>
<stop offset="1" stop-color="#FEDC93"/>
</linearGradient>
<linearGradient id="paint19_linear" x1="179.198" y1="170.248" x2="112.579" y2="269.082" gradientUnits="userSpaceOnUse">
<stop stop-color="#FFA981"/>
<stop offset="0.428" stop-color="#FF8666"/>
<stop offset="1" stop-color="#FF5C45"/>
</linearGradient>
<linearGradient id="paint20_linear" x1="75.2832" y1="93.4237" x2="208.127" y2="121.642" gradientUnits="userSpaceOnUse">
<stop stop-color="#FF5C45"/>
<stop offset="0.572" stop-color="#FF8666"/>
<stop offset="1" stop-color="#FFA981"/>
</linearGradient>
<linearGradient id="paint21_linear" x1="142.714" y1="115.562" x2="98.1359" y2="155.916" gradientUnits="userSpaceOnUse">
<stop stop-color="#FFC198"/>
<stop offset="1" stop-color="#FFB380"/>
</linearGradient>
<linearGradient id="paint22_linear" x1="125.252" y1="144.717" x2="104.635" y2="146.609" gradientUnits="userSpaceOnUse">
<stop stop-color="#DC934B"/>
<stop offset="1" stop-color="#DB843C"/>
</linearGradient>
<linearGradient id="paint23_linear" x1="145.363" y1="108.949" x2="104.46" y2="137.37" gradientUnits="userSpaceOnUse">
<stop stop-color="#005F67"/>
<stop offset="1" stop-color="#003136"/>
</linearGradient>
<linearGradient id="paint24_linear" x1="142.904" y1="131.635" x2="106.017" y2="182.178" gradientUnits="userSpaceOnUse">
<stop stop-color="#005F67"/>
<stop offset="1" stop-color="#003136"/>
</linearGradient>
<linearGradient id="paint25_linear" x1="95.9001" y1="117.759" x2="85.4088" y2="125.376" gradientUnits="userSpaceOnUse">
<stop offset="0.0223554" stop-color="#DE9D71"/>
<stop offset="0.966084" stop-color="#E08B52"/>
</linearGradient>
<linearGradient id="paint26_linear" x1="98.9718" y1="122.802" x2="95.8886" y2="130.307" gradientUnits="userSpaceOnUse">
<stop stop-color="#FFC198"/>
<stop offset="1" stop-color="#FFB380"/>
</linearGradient>
<linearGradient id="paint27_linear" x1="128.634" y1="111.204" x2="74.1825" y2="126.788" gradientUnits="userSpaceOnUse">
<stop stop-color="#FFA981"/>
<stop offset="0.428" stop-color="#FF8666"/>
<stop offset="1" stop-color="#FF5C45"/>
</linearGradient>
<linearGradient id="paint28_linear" x1="126.378" y1="94.1294" x2="87.0184" y2="109.379" gradientUnits="userSpaceOnUse">
<stop stop-color="#FFA981"/>
<stop offset="0.428" stop-color="#FF8666"/>
<stop offset="1" stop-color="#FF5C45"/>
</linearGradient>
<linearGradient id="paint29_linear" x1="128.466" y1="119.522" x2="67.4602" y2="173.318" gradientUnits="userSpaceOnUse">
<stop stop-color="#FFA981"/>
<stop offset="0.428" stop-color="#FF8666"/>
<stop offset="1" stop-color="#FF5C45"/>
</linearGradient>
<linearGradient id="paint30_linear" x1="65.6443" y1="136.447" x2="80.0703" y2="186.457" gradientUnits="userSpaceOnUse">
<stop stop-color="#F7D0AD"/>
<stop offset="1" stop-color="#D38761"/>
</linearGradient>
<linearGradient id="paint31_linear" x1="99.2244" y1="171.121" x2="69.5735" y2="184.104" gradientUnits="userSpaceOnUse">
<stop stop-color="#F7D0AD"/>
<stop offset="1" stop-color="#E89F7B"/>
</linearGradient>
<linearGradient id="paint32_linear" x1="53.3125" y1="144.06" x2="53.3125" y2="156.085" gradientUnits="userSpaceOnUse">
<stop stop-color="white"/>
<stop offset="1" stop-color="#FFFEFC"/>
</linearGradient>
<linearGradient id="paint33_linear" x1="97.7189" y1="182.534" x2="78.1909" y2="197.26" gradientUnits="userSpaceOnUse">
<stop stop-color="#FF9958"/>
<stop offset="1" stop-color="#DC8D48"/>
</linearGradient>
<linearGradient id="paint34_linear" x1="89.6254" y1="180.35" x2="89.6254" y2="188.048" gradientUnits="userSpaceOnUse">
<stop stop-color="white"/>
<stop offset="0.994061" stop-color="#FFFEFC"/>
</linearGradient>
<linearGradient id="paint35_linear" x1="75.3922" y1="178.441" x2="100.616" y2="266.27" gradientUnits="userSpaceOnUse">
<stop stop-color="#F7D0AD"/>
<stop offset="1" stop-color="#D38761"/>
</linearGradient>
<linearGradient id="paint36_linear" x1="134.632" y1="239.403" x2="82.567" y2="262.208" gradientUnits="userSpaceOnUse">
<stop stop-color="#F7D0AD"/>
<stop offset="1" stop-color="#E89F7B"/>
</linearGradient>
<linearGradient id="paint37_linear" x1="124.368" y1="262.621" x2="95.7658" y2="284.084" gradientUnits="userSpaceOnUse">
<stop stop-color="#FF9958"/>
<stop offset="1" stop-color="#DC8D48"/>
</linearGradient>
<linearGradient id="paint38_linear" x1="51.7285" y1="201.926" x2="51.7285" y2="234.785" gradientUnits="userSpaceOnUse">
<stop stop-color="#F0F5FF"/>
<stop offset="1" stop-color="#E7F7FF"/>
</linearGradient>
<linearGradient id="paint39_linear" x1="117.118" y1="251.831" x2="117.118" y2="261.178" gradientUnits="userSpaceOnUse">
<stop stop-color="white"/>
<stop offset="0.994061" stop-color="#FFFEFC"/>
</linearGradient>
<linearGradient id="paint40_linear" x1="207.428" y1="234.484" x2="132.687" y2="306.511" gradientUnits="userSpaceOnUse">
<stop stop-color="#FFC198"/>
<stop offset="1" stop-color="#FFB380"/>
</linearGradient>
<linearGradient id="paint41_linear" x1="197.365" y1="229.728" x2="151.971" y2="248.463" gradientUnits="userSpaceOnUse">
<stop stop-color="#FFC198"/>
<stop offset="1" stop-color="#FFA162"/>
</linearGradient>
<linearGradient id="paint42_linear" x1="183.622" y1="148.697" x2="157.781" y2="214.227" gradientUnits="userSpaceOnUse">
<stop stop-color="#FFA981"/>
<stop offset="0.428" stop-color="#FF8666"/>
<stop offset="1" stop-color="#FF5C45"/>
</linearGradient>
<linearGradient id="paint43_linear" x1="133.82" y1="121.65" x2="98.5766" y2="153.853" gradientUnits="userSpaceOnUse">
<stop stop-color="#6BDEC5"/>
<stop offset="1" stop-color="#39B993"/>
</linearGradient>
<linearGradient id="paint44_linear" x1="112.029" y1="116.513" x2="112.029" y2="141.979" gradientUnits="userSpaceOnUse">
<stop stop-color="white"/>
<stop offset="1" stop-color="white"/>
</linearGradient>
</defs>
</svg>
