<svg width="18" height="18" viewBox="0 0 18 18" fill="none" xmlns="http://www.w3.org/2000/svg">
<g opacity="0.541504">
<path fill-rule="evenodd" clip-rule="evenodd" d="M16.1874 8.54338H17.5363C17.7846 8.54338 17.986 8.7446 17.986 8.99292C17.986 9.24124 17.7846 9.44262 17.5363 9.44262H16.1874C16.1833 9.44262 16.1795 9.44153 16.1758 9.44042C16.1723 9.43938 16.1687 9.43834 16.1648 9.43818C15.9371 13.0547 13.0547 15.9371 9.43818 16.1648C9.43833 16.1686 9.43936 16.1721 9.44038 16.1755C9.4415 16.1793 9.44262 16.1831 9.44262 16.1874V17.5363C9.44262 17.7846 9.24124 17.986 8.99292 17.986C8.7446 17.986 8.54338 17.7846 8.54338 17.5363V16.1874C8.54338 16.1833 8.54448 16.1795 8.54558 16.1758C8.54662 16.1723 8.54767 16.1687 8.54783 16.1648C4.93126 15.9371 2.04878 13.0547 1.82104 9.43818C1.81735 9.43833 1.81387 9.43936 1.81039 9.44038C1.80659 9.4415 1.80278 9.44262 1.79865 9.44262H0.449704C0.201387 9.44262 0 9.24124 0 8.99292C0 8.7446 0.201387 8.54338 0.449704 8.54338H1.79865C1.80278 8.54338 1.80659 8.5445 1.81039 8.54562C1.81387 8.54665 1.81735 8.54767 1.82104 8.54783C2.04878 4.93126 4.93126 2.04878 8.54783 1.82104C8.54767 1.81735 8.54665 1.81387 8.54562 1.81039C8.5445 1.80659 8.54338 1.80278 8.54338 1.79865V0.449704C8.54338 0.201387 8.7446 0 8.99292 0C9.24124 0 9.44262 0.201387 9.44262 0.449704V1.79865C9.44262 1.80275 9.44151 1.8065 9.4404 1.81026C9.43937 1.81374 9.43834 1.81724 9.43818 1.82104C13.0547 2.04878 15.9371 4.93126 16.1648 8.54783C16.1686 8.54767 16.1721 8.54665 16.1755 8.54562C16.1793 8.5445 16.1831 8.54338 16.1874 8.54338ZM2.69789 8.99292C2.69789 12.4697 5.51632 15.2881 8.99292 15.2881C12.468 15.284 15.284 12.468 15.2881 8.99292C15.2881 5.51632 12.4697 2.69789 8.99292 2.69789C5.51632 2.69789 2.69789 5.51632 2.69789 8.99292Z" fill="black"/>
<path fill-rule="evenodd" clip-rule="evenodd" d="M5.39575 8.99289C5.39575 7.00619 7.00619 5.39575 8.99289 5.39575C10.9788 5.39789 12.588 7.00718 12.5902 8.99289C12.5902 10.9796 10.9796 12.5902 8.99289 12.5902C7.00619 12.5902 5.39575 10.9796 5.39575 8.99289ZM6.29499 8.99289C6.29499 10.483 7.50299 11.6908 8.99289 11.6908C10.4823 11.6891 11.6891 10.4823 11.6908 8.99289C11.6908 7.50299 10.483 6.29499 8.99289 6.29499C7.50299 6.29499 6.29499 7.50299 6.29499 8.99289Z" fill="black"/>
</g>
</svg>
