<svg width="68" height="78" viewBox="0 0 68 78" fill="none" xmlns="http://www.w3.org/2000/svg">
<path d="M25.5935 12.3999L20.2917 7.172H14.9999H9.70819L4.40637 12.3999H25.5935Z" fill="#DFEBFA"/>
<path fill-rule="evenodd" clip-rule="evenodd" d="M0.866645 44.8681L2.11043 43.3314C2.61195 42.7119 2.88543 41.939 2.88558 41.1422V36.8602C2.88558 35.96 2.53665 35.0949 1.91225 34.4464L1.06513 33.5667C0.440585 32.9184 0.0917969 32.0531 0.0917969 31.1529V18.1099C0.0917969 17.1785 0.465282 16.286 1.12846 15.632L4.72301 12.0878H25.2769L28.8715 15.632C29.5348 16.286 29.9082 17.1785 29.9082 18.1099V31.1529C29.9082 32.0531 29.5592 32.9182 28.9348 33.5667L28.0877 34.4464C27.4632 35.0947 27.1144 35.96 27.1144 36.8602V41.1422C27.1144 41.9391 27.3879 42.7119 27.8892 43.3314L29.133 44.8681C29.6342 45.4876 29.9079 46.2603 29.9079 47.0573V49.3785H0.0917969V47.0573C0.0917969 46.2603 0.365282 45.4876 0.866645 44.8681ZM0.0917969 71.4244V71.1753H29.9079V71.4244C29.9079 74.8217 27.1539 77.5756 23.7566 77.5756H14.9998H6.24301C2.84589 77.5756 0.0917969 74.8217 0.0917969 71.4244Z" fill="url(#paint0_linear)"/>
<mask id="mask0" mask-type="alpha" maskUnits="userSpaceOnUse" x="0" y="12" width="30" height="66">
<path fill-rule="evenodd" clip-rule="evenodd" d="M0.866645 44.8681L2.11043 43.3314C2.61195 42.7119 2.88543 41.939 2.88558 41.1422V36.8602C2.88558 35.96 2.53665 35.0949 1.91225 34.4464L1.06513 33.5667C0.440585 32.9184 0.0917969 32.0531 0.0917969 31.1529V18.1099C0.0917969 17.1785 0.465282 16.286 1.12846 15.632L4.72301 12.0878H25.2769L28.8715 15.632C29.5348 16.286 29.9082 17.1785 29.9082 18.1099V31.1529C29.9082 32.0531 29.5592 32.9182 28.9348 33.5667L28.0877 34.4464C27.4632 35.0947 27.1144 35.96 27.1144 36.8602V41.1422C27.1144 41.9391 27.3879 42.7119 27.8892 43.3314L29.133 44.8681C29.6342 45.4876 29.9079 46.2603 29.9079 47.0573V49.3785H0.0917969V47.0573C0.0917969 46.2603 0.365282 45.4876 0.866645 44.8681ZM0.0917969 71.4244V71.1753H29.9079V71.4244C29.9079 74.8217 27.1539 77.5756 23.7566 77.5756H14.9998H6.24301C2.84589 77.5756 0.0917969 74.8217 0.0917969 71.4244Z" fill="white"/>
</mask>
<g mask="url(#mask0)">
<path opacity="0.626883" d="M29.0345 16.4969V12H4.5C4.5 12 14.0547 22.2821 14 22.5L39.5 51L40 30.6601V27.5073C40 22.961 36.3295 19.2755 31.8017 19.2755C30.2734 19.2755 29.0345 18.0315 29.0345 16.4969Z" fill="url(#paint1_linear)"/>
</g>
<path fill-rule="evenodd" clip-rule="evenodd" d="M8.39323 40.61H27.5381C28.1846 40.61 28.7087 40.0861 28.7087 39.4394C28.7087 38.7929 28.1846 38.2688 27.5381 38.2688H8.39323H2.46187C1.81535 38.2688 1.29126 38.7927 1.29126 39.4394C1.29126 40.0457 1.75189 40.544 2.34218 40.604C2.38153 40.608 2.42146 40.61 2.46187 40.61H8.39323Z" fill="url(#paint2_linear)"/>
<path d="M0.0917969 48.9951V71.4244C0.0917969 71.4694 0.0942211 71.5139 0.0951302 71.5588H29.9045C29.9056 71.5139 29.908 71.4694 29.908 71.4244V48.9951L0.0917969 48.9951Z" fill="url(#paint3_linear)"/>
<path opacity="0.539388" d="M29.908 48.9951H25.036C24.3239 53.0298 20.4792 65.4834 0.0917969 66.8725V71.4244C0.0917969 71.4694 0.0942211 71.5139 0.0951302 71.5588H29.9045C29.9056 71.5138 29.908 71.4694 29.908 71.4244V48.9951Z" fill="#74D579"/>
<path fill-rule="evenodd" clip-rule="evenodd" d="M14.9998 34.8122C19.5098 34.8122 23.1659 31.1562 23.1659 26.6462C23.1659 22.1362 19.5099 18.4801 15 18.4801C14.9999 18.4801 14.9998 18.4801 14.9998 18.4801C10.4898 18.4801 6.83374 22.1362 6.83374 26.6462C6.83374 31.1562 10.4898 34.8122 14.9998 34.8122Z" fill="url(#paint4_linear)"/>
<path fill-rule="evenodd" clip-rule="evenodd" d="M16.2616 24.2509L17.4771 26.2483C18.6531 28.1807 17.2622 30.6556 15 30.6557C14.9999 30.6557 14.9999 30.6557 14.9998 30.6557C12.7375 30.6557 11.3465 28.1807 12.5225 26.2483L14.7606 22.5706C14.8152 22.481 14.9076 22.4362 14.9999 22.4362C15.0691 22.4362 15.1384 22.4614 15.1917 22.5118C15.2094 22.5286 15.2254 22.5482 15.2391 22.5706L16.2616 24.2509L16.2616 24.2509Z" fill="url(#paint5_linear)"/>
<path fill-rule="evenodd" clip-rule="evenodd" d="M15.2494 0H20.2916C21.1519 0 21.8495 0.697576 21.8495 1.55803V5.77015C21.8495 6.63061 21.1521 7.32818 20.2916 7.32818H15.2494H9.7083C8.84784 7.32818 8.15027 6.63061 8.15027 5.77015V1.55803C8.15027 0.697576 8.84784 0 9.7083 0H15.2494Z" fill="url(#paint6_linear)"/>
<path d="M54.9523 56.7467C54.5857 54.0508 53.3358 51.6341 51.2108 49.9716C49.3632 48.5263 47.1125 47.8532 44.7654 47.8843C44.1735 47.8921 43.6898 47.4165 43.6826 46.8286C43.6802 46.6292 43.6786 46.43 43.6786 46.2564C43.6786 44.8549 43.5464 43.7188 43.3834 43.7188C43.2204 43.7188 43.0883 44.8549 43.0883 46.2564C43.0883 47.2408 43.1535 48.0937 43.2488 48.5145C43.2489 48.5154 43.2489 48.5162 43.249 48.5171C43.6156 51.2131 44.8655 53.6297 46.9905 55.2922C49.1156 56.9547 51.774 57.5954 54.4989 57.318C54.7843 57.289 54.9907 57.0289 54.9523 56.7467Z" fill="url(#paint7_linear)"/>
<path d="M54.9552 56.7757C54.9633 56.8978 54.9172 57.0224 54.8386 57.1211L44.3339 48.9036C43.9036 48.5669 43.6191 48.0794 43.5389 47.5412C43.5327 47.4991 43.5289 47.4743 43.5289 47.4749V47.4713C43.4331 47.0013 43.3682 46.0477 43.3682 44.9481C43.3682 44.5086 43.3781 44.0933 43.3971 43.7219C43.5542 43.7829 43.6789 44.8943 43.6789 46.2568C43.6789 46.43 43.6806 46.6291 43.6825 46.8292C43.6898 47.4086 44.1603 47.8786 44.7401 47.8849H44.7655C45.535 47.875 46.2936 47.9396 47.0324 48.084C47.1688 48.11 47.3052 48.1397 47.4407 48.171C47.7134 48.2356 47.9826 48.311 48.2481 48.398C48.3493 48.4311 48.4504 48.4653 48.5506 48.5029C48.7123 48.5603 48.8731 48.6231 49.0311 48.6904C49.1359 48.7343 49.2397 48.78 49.3428 48.8294C49.9994 49.1334 50.6253 49.5138 51.2106 49.9722C53.3358 51.6343 54.5858 54.0507 54.9525 56.7471C54.9533 56.756 54.9552 56.7658 54.9552 56.7757Z" fill="url(#paint8_linear)"/>
<path d="M47.2649 63.1549C49.3168 64.7602 51.8837 65.3789 54.515 65.111C54.772 65.0848 54.987 64.8137 54.9525 64.5593C54.5985 61.9561 53.3917 59.6226 51.3398 58.0174C49.2879 56.4122 46.721 55.7935 44.0898 56.0613C43.8327 56.0875 43.6177 56.3587 43.6522 56.6129C44.0061 59.2162 45.213 61.5497 47.2649 63.1549Z" fill="url(#paint9_linear)"/>
<path d="M54.9525 64.5594C54.5985 61.9563 53.3917 59.6227 51.3398 58.0176C49.2879 56.4123 46.721 55.7936 44.0897 56.0615C43.9613 56.0745 43.8432 56.1489 43.7616 56.2517L54.843 64.9208C54.9246 64.8179 54.9697 64.6865 54.9525 64.5594Z" fill="url(#paint10_linear)"/>
<path d="M47.6807 70.6986C49.6217 72.2171 52.0498 72.8023 54.5388 72.549C54.7819 72.5243 54.9854 72.2677 54.9527 72.0272C54.6179 69.5647 53.4763 67.3574 51.5353 65.839C49.5943 64.3205 47.1662 63.7353 44.6772 63.9886C44.4341 64.0133 44.2307 64.2699 44.2634 64.5104C44.5981 66.9729 45.7397 69.1802 47.6807 70.6986Z" fill="url(#paint11_linear)"/>
<path d="M54.9528 72.0272C54.618 69.5647 53.4764 67.3574 51.5354 65.839C49.5944 64.3205 47.1663 63.7353 44.6773 63.9886C44.5558 64.001 44.4442 64.0714 44.3669 64.1687L54.8493 72.3691C54.9264 72.2717 54.9691 72.1475 54.9528 72.0272Z" fill="url(#paint12_linear)"/>
<path d="M55.8576 56.7467C56.2242 54.0508 57.4741 51.6341 59.5991 49.9716C61.4466 48.5263 63.6974 47.8532 66.0444 47.8843C66.6364 47.8921 67.1201 47.4165 67.1273 46.8286C67.1297 46.6292 67.1313 46.43 67.1313 46.2564C67.1313 44.8549 67.2634 43.7188 67.4265 43.7188C67.5895 43.7188 67.7216 44.8549 67.7216 46.2564C67.7216 47.2408 67.6563 48.0937 67.5611 48.5145C67.561 48.5154 67.561 48.5162 67.5609 48.5171C67.1943 51.2131 65.9444 53.6297 63.8194 55.2922C61.6943 56.9547 59.0359 57.5954 56.3109 57.318C56.0256 57.289 55.8192 57.0289 55.8576 56.7467Z" fill="url(#paint13_linear)"/>
<path d="M55.8549 56.7757C55.8468 56.8978 55.8928 57.0224 55.9715 57.1211L66.4762 48.9036C66.9065 48.5669 67.191 48.0794 67.2712 47.5412C67.2774 47.4991 67.2812 47.4743 67.2812 47.4749V47.4713C67.377 47.0013 67.4419 46.0477 67.4419 44.9481C67.4419 44.5086 67.432 44.0933 67.413 43.7219C67.2559 43.7829 67.1312 44.8943 67.1312 46.2568C67.1312 46.43 67.1295 46.6291 67.1276 46.8292C67.1203 47.4086 66.6498 47.8786 66.07 47.8849H66.0446C65.2751 47.875 64.5165 47.9396 63.7777 48.084C63.6413 48.11 63.5049 48.1397 63.3694 48.171C63.0967 48.2356 62.8275 48.311 62.5619 48.398C62.4607 48.4311 62.3596 48.4653 62.2594 48.5029C62.0977 48.5603 61.9369 48.6231 61.7789 48.6904C61.6741 48.7343 61.5703 48.78 61.4672 48.8294C60.8106 49.1334 60.1847 49.5138 59.5994 49.9722C57.4742 51.6343 56.2242 54.0507 55.8575 56.7471C55.8567 56.756 55.8549 56.7658 55.8549 56.7757Z" fill="url(#paint14_linear)"/>
<path d="M63.5451 63.1549C61.4932 64.7602 58.9263 65.3789 56.2951 65.111C56.038 65.0848 55.823 64.8137 55.8575 64.5593C56.2115 61.9561 57.4183 59.6226 59.4702 58.0174C61.5222 56.4122 64.089 55.7935 66.7202 56.0613C66.9772 56.0875 67.1923 56.3587 67.1577 56.6129C66.8038 59.2162 65.597 61.5497 63.5451 63.1549Z" fill="url(#paint15_linear)"/>
<path d="M55.8576 64.5594C56.2116 61.9563 57.4183 59.6227 59.4702 58.0176C61.5222 56.4123 64.0891 55.7936 66.7202 56.0615C66.8487 56.0745 66.9668 56.1489 67.0483 56.2517L55.9669 64.9208C55.8854 64.8179 55.8402 64.6865 55.8576 64.5594Z" fill="url(#paint16_linear)"/>
<path d="M63.1293 70.6986C61.1883 72.2171 58.7602 72.8023 56.2712 72.549C56.0281 72.5243 55.8247 72.2677 55.8573 72.0272C56.1921 69.5647 57.3337 67.3574 59.2747 65.839C61.2157 64.3205 63.6438 63.7353 66.1328 63.9886C66.3759 64.0133 66.5794 64.2699 66.5467 64.5104C66.2119 66.9729 65.0703 69.1802 63.1293 70.6986Z" fill="url(#paint17_linear)"/>
<path d="M55.8574 72.0272C56.1922 69.5647 57.3337 67.3574 59.2747 65.839C61.2157 64.3205 63.6439 63.7353 66.1328 63.9886C66.2543 64.001 66.366 64.0714 66.4432 64.1687L55.9608 72.3689C55.8837 72.2717 55.841 72.1475 55.8574 72.0272Z" fill="url(#paint18_linear)"/>
<path d="M55.405 77.0708C55.0309 77.0708 54.7277 76.7696 54.7277 76.3981V50.5642C54.7277 50.1926 55.0309 49.8915 55.405 49.8915C55.7792 49.8915 56.0824 50.1926 56.0824 50.5642V76.3981C56.0824 76.7696 55.7793 77.0708 55.405 77.0708Z" fill="url(#paint19_linear)"/>
<path d="M56.2866 36.0165C55.9604 35.552 55.8073 34.9879 55.8411 34.4226C55.8418 34.4112 55.8422 34.4024 55.8424 34.3966C55.8514 34.2145 55.8565 34.0295 55.8565 33.8445C55.8564 33.6595 55.8524 33.4745 55.843 33.2924C55.8399 33.2014 55.8346 33.111 55.8273 33.0217C55.8206 32.9325 55.8153 32.8444 55.8055 32.7576C55.7726 32.4106 55.7233 32.0869 55.6667 31.8095C55.6106 31.532 55.5473 31.3007 55.4957 31.1388C55.471 31.0579 55.3389 31.0579 55.3142 31.1388C55.2626 31.3007 55.1994 31.5319 55.1431 31.8095C55.0866 32.0869 55.0372 32.4108 55.0044 32.7576C54.9945 32.8442 54.9891 32.9325 54.9826 33.0217C54.9753 33.111 54.9699 33.2013 54.9668 33.2924C54.9575 33.4745 54.9534 33.6595 54.9533 33.8445C54.9533 34.0295 54.9584 34.2145 54.9674 34.3966C54.9676 34.4024 54.9681 34.4113 54.9688 34.4226C55.0025 34.9879 54.8494 35.552 54.5233 36.0165C52.9296 38.2862 51.9949 41.0461 51.9949 44.0229C51.9949 47.3076 53.133 50.3283 55.0387 52.7176C55.2249 52.9509 55.5849 52.9509 55.771 52.7176C57.6766 50.3282 58.8149 47.3076 58.8149 44.0229C58.815 41.0461 57.8802 38.2863 56.2866 36.0165Z" fill="url(#paint20_linear)"/>
<path d="M56.2866 36.0166C55.9604 35.552 55.8074 34.988 55.8411 34.4226C55.8418 34.4112 55.8422 34.4024 55.8424 34.3967C55.8515 34.2145 55.8566 34.0295 55.8566 33.8445C55.8565 33.6595 55.8524 33.4745 55.8431 33.2924C55.84 33.2014 55.8347 33.111 55.8273 33.0218C55.8206 32.9325 55.8154 32.8444 55.8055 32.7576C55.7726 32.4107 55.7233 32.0869 55.6667 31.8095C55.6106 31.532 55.5473 31.3007 55.4957 31.1388C55.4834 31.0983 55.4441 31.0781 55.4049 31.0781V52.8927C55.5415 52.8927 55.678 52.8344 55.771 52.7177C55.9815 52.4537 56.182 52.1817 56.3733 51.9029C56.4272 51.8243 56.4805 51.7449 56.5329 51.6652C57.2046 50.6418 57.7452 49.5262 58.1314 48.3413C58.1732 48.2131 58.2132 48.084 58.2514 47.9542C58.2871 47.8325 58.3218 47.7105 58.3543 47.5875C58.3793 47.4927 58.4034 47.3975 58.4266 47.3018C58.5445 46.8136 58.6363 46.3154 58.7012 45.8087C58.7252 45.6208 58.7459 45.4318 58.7624 45.2416C58.7973 44.84 58.815 44.4335 58.815 44.023C58.815 41.0461 57.8803 38.2863 56.2866 36.0166Z" fill="url(#paint21_linear)"/>
<path d="M53.6079 58.9361C51.6136 59.1783 49.6613 58.7361 48 57.5416C49.3879 55.9419 50.2177 53.811 50.4839 51.4665C50.5032 51.2944 50.43 51.1151 50.3147 51.005C50.2549 50.9479 50.7866 51.3945 50.7866 51.3945C52.6099 53.1011 53.6818 55.5821 53.996 58.3499C54.029 58.6388 53.8527 58.9064 53.6079 58.9361Z" fill="url(#paint22_linear)"/>
<path d="M46.2177 63.9348C48.294 65.5789 50.8912 66.2125 53.5536 65.9382C53.8137 65.9114 54.0313 65.6336 53.9963 65.3732C53.8492 64.2779 53.5539 63.2304 53.1159 62.2609L49.1512 58.2754C49.0733 58.1596 48.9516 58.0723 48.816 58.0584C46.7576 57.8463 44.7407 58.2088 43 59.1971C43.5933 61.062 44.6667 62.7066 46.2177 63.9348Z" fill="url(#paint23_linear)"/>
<path d="M47.0345 70.1883C48.8928 71.6306 51.2175 72.1864 53.6004 71.9458C53.8332 71.9223 54.028 71.6786 53.9967 71.4501C53.9776 71.3107 53.9554 71.1722 53.9307 71.0346L48.0453 65.2358C47.9824 65.1353 47.878 65.0585 47.761 65.0467C46.4572 64.9151 45.1739 65.0602 44 65.4999C44.486 67.3545 45.4977 68.9955 47.0345 70.1883Z" fill="url(#paint24_linear)"/>
<path d="M39.3673 50.3932C38.9878 47.7262 37.6938 45.3354 35.4938 43.6908C33.581 42.261 31.2509 41.5951 28.821 41.6259C28.2081 41.6336 27.7073 41.1631 27.6999 40.5815C27.6974 40.3843 27.6957 40.1872 27.6957 40.0154C27.6957 38.6289 27.559 37.505 27.3902 37.505C27.2214 37.505 27.0846 38.6289 27.0846 40.0154C27.0846 40.9893 27.1522 41.833 27.2508 42.2493C27.2509 42.2502 27.2509 42.251 27.251 42.2519C27.6305 44.919 28.9245 47.3097 31.1245 48.9543C33.3246 50.5989 36.0769 51.2328 38.898 50.9584C39.1934 50.9297 39.4071 50.6723 39.3673 50.3932Z" fill="url(#paint25_linear)"/>
<path d="M39.3702 50.4218C39.3786 50.5425 39.3309 50.6658 39.2496 50.7634L28.3741 42.6341C27.9286 42.301 27.6341 41.8187 27.551 41.2863C27.5446 41.2447 27.5407 41.2201 27.5407 41.2207V41.2172C27.4415 40.7522 27.3743 39.8089 27.3743 38.721C27.3743 38.2862 27.3846 37.8753 27.4041 37.5079C27.5668 37.5683 27.6958 38.6677 27.6958 40.0157C27.6958 40.187 27.6977 40.3839 27.6996 40.5818C27.7071 41.1551 28.1943 41.62 28.7946 41.6262H28.8208C29.6175 41.6164 30.4029 41.6804 31.1677 41.8232C31.3089 41.8489 31.4501 41.8782 31.5904 41.9093C31.8728 41.9732 32.1515 42.0477 32.4263 42.1338C32.5311 42.1666 32.6357 42.2004 32.7396 42.2376C32.907 42.2944 33.0735 42.3565 33.2371 42.4231C33.3456 42.4665 33.453 42.5118 33.5597 42.5606C34.2395 42.8614 34.8875 43.2376 35.4935 43.691C37.6937 45.3353 38.9878 47.7258 39.3674 50.3932C39.3684 50.4022 39.3702 50.412 39.3702 50.4218Z" fill="url(#paint26_linear)"/>
<path d="M31.4085 56.7326C33.5329 58.3206 36.1904 58.9327 38.9145 58.6677C39.1806 58.6418 39.4032 58.3735 39.3674 58.122C39.001 55.5468 37.7516 53.2383 35.6273 51.6503C33.5029 50.0623 30.8454 49.4502 28.1213 49.7152C27.8552 49.7411 27.6326 50.0094 27.6683 50.261C28.0347 52.8361 29.2842 55.1446 31.4085 56.7326Z" fill="url(#paint27_linear)"/>
<path d="M39.3673 58.122C39.0009 55.5468 37.7515 53.2383 35.6272 51.6503C33.5028 50.0623 30.8453 49.4502 28.1212 49.7152C27.9882 49.7282 27.8659 49.8017 27.7815 49.9034L39.254 58.4795C39.3386 58.3777 39.3853 58.2477 39.3673 58.122Z" fill="url(#paint28_linear)"/>
<path d="M31.839 64.1954C33.8485 65.6976 36.3624 66.2765 38.9392 66.0259C39.1909 66.0014 39.4015 65.7476 39.3677 65.5097C39.021 63.0736 37.8392 60.89 35.8297 59.3878C33.8202 57.8856 31.3063 57.3067 28.7296 57.5573C28.4778 57.5818 28.2672 57.8356 28.3011 58.0735C28.6477 60.5096 29.8295 62.6932 31.839 64.1954Z" fill="url(#paint29_linear)"/>
<path d="M39.3675 65.5097C39.0209 63.0736 37.8391 60.89 35.8296 59.3878C33.8201 57.8856 31.3062 57.3067 28.7294 57.5573C28.6036 57.5696 28.488 57.6391 28.4081 57.7354L39.2604 65.8479C39.3403 65.7515 39.3845 65.6286 39.3675 65.5097Z" fill="url(#paint30_linear)"/>
<path d="M32.8598 71.0796C34.5969 72.3782 36.77 72.8787 38.9976 72.6621C39.2152 72.6409 39.3973 72.4215 39.3681 72.2158C39.0684 70.1099 38.0468 68.2222 36.3096 66.9236C34.5725 65.625 32.3994 65.1245 30.1718 65.3412C29.9542 65.3624 29.7721 65.5817 29.8013 65.7875C30.101 67.8934 31.1226 69.7811 32.8598 71.0796Z" fill="url(#paint31_linear)"/>
<path d="M39.3681 72.2158C39.0685 70.1099 38.0468 68.2222 36.3097 66.9236C34.5725 65.625 32.3994 65.1245 30.1718 65.3412C30.0629 65.3518 29.963 65.4119 29.894 65.4951L39.2755 72.5081C39.3445 72.4249 39.3827 72.3187 39.3681 72.2158Z" fill="url(#paint32_linear)"/>
<path d="M40.3047 50.3932C40.6842 47.7262 41.9782 45.3354 44.1782 43.6908C46.0909 42.261 48.4211 41.5951 50.851 41.6259C51.4639 41.6336 51.9647 41.1631 51.9721 40.5815C51.9746 40.3843 51.9763 40.1872 51.9763 40.0154C51.9763 38.6289 52.1131 37.505 52.2819 37.505C52.4506 37.505 52.5874 38.6289 52.5874 40.0154C52.5874 40.9893 52.5198 41.833 52.4212 42.2493C52.4211 42.2502 52.4211 42.251 52.421 42.2519C52.0415 44.919 50.7475 47.3097 48.5475 48.9543C46.3474 50.5989 43.5951 51.2328 40.774 50.9584C40.4785 50.9297 40.2649 50.6723 40.3047 50.3932Z" fill="url(#paint33_linear)"/>
<path d="M40.3017 50.4218C40.2934 50.5425 40.3409 50.6658 40.4224 50.7634L51.2978 42.6341C51.7434 42.301 52.0379 41.8187 52.121 41.2863C52.1274 41.2447 52.1313 41.2201 52.1313 41.2207V41.2172C52.2304 40.7522 52.2977 39.8089 52.2977 38.721C52.2977 38.2862 52.2874 37.8753 52.2677 37.5079C52.1051 37.5683 51.976 38.6677 51.976 40.0157C51.976 40.187 51.9742 40.3839 51.9723 40.5818C51.9647 41.1551 51.4776 41.62 50.8773 41.6262H50.8511C50.0544 41.6164 49.269 41.6804 48.5041 41.8232C48.3629 41.8489 48.2218 41.8782 48.0814 41.9093C47.7991 41.9732 47.5204 42.0477 47.2454 42.1338C47.1407 42.1666 47.036 42.2004 46.9322 42.2376C46.7648 42.2944 46.5984 42.3565 46.4348 42.4231C46.3263 42.4665 46.2188 42.5118 46.1121 42.5606C45.4323 42.8614 44.7843 43.2376 44.1784 43.691C41.9782 45.3353 40.684 47.7258 40.3044 50.3932C40.3036 50.4022 40.3017 50.412 40.3017 50.4218Z" fill="url(#paint34_linear)"/>
<path d="M48.2634 56.7326C46.139 58.3206 43.4815 58.9327 40.7575 58.6677C40.4914 58.6418 40.2688 58.3735 40.3046 58.122C40.6711 55.5468 41.9204 53.2383 44.0448 51.6503C46.1691 50.0623 48.8266 49.4502 51.5507 49.7152C51.8167 49.7411 52.0394 50.0094 52.0037 50.261C51.6372 52.8361 50.3877 55.1446 48.2634 56.7326Z" fill="url(#paint35_linear)"/>
<path d="M40.3044 58.122C40.6709 55.5468 41.9203 53.2383 44.0446 51.6503C46.169 50.0623 48.8265 49.4502 51.5506 49.7152C51.6836 49.7282 51.8058 49.8017 51.8903 49.9034L40.4178 58.4795C40.3333 58.3777 40.2866 58.2477 40.3044 58.122Z" fill="url(#paint36_linear)"/>
<path d="M47.833 64.1954C45.8235 65.6976 43.3096 66.2765 40.7328 66.0259C40.4811 66.0014 40.2705 65.7476 40.3044 65.5097C40.651 63.0736 41.8328 60.89 43.8423 59.3878C45.8518 57.8856 48.3657 57.3067 50.9425 57.5573C51.1942 57.5818 51.4048 57.8356 51.371 58.0735C51.0243 60.5096 49.8425 62.6932 47.833 64.1954Z" fill="url(#paint37_linear)"/>
<path d="M40.3042 65.5097C40.6508 63.0736 41.8327 60.89 43.8422 59.3878C45.8517 57.8856 48.3655 57.3067 50.9423 57.5573C51.0681 57.5696 51.1838 57.6391 51.2637 57.7354L40.4113 65.8479C40.3315 65.7515 40.2874 65.6286 40.3042 65.5097Z" fill="url(#paint38_linear)"/>
<path d="M46.812 71.0796C45.0748 72.3782 42.9017 72.8787 40.6741 72.6621C40.4565 72.6409 40.2744 72.4215 40.3036 72.2158C40.6033 70.1099 41.625 68.2222 43.3621 66.9236C45.0992 65.625 47.2724 65.1245 49.5 65.3412C49.7175 65.3624 49.8996 65.5817 49.8704 65.7875C49.5709 67.8934 48.5491 69.7811 46.812 71.0796Z" fill="url(#paint39_linear)"/>
<path d="M40.3038 72.2158C40.6034 70.1099 41.6251 68.2222 43.3622 66.9236C45.0993 65.625 47.2725 65.1245 49.5001 65.3412C49.6089 65.3518 49.7088 65.4119 49.7779 65.4951L40.3965 72.5081C40.3273 72.4249 40.2891 72.3187 40.3038 72.2158Z" fill="url(#paint40_linear)"/>
<path d="M39.8359 77.0001C39.4486 77.0001 39.1346 76.7021 39.1346 76.3346V44.2771C39.1346 43.9095 39.4486 43.6116 39.8359 43.6116C40.2233 43.6116 40.5372 43.9095 40.5372 44.2771V76.3346C40.5372 76.7021 40.2233 77.0001 39.8359 77.0001Z" fill="url(#paint41_linear)"/>
<path d="M40.7486 29.8854C40.4109 29.4259 40.2524 28.8679 40.2873 28.3086C40.2881 28.2973 40.2885 28.2886 40.2887 28.2829C40.2981 28.1027 40.3034 27.9197 40.3034 27.7367C40.3033 27.5537 40.2991 27.3707 40.2894 27.1905C40.2862 27.1005 40.2807 27.011 40.2731 26.9228C40.2662 26.8345 40.2607 26.7472 40.2505 26.6614C40.2165 26.3182 40.1654 25.998 40.1068 25.7235C40.0487 25.4489 39.9832 25.2202 39.9298 25.06C39.9042 24.98 39.7674 24.98 39.7419 25.06C39.6885 25.2202 39.623 25.4489 39.5648 25.7235C39.5062 25.998 39.4551 26.3183 39.4211 26.6614C39.4109 26.7472 39.4054 26.8345 39.3986 26.9228C39.3911 27.011 39.3855 27.1004 39.3823 27.1905C39.3726 27.3707 39.3685 27.5537 39.3683 27.7367C39.3683 27.9197 39.3736 28.1027 39.3829 28.2829C39.3831 28.2886 39.3835 28.2974 39.3843 28.3086C39.4192 28.8679 39.2607 29.4259 38.923 29.8854C37.2732 32.1308 36.3054 34.861 36.3054 37.8058C36.3054 41.0553 37.4837 44.0435 39.4567 46.4073C39.6495 46.6381 40.0222 46.6381 40.2148 46.4073C42.1877 44.0435 43.3661 41.0553 43.3661 37.8058C43.3663 34.861 42.3985 32.1308 40.7486 29.8854Z" fill="url(#paint42_linear)"/>
<path d="M40.7487 29.8855C40.411 29.4259 40.2525 28.8679 40.2874 28.3086C40.2882 28.2973 40.2886 28.2886 40.2888 28.2829C40.2982 28.1028 40.3034 27.9197 40.3034 27.7367C40.3033 27.5537 40.2991 27.3707 40.2895 27.1905C40.2862 27.1005 40.2808 27.0111 40.2731 26.9228C40.2663 26.8345 40.2608 26.7472 40.2506 26.6615C40.2166 26.3183 40.1655 25.998 40.1069 25.7235C40.0488 25.4489 39.9833 25.2202 39.9299 25.0601C39.9172 25.02 39.8767 25 39.8361 25V46.5805C39.9775 46.5805 40.1187 46.5228 40.2151 46.4074C40.433 46.1463 40.6406 45.8772 40.8386 45.6014C40.8945 45.5235 40.9496 45.4451 41.0039 45.3662C41.6992 44.3538 42.259 43.2502 42.6588 42.0779C42.7021 41.9511 42.7435 41.8234 42.783 41.695C42.82 41.5746 42.8559 41.4539 42.8896 41.3323C42.9155 41.2385 42.9404 41.1443 42.9644 41.0496C43.0864 40.5667 43.1815 40.0738 43.2487 39.5725C43.2736 39.3867 43.295 39.1997 43.312 39.0116C43.3481 38.6142 43.3665 38.2122 43.3665 37.806C43.3664 34.861 42.3986 32.1308 40.7487 29.8855Z" fill="url(#paint43_linear)"/>
<defs>
<linearGradient id="paint0_linear" x1="-8.49755" y1="32.8559" x2="21.2849" y2="46.0528" gradientUnits="userSpaceOnUse">
<stop stop-color="#FFC8A3"/>
<stop offset="1" stop-color="#F89B5D"/>
</linearGradient>
<linearGradient id="paint1_linear" x1="27.5998" y1="11.0643" x2="11.7488" y2="-7.06314" gradientUnits="userSpaceOnUse">
<stop stop-color="#F35227" stop-opacity="0.01"/>
<stop offset="1" stop-color="#F35227"/>
</linearGradient>
<linearGradient id="paint2_linear" x1="56.3273" y1="36.5285" x2="53.8595" y2="26.1632" gradientUnits="userSpaceOnUse">
<stop stop-color="#F35227" stop-opacity="0.01"/>
<stop offset="1" stop-color="#F35227"/>
</linearGradient>
<linearGradient id="paint3_linear" x1="-43.3874" y1="64.6956" x2="1.93168" y2="124.836" gradientUnits="userSpaceOnUse">
<stop stop-color="#92F37F"/>
<stop offset="0.550454" stop-color="#50B773"/>
<stop offset="1" stop-color="#4AB272"/>
</linearGradient>
<linearGradient id="paint4_linear" x1="6.4116" y1="29.3626" x2="18.4567" y2="38.2537" gradientUnits="userSpaceOnUse">
<stop stop-color="#F8F6FB"/>
<stop offset="1" stop-color="#EFDCFB"/>
</linearGradient>
<linearGradient id="paint5_linear" x1="20.3603" y1="15.0897" x2="7.66651" y2="18.2016" gradientUnits="userSpaceOnUse">
<stop stop-color="#FFA981"/>
<stop offset="0.428" stop-color="#FF8666"/>
<stop offset="1" stop-color="#FF5C45"/>
</linearGradient>
<linearGradient id="paint6_linear" x1="4.24853" y1="4.02012" x2="9.58155" y2="13.1637" gradientUnits="userSpaceOnUse">
<stop stop-color="#FFC198"/>
<stop offset="1" stop-color="#FFA162"/>
</linearGradient>
<linearGradient id="paint7_linear" x1="40.1256" y1="54.3161" x2="51.3098" y2="59.0622" gradientUnits="userSpaceOnUse">
<stop stop-color="#FFD945"/>
<stop offset="0.3043" stop-color="#FFCD3E"/>
<stop offset="0.8558" stop-color="#FFAD2B"/>
<stop offset="1" stop-color="#FFA325"/>
</linearGradient>
<linearGradient id="paint8_linear" x1="48.4908" y1="48.8145" x2="45.735" y2="50.3082" gradientUnits="userSpaceOnUse">
<stop stop-color="#E87264" stop-opacity="0.01"/>
<stop offset="1" stop-color="#FF7044"/>
</linearGradient>
<linearGradient id="paint9_linear" x1="47.9244" y1="64.5315" x2="53.0146" y2="60.6259" gradientUnits="userSpaceOnUse">
<stop stop-color="#FFD945"/>
<stop offset="0.3043" stop-color="#FFCD3E"/>
<stop offset="0.8558" stop-color="#FFAD2B"/>
<stop offset="1" stop-color="#FFA325"/>
</linearGradient>
<linearGradient id="paint10_linear" x1="47.1249" y1="55.6478" x2="40.568" y2="63.751" gradientUnits="userSpaceOnUse">
<stop stop-color="#E87264" stop-opacity="0.01"/>
<stop offset="1" stop-color="#FF7044"/>
</linearGradient>
<linearGradient id="paint11_linear" x1="48.3053" y1="72.0015" x2="53.1203" y2="68.307" gradientUnits="userSpaceOnUse">
<stop stop-color="#FFD945"/>
<stop offset="0.3043" stop-color="#FFCD3E"/>
<stop offset="0.8558" stop-color="#FFAD2B"/>
<stop offset="1" stop-color="#FFA325"/>
</linearGradient>
<linearGradient id="paint12_linear" x1="46.7792" y1="64.202" x2="40.5766" y2="71.8671" gradientUnits="userSpaceOnUse">
<stop stop-color="#E87264" stop-opacity="0.01"/>
<stop offset="1" stop-color="#FF7044"/>
</linearGradient>
<linearGradient id="paint13_linear" x1="65.4792" y1="42.0505" x2="54.2951" y2="46.7967" gradientUnits="userSpaceOnUse">
<stop stop-color="#FFD945"/>
<stop offset="0.3043" stop-color="#FFCD3E"/>
<stop offset="0.8558" stop-color="#FFAD2B"/>
<stop offset="1" stop-color="#FFA325"/>
</linearGradient>
<linearGradient id="paint14_linear" x1="62.7522" y1="55.3029" x2="70.7972" y2="56.2464" gradientUnits="userSpaceOnUse">
<stop stop-color="#E87264" stop-opacity="0.01"/>
<stop offset="1" stop-color="#FF7044"/>
</linearGradient>
<linearGradient id="paint15_linear" x1="66.3985" y1="59.7388" x2="61.3081" y2="55.8333" gradientUnits="userSpaceOnUse">
<stop stop-color="#FFD945"/>
<stop offset="0.3043" stop-color="#FFCD3E"/>
<stop offset="0.8558" stop-color="#FFAD2B"/>
<stop offset="1" stop-color="#FFA325"/>
</linearGradient>
<linearGradient id="paint16_linear" x1="56.0999" y1="62.9253" x2="62.6569" y2="71.0285" gradientUnits="userSpaceOnUse">
<stop stop-color="#E87264" stop-opacity="0.01"/>
<stop offset="1" stop-color="#FF7044"/>
</linearGradient>
<linearGradient id="paint17_linear" x1="65.8215" y1="67.4645" x2="61.0065" y2="63.77" gradientUnits="userSpaceOnUse">
<stop stop-color="#FFD945"/>
<stop offset="0.3043" stop-color="#FFCD3E"/>
<stop offset="0.8558" stop-color="#FFAD2B"/>
<stop offset="1" stop-color="#FFA325"/>
</linearGradient>
<linearGradient id="paint18_linear" x1="56.0796" y1="70.4786" x2="62.2821" y2="78.1438" gradientUnits="userSpaceOnUse">
<stop stop-color="#E87264" stop-opacity="0.01"/>
<stop offset="1" stop-color="#FF7044"/>
</linearGradient>
<linearGradient id="paint19_linear" x1="55.2453" y1="83.8542" x2="57.2767" y2="83.8543" gradientUnits="userSpaceOnUse">
<stop stop-color="#FFA325"/>
<stop offset="0.1041" stop-color="#FF9C29"/>
<stop offset="0.6814" stop-color="#FF7C3D"/>
<stop offset="1" stop-color="#FF7044"/>
</linearGradient>
<linearGradient id="paint20_linear" x1="50.9904" y1="51.4188" x2="58.4017" y2="51.8262" gradientUnits="userSpaceOnUse">
<stop stop-color="#FFD945"/>
<stop offset="0.3043" stop-color="#FFCD3E"/>
<stop offset="0.8558" stop-color="#FFAD2B"/>
<stop offset="1" stop-color="#FFA325"/>
</linearGradient>
<linearGradient id="paint21_linear" x1="57.3619" y1="1.68451" x2="44.5855" y2="1.5937" gradientUnits="userSpaceOnUse">
<stop stop-color="#E87264" stop-opacity="0.01"/>
<stop offset="1" stop-color="#FF7044"/>
</linearGradient>
<linearGradient id="paint22_linear" x1="50.8293" y1="54.0321" x2="49.0393" y2="53.3577" gradientUnits="userSpaceOnUse">
<stop stop-color="#E87264" stop-opacity="0.01"/>
<stop offset="1" stop-color="#FF7044"/>
</linearGradient>
<linearGradient id="paint23_linear" x1="50.8104" y1="60.8536" x2="47.9706" y2="58.4908" gradientUnits="userSpaceOnUse">
<stop stop-color="#E87264" stop-opacity="0.01"/>
<stop offset="1" stop-color="#FF7044"/>
</linearGradient>
<linearGradient id="paint24_linear" x1="52.5474" y1="67.4051" x2="49.1912" y2="61.9465" gradientUnits="userSpaceOnUse">
<stop stop-color="#E87264" stop-opacity="0.01"/>
<stop offset="1" stop-color="#FF7044"/>
</linearGradient>
<linearGradient id="paint25_linear" x1="24.0174" y1="47.9886" x2="35.4304" y2="53.0572" gradientUnits="userSpaceOnUse">
<stop stop-color="#FFD945"/>
<stop offset="0.3043" stop-color="#FFCD3E"/>
<stop offset="0.8558" stop-color="#FFAD2B"/>
<stop offset="1" stop-color="#FFA325"/>
</linearGradient>
<linearGradient id="paint26_linear" x1="31.1052" y1="39.804" x2="22.787" y2="40.8249" gradientUnits="userSpaceOnUse">
<stop stop-color="#E87264" stop-opacity="0.01"/>
<stop offset="1" stop-color="#FF7044"/>
</linearGradient>
<linearGradient id="paint27_linear" x1="32.0795" y1="58.0983" x2="37.1698" y2="54.0109" gradientUnits="userSpaceOnUse">
<stop stop-color="#FFD945"/>
<stop offset="0.3043" stop-color="#FFCD3E"/>
<stop offset="0.8558" stop-color="#FFAD2B"/>
<stop offset="1" stop-color="#FFA325"/>
</linearGradient>
<linearGradient id="paint28_linear" x1="30.4092" y1="49.9417" x2="23.9902" y2="58.2435" gradientUnits="userSpaceOnUse">
<stop stop-color="#E87264" stop-opacity="0.01"/>
<stop offset="1" stop-color="#FF7044"/>
</linearGradient>
<linearGradient id="paint29_linear" x1="32.4739" y1="65.4882" x2="37.2891" y2="61.6218" gradientUnits="userSpaceOnUse">
<stop stop-color="#FFD945"/>
<stop offset="0.3043" stop-color="#FFCD3E"/>
<stop offset="0.8558" stop-color="#FFAD2B"/>
<stop offset="1" stop-color="#FFA325"/>
</linearGradient>
<linearGradient id="paint30_linear" x1="30.8938" y1="57.7724" x2="24.8217" y2="65.6254" gradientUnits="userSpaceOnUse">
<stop stop-color="#E87264" stop-opacity="0.01"/>
<stop offset="1" stop-color="#FF7044"/>
</linearGradient>
<linearGradient id="paint31_linear" x1="33.4065" y1="72.1969" x2="37.569" y2="68.8546" gradientUnits="userSpaceOnUse">
<stop stop-color="#FFD945"/>
<stop offset="0.3043" stop-color="#FFCD3E"/>
<stop offset="0.8558" stop-color="#FFAD2B"/>
<stop offset="1" stop-color="#FFA325"/>
</linearGradient>
<linearGradient id="paint32_linear" x1="32.0407" y1="65.527" x2="26.7914" y2="72.3156" gradientUnits="userSpaceOnUse">
<stop stop-color="#E87264" stop-opacity="0.01"/>
<stop offset="1" stop-color="#FF7044"/>
</linearGradient>
<linearGradient id="paint33_linear" x1="50.2659" y1="35.8546" x2="38.8528" y2="40.9232" gradientUnits="userSpaceOnUse">
<stop stop-color="#FFD945"/>
<stop offset="0.3043" stop-color="#FFCD3E"/>
<stop offset="0.8558" stop-color="#FFAD2B"/>
<stop offset="1" stop-color="#FFA325"/>
</linearGradient>
<linearGradient id="paint34_linear" x1="47.4424" y1="48.9647" x2="55.7605" y2="49.9856" gradientUnits="userSpaceOnUse">
<stop stop-color="#E87264" stop-opacity="0.01"/>
<stop offset="1" stop-color="#FF7044"/>
</linearGradient>
<linearGradient id="paint35_linear" x1="51.2088" y1="53.3461" x2="46.1186" y2="49.2588" gradientUnits="userSpaceOnUse">
<stop stop-color="#FFD945"/>
<stop offset="0.3043" stop-color="#FFCD3E"/>
<stop offset="0.8558" stop-color="#FFAD2B"/>
<stop offset="1" stop-color="#FFA325"/>
</linearGradient>
<linearGradient id="paint36_linear" x1="40.5466" y1="56.4984" x2="46.9657" y2="64.8003" gradientUnits="userSpaceOnUse">
<stop stop-color="#E87264" stop-opacity="0.01"/>
<stop offset="1" stop-color="#FF7044"/>
</linearGradient>
<linearGradient id="paint37_linear" x1="50.6115" y1="60.9888" x2="45.7963" y2="57.1225" gradientUnits="userSpaceOnUse">
<stop stop-color="#FFD945"/>
<stop offset="0.3043" stop-color="#FFCD3E"/>
<stop offset="0.8558" stop-color="#FFAD2B"/>
<stop offset="1" stop-color="#FFA325"/>
</linearGradient>
<linearGradient id="paint38_linear" x1="40.5258" y1="63.9707" x2="46.598" y2="71.8237" gradientUnits="userSpaceOnUse">
<stop stop-color="#E87264" stop-opacity="0.01"/>
<stop offset="1" stop-color="#FF7044"/>
</linearGradient>
<linearGradient id="paint39_linear" x1="49.1973" y1="68.2972" x2="45.0347" y2="64.9549" gradientUnits="userSpaceOnUse">
<stop stop-color="#FFD945"/>
<stop offset="0.3043" stop-color="#FFCD3E"/>
<stop offset="0.8558" stop-color="#FFAD2B"/>
<stop offset="1" stop-color="#FFA325"/>
</linearGradient>
<linearGradient id="paint40_linear" x1="40.4786" y1="70.8751" x2="45.7278" y2="77.6637" gradientUnits="userSpaceOnUse">
<stop stop-color="#E87264" stop-opacity="0.01"/>
<stop offset="1" stop-color="#FF7044"/>
</linearGradient>
<linearGradient id="paint41_linear" x1="39.6568" y1="87.4694" x2="41.9393" y2="87.4695" gradientUnits="userSpaceOnUse">
<stop stop-color="#FFA325"/>
<stop offset="0.1041" stop-color="#FF9C29"/>
<stop offset="0.6814" stop-color="#FF7C3D"/>
<stop offset="1" stop-color="#FF7044"/>
</linearGradient>
<linearGradient id="paint42_linear" x1="35.2656" y1="45.1223" x2="42.9362" y2="45.5635" gradientUnits="userSpaceOnUse">
<stop stop-color="#FFD945"/>
<stop offset="0.3043" stop-color="#FFCD3E"/>
<stop offset="0.8558" stop-color="#FFAD2B"/>
<stop offset="1" stop-color="#FFA325"/>
</linearGradient>
<linearGradient id="paint43_linear" x1="41.862" y1="-4.07845" x2="28.6346" y2="-4.17685" gradientUnits="userSpaceOnUse">
<stop stop-color="#E87264" stop-opacity="0.01"/>
<stop offset="1" stop-color="#FF7044"/>
</linearGradient>
</defs>
</svg>
