<svg width="78" height="71" viewBox="0 0 78 71" fill="none" xmlns="http://www.w3.org/2000/svg">
<path fill-rule="evenodd" clip-rule="evenodd" d="M9.4648 70.6207C7.1928 70.6207 5.07955 69.4399 3.51431 67.2957C2.02369 65.2537 1.203 62.5564 1.203 59.7007C1.203 56.845 2.02383 54.1479 3.51431 52.1057C5.07942 49.9614 7.19266 48.7807 9.4648 48.7807C11.7369 48.7807 13.85 49.9615 15.4153 52.1057C16.9058 54.1477 17.7266 56.845 17.7266 59.7007C17.7266 62.5564 16.9058 65.2535 15.4153 67.2957C13.85 69.4399 11.7368 70.6207 9.4648 70.6207ZM13.1215 66.7162C14.6079 65.1161 15.5714 62.5669 15.5714 59.7007C15.5714 56.8346 14.608 54.2855 13.1216 52.6854C13.7922 54.6726 14.1345 57.1938 14.1345 59.7007C14.1345 62.2077 13.7921 64.7289 13.1215 66.7162ZM5.80813 52.6852C4.32165 54.2853 3.35818 56.8345 3.35818 59.7007C3.35818 62.5668 4.32161 65.116 5.80806 66.7161C5.13745 64.7289 4.79514 62.2076 4.79514 59.7007C4.79514 57.1937 5.13748 54.6725 5.80813 52.6852ZM9.4648 50.936C8.71293 50.936 6.95031 53.9179 6.95031 59.7007C6.95031 65.4835 8.7128 68.4654 9.4648 68.4654C10.2167 68.4654 11.9793 65.4835 11.9793 59.7007C11.9791 53.9179 10.2167 50.936 9.4648 50.936Z" fill="url(#paint0_linear)"/>
<path d="M9.46486 70.6207C8.86969 70.6207 8.38721 70.1382 8.38721 69.543V47.1284H10.5425V69.5432C10.5425 70.1382 10.06 70.6207 9.46486 70.6207Z" fill="url(#paint1_linear)"/>
<path d="M15.4152 52.1058C14.1009 50.3051 12.3995 49.1872 10.5425 48.8741V47.1284H8.38721V47.6625L8.45907 47.703L17.4014 56.6454C17.0329 54.9538 16.3587 53.3983 15.4152 52.1058Z" fill="url(#paint2_linear)"/>
<path d="M10.9383 47.703H7.99164C6.42475 47.703 5.15454 46.4328 5.15454 44.8659V41.5245H13.7755V44.8659C13.7754 46.4328 12.5052 47.703 10.9383 47.703Z" fill="url(#paint3_linear)"/>
<path d="M5.15417 43.1052L9.75197 47.703H10.938C12.5049 47.703 13.7751 46.4328 13.7751 44.8659V41.5245H5.15417V43.1052Z" fill="url(#paint4_linear)"/>
<path d="M51.2747 43.1847H5.44355C3.93458 43.1847 2.71155 41.9615 2.71155 40.4527V39.0822H54.0067V40.4527C54.0069 41.9614 52.7835 43.1847 51.2747 43.1847Z" fill="url(#paint5_linear)"/>
<path fill-rule="evenodd" clip-rule="evenodd" d="M36.0163 13.3626H49.5947C53.063 13.3626 55.8746 16.1742 55.8747 19.6426V35.532C55.8747 39.0003 53.063 41.812 49.5947 41.812H6.40537C2.93709 41.812 0.125366 39.0003 0.125366 35.532V17.111C0.125366 14.6491 0.724952 12.2243 1.87268 10.0462L3.73612 6.50938C5.8455 2.50607 9.99833 0 14.5234 0H24.967C29.0227 0 32.3105 3.28772 32.3105 7.34345V9.65683C32.3105 11.7034 33.9696 13.3626 36.0163 13.3626ZM27.377 13.219C27.7211 13.219 28 12.9401 28 12.596H28.0001V8.90028C28.0001 6.60345 26.1382 4.74152 23.8414 4.74152H14.116C11.155 4.74152 8.51419 6.60469 7.52137 9.39421L6.45612 12.387C6.31185 12.7927 6.61268 13.219 7.04316 13.219H27.377Z" fill="url(#paint6_linear)"/>
<path d="M8.81819 31.3232H19.7382C21.1269 31.3232 22.2527 32.449 22.2527 33.8377C22.2527 35.2264 21.1269 36.3521 19.7382 36.3521H8.81819C7.4295 36.3521 6.30371 35.2264 6.30371 33.8377C6.30371 32.4488 7.42937 31.3232 8.81819 31.3232Z" fill="url(#paint7_linear)"/>
<path d="M8.81819 24.4263H19.7382C21.1269 24.4263 22.2527 25.5521 22.2527 26.9408C22.2527 28.3295 21.1269 29.4553 19.7382 29.4553H8.81819C7.4295 29.4553 6.30371 28.3295 6.30371 26.9408C6.30371 25.5521 7.42937 24.4263 8.81819 24.4263Z" fill="url(#paint8_linear)"/>
<path d="M8.81819 17.5294H19.7382C21.1269 17.5294 22.2527 18.6552 22.2527 20.0438C22.2527 21.4325 21.1269 22.5583 19.7382 22.5583H8.81819C7.4295 22.5583 6.30371 21.4325 6.30371 20.0438C6.30371 18.6552 7.42937 17.5294 8.81819 17.5294Z" fill="url(#paint9_linear)"/>
<path d="M38.128 31.501C37.6045 30.9499 36.8665 30.6047 36.0464 30.6047C34.4594 30.6047 33.1727 31.8912 33.1727 33.4783C33.1727 34.2985 33.5181 35.0364 34.069 35.56L39.281 40.772C39.8046 41.323 40.5427 41.6683 41.3627 41.6683C42.9498 41.6683 44.2363 40.3818 44.2363 38.7946C44.2363 37.9746 43.8911 37.2365 43.34 36.713L38.128 31.501Z" fill="url(#paint10_linear)"/>
<circle cx="36.0466" cy="33.4783" r="2.87366" fill="url(#paint11_radial)"/>
<path d="M45.7432 31.501C45.2196 30.9499 44.4816 30.6047 43.6615 30.6047C42.0745 30.6047 40.7878 31.8912 40.7878 33.4783C40.7878 34.2985 41.1332 35.0364 41.6841 35.56L46.8961 40.772C47.4197 41.323 48.1578 41.6683 48.9778 41.6683C50.5649 41.6683 51.8514 40.3818 51.8514 38.7946C51.8514 37.9746 51.5062 37.2365 50.9552 36.713L45.7432 31.501Z" fill="url(#paint12_linear)"/>
<circle cx="43.6613" cy="33.4783" r="2.87366" fill="url(#paint13_radial)"/>
<path fill-rule="evenodd" clip-rule="evenodd" d="M32.3105 9.65683C32.3105 11.7034 33.9697 13.3626 36.0163 13.3626H0.597534C0.8905 12.2152 1.31657 11.1017 1.87271 10.0462L3.73615 6.50938C5.84553 2.50607 9.99836 0 14.5235 0H24.9671C29.0228 0 32.3105 3.28772 32.3105 7.34345V9.65683ZM7.5214 9.39421L6.45615 12.387C6.31188 12.7926 6.61257 13.2189 7.04319 13.219H27.3771C27.7213 13.219 28.0002 12.9401 28.0002 12.596V8.90028C28.0002 6.60345 26.1382 4.74152 23.8414 4.74152H14.116C11.1551 4.74152 8.51422 6.60469 7.5214 9.39421Z" fill="url(#paint14_linear)"/>
<rect x="46.9197" y="24.7468" width="12.1616" height="5.52" fill="url(#paint15_linear)"/>
<path d="M59.0806 24.7463H46.9192V26.0615L51.124 30.2663H59.0806V24.7463Z" fill="url(#paint16_linear)"/>
<path d="M74.347 68.9496H31.6531V49.5432C31.6531 37.7536 41.2104 28.1963 53 28.1963C64.7897 28.1963 74.347 37.7536 74.347 49.5432V68.9496Z" fill="url(#paint17_linear)"/>
<path d="M76.2169 70.6522H29.783C28.8312 70.6522 28.0596 69.8805 28.0596 68.9287C28.0596 67.9768 28.8312 67.2052 29.783 67.2052H76.2169C77.1687 67.2052 77.9403 67.9768 77.9403 68.9287C77.9403 69.8805 77.1687 70.6522 76.2169 70.6522Z" fill="url(#paint18_linear)"/>
<circle cx="53" cy="48.2494" r="15.7463" fill="url(#paint19_linear)"/>
<circle cx="53" cy="48.2493" r="14.619" fill="url(#paint20_linear)"/>
<circle cx="53" cy="48.2493" r="14.619" fill="url(#paint21_linear)"/>
<circle cx="53" cy="48.2494" r="0.826196" fill="url(#paint22_linear)"/>
<path d="M63.5005 56.5287C63.1757 56.9409 62.8263 57.3336 62.4551 57.7047C60.7467 59.4131 58.5783 60.6608 56.1515 61.247L48.0769 53.1724C47.6961 52.7923 50.712 49.15 51.422 48.366C51.4191 48.3272 51.4161 48.289 51.4161 48.2496C51.4161 47.3752 52.1255 46.6659 52.9998 46.6659C53.5067 46.6659 53.9562 46.9049 54.246 47.2752L63.5005 56.5287Z" fill="url(#paint23_linear)"/>
<path d="M47.1868 54.5763L45.3033 56.4597C45.1615 56.6016 44.9316 56.6016 44.7897 56.4597C44.6479 56.3179 44.6479 56.088 44.7897 55.9462L46.6732 54.0627C46.8151 53.9208 47.045 53.9208 47.1868 54.0627C47.3286 54.2043 47.3286 54.4344 47.1868 54.5763Z" fill="url(#paint24_linear)"/>
<path d="M61.5035 40.62L59.62 42.5035C59.4781 42.6453 59.2482 42.6453 59.1064 42.5035C58.9645 42.3616 58.9645 42.1317 59.1064 41.9899L60.9899 40.1064C61.1317 39.9645 61.3616 39.9645 61.5035 40.1064C61.6453 40.248 61.6453 40.4781 61.5035 40.62Z" fill="url(#paint25_linear)"/>
<path d="M60.6964 56.4597L58.8129 54.5763C58.6711 54.4344 58.6711 54.2045 58.8129 54.0627C58.9548 53.9208 59.1847 53.9208 59.3265 54.0627L61.21 55.9462C61.3518 56.088 61.3518 56.3179 61.21 56.4597C61.0683 56.6016 60.8383 56.6016 60.6964 56.4597Z" fill="url(#paint26_linear)"/>
<path d="M46.6731 42.4364L44.7896 40.553C44.6478 40.4111 44.6478 40.1812 44.7896 40.0394C44.9315 39.8975 45.1614 39.8975 45.3032 40.0394L47.1867 41.9228C47.3285 42.0647 47.3285 42.2946 47.1867 42.4364C47.0449 42.5783 46.8149 42.5783 46.6731 42.4364Z" fill="url(#paint27_linear)"/>
<path d="M53.3632 37.0016V39.6653C53.3632 39.8659 53.2006 40.0286 53 40.0286C52.7994 40.0286 52.6367 39.866 52.6367 39.6653V37.0016C52.6367 36.8011 52.7993 36.6384 53 36.6384C53.2005 36.6385 53.3632 36.8011 53.3632 37.0016Z" fill="url(#paint28_linear)"/>
<path d="M53.3632 56.8337V59.4974C53.3632 59.698 53.2006 59.8607 53 59.8607C52.7994 59.8607 52.6367 59.6981 52.6367 59.4974V56.8337C52.6367 56.6332 52.7993 56.4705 53 56.4705C53.2005 56.4705 53.3632 56.6332 53.3632 56.8337Z" fill="url(#paint29_linear)"/>
<path d="M64.2478 48.6127H61.5841C61.3835 48.6127 61.2208 48.4501 61.2208 48.2494C61.2208 48.0489 61.3834 47.8862 61.5841 47.8862H64.2478C64.4483 47.8862 64.611 48.0488 64.611 48.2494C64.6109 48.4501 64.4483 48.6127 64.2478 48.6127Z" fill="url(#paint30_linear)"/>
<path d="M44.4156 48.6127H41.7521C41.5515 48.6127 41.3888 48.4501 41.3888 48.2494C41.3888 48.0489 41.5514 47.8862 41.7521 47.8862H44.4158C44.6163 47.8862 44.779 48.0488 44.779 48.2494C44.7789 48.4501 44.6162 48.6127 44.4156 48.6127Z" fill="url(#paint31_linear)"/>
<path d="M51.531 48.2494C51.9367 47.8438 52.5944 47.8438 53 48.2494C53.4057 48.6551 53.4057 49.3128 53 49.7185C52.5944 50.1241 48.4828 53.5781 48.077 53.1725C47.6713 52.7668 51.1254 48.6551 51.531 48.2494Z" fill="white"/>
<circle cx="53" cy="48.2493" r="1.5837" fill="url(#paint32_linear)"/>
<path d="M66.767 26.1258H39.2331C36.9995 26.1258 34.9435 24.8189 33.9954 22.7964L31.4165 17.2956C31.0388 16.4898 31.3858 15.5305 32.1915 15.1527C32.9971 14.775 33.9565 15.122 34.3344 15.9277L36.9133 21.4288C37.3332 22.3246 38.2438 22.9034 39.2331 22.9034H66.7671C67.7564 22.9034 68.667 22.3246 69.0869 21.4288L71.6658 15.9277C72.0436 15.122 73.0031 14.7751 73.8086 15.1527C74.6144 15.5305 74.9613 16.4898 74.5836 17.2956L72.0047 22.7966C71.0565 24.819 69.0007 26.1258 66.767 26.1258Z" fill="url(#paint33_linear)"/>
<defs>
<linearGradient id="paint0_linear" x1="-8.26769" y1="59.7007" x2="13.5547" y2="78.6268" gradientUnits="userSpaceOnUse">
<stop stop-color="#E2EDF2"/>
<stop offset="0.146" stop-color="#D9E5EA"/>
<stop offset="0.382" stop-color="#C2CDD5"/>
<stop offset="0.678" stop-color="#9BA8B3"/>
<stop offset="1" stop-color="#697786"/>
</linearGradient>
<linearGradient id="paint1_linear" x1="8.99165" y1="80.5857" x2="12.9754" y2="80.5857" gradientUnits="userSpaceOnUse">
<stop stop-color="#E2EDF2"/>
<stop offset="0.146" stop-color="#D9E5EA"/>
<stop offset="0.382" stop-color="#C2CDD5"/>
<stop offset="0.678" stop-color="#9BA8B3"/>
<stop offset="1" stop-color="#697786"/>
</linearGradient>
<linearGradient id="paint2_linear" x1="17.6071" y1="48.5876" x2="10.3442" y2="42.0718" gradientUnits="userSpaceOnUse">
<stop stop-color="#E2EDF2" stop-opacity="0.01"/>
<stop offset="0.197" stop-color="#C5D0D8" stop-opacity="0.197"/>
<stop offset="0.564" stop-color="#93A0AC" stop-opacity="0.564"/>
<stop offset="0.844" stop-color="#758290" stop-opacity="0.844"/>
<stop offset="1" stop-color="#697786"/>
</linearGradient>
<linearGradient id="paint3_linear" x1="8.95706" y1="46.1253" x2="13.1734" y2="46.1253" gradientUnits="userSpaceOnUse">
<stop stop-color="#654E48"/>
<stop offset="1" stop-color="#503837"/>
</linearGradient>
<linearGradient id="paint4_linear" x1="15.4236" y1="45.5677" x2="14.0555" y2="39.3088" gradientUnits="userSpaceOnUse">
<stop stop-color="#3E2E28" stop-opacity="0.01"/>
<stop offset="1" stop-color="#503837"/>
</linearGradient>
<linearGradient id="paint5_linear" x1="48.1908" y1="44.7284" x2="48.1908" y2="41.5561" gradientUnits="userSpaceOnUse">
<stop stop-color="#FFE7A5"/>
<stop offset="0.216" stop-color="#FFE29C"/>
<stop offset="0.577" stop-color="#FFD482"/>
<stop offset="1" stop-color="#FFBF5C"/>
</linearGradient>
<linearGradient id="paint6_linear" x1="21.1192" y1="34.4859" x2="21.1192" y2="44.8059" gradientUnits="userSpaceOnUse">
<stop stop-color="#FF5964"/>
<stop offset="0.242" stop-color="#FF505B"/>
<stop offset="0.643" stop-color="#FF3841"/>
<stop offset="1" stop-color="#FF1D25"/>
</linearGradient>
<linearGradient id="paint7_linear" x1="20.0151" y1="34.6105" x2="20.0151" y2="30.9923" gradientUnits="userSpaceOnUse">
<stop stop-color="#FF5964"/>
<stop offset="0.242" stop-color="#FF505B"/>
<stop offset="0.643" stop-color="#FF3841"/>
<stop offset="1" stop-color="#FF1D25"/>
</linearGradient>
<linearGradient id="paint8_linear" x1="20.0151" y1="27.7133" x2="20.0151" y2="24.0951" gradientUnits="userSpaceOnUse">
<stop stop-color="#FF5964"/>
<stop offset="0.242" stop-color="#FF505B"/>
<stop offset="0.643" stop-color="#FF3841"/>
<stop offset="1" stop-color="#FF1D25"/>
</linearGradient>
<linearGradient id="paint9_linear" x1="20.0151" y1="20.8162" x2="20.0151" y2="17.198" gradientUnits="userSpaceOnUse">
<stop stop-color="#FF5964"/>
<stop offset="0.242" stop-color="#FF505B"/>
<stop offset="0.643" stop-color="#FF3841"/>
<stop offset="1" stop-color="#FF1D25"/>
</linearGradient>
<linearGradient id="paint10_linear" x1="45.5674" y1="37.1702" x2="39.7365" y2="31.3393" gradientUnits="userSpaceOnUse">
<stop stop-color="#FF1D25" stop-opacity="0.01"/>
<stop offset="1" stop-color="#FF1D25"/>
</linearGradient>
<radialGradient id="paint11_radial" cx="0" cy="0" r="1" gradientUnits="userSpaceOnUse" gradientTransform="translate(35.7951 32.172) scale(4.21458)">
<stop stop-color="#FFE7A5"/>
<stop offset="0.216" stop-color="#FFE29C"/>
<stop offset="0.577" stop-color="#FFD482"/>
<stop offset="1" stop-color="#FFBF5C"/>
</radialGradient>
<linearGradient id="paint12_linear" x1="53.1816" y1="37.171" x2="47.3521" y2="31.3401" gradientUnits="userSpaceOnUse">
<stop stop-color="#FF1D25" stop-opacity="0.01"/>
<stop offset="1" stop-color="#FF1D25"/>
</linearGradient>
<radialGradient id="paint13_radial" cx="0" cy="0" r="1" gradientUnits="userSpaceOnUse" gradientTransform="translate(43.4109 32.172) scale(4.21458)">
<stop stop-color="#FFE7A5"/>
<stop offset="0.216" stop-color="#FFE29C"/>
<stop offset="0.577" stop-color="#FFD482"/>
<stop offset="1" stop-color="#FFBF5C"/>
</radialGradient>
<linearGradient id="paint14_linear" x1="10.931" y1="7.38471" x2="10.931" y2="12.9498" gradientUnits="userSpaceOnUse">
<stop stop-color="#FF5964"/>
<stop offset="0.242" stop-color="#FF505B"/>
<stop offset="0.643" stop-color="#FF3841"/>
<stop offset="1" stop-color="#FF1D25"/>
</linearGradient>
<linearGradient id="paint15_linear" x1="54.4223" y1="28.5859" x2="59.1734" y2="28.5859" gradientUnits="userSpaceOnUse">
<stop stop-color="#FF5964"/>
<stop offset="0.242" stop-color="#FF505B"/>
<stop offset="0.643" stop-color="#FF3841"/>
<stop offset="1" stop-color="#FF1D25"/>
</linearGradient>
<linearGradient id="paint16_linear" x1="63.1852" y1="27.5889" x2="62.0349" y2="19.9685" gradientUnits="userSpaceOnUse">
<stop stop-color="#FF1D25" stop-opacity="0.01"/>
<stop offset="1" stop-color="#FF1D25"/>
</linearGradient>
<linearGradient id="paint17_linear" x1="38.7265" y1="79.7427" x2="69.172" y2="43.7474" gradientUnits="userSpaceOnUse">
<stop stop-color="#59A696"/>
<stop offset="1" stop-color="#3FC29B"/>
</linearGradient>
<linearGradient id="paint18_linear" x1="6.97505" y1="68.8106" x2="7.20298" y2="73.2917" gradientUnits="userSpaceOnUse">
<stop stop-color="#F87777"/>
<stop offset="1" stop-color="#EE4242"/>
</linearGradient>
<linearGradient id="paint19_linear" x1="21.8523" y1="47.6782" x2="52.2027" y2="75.5505" gradientUnits="userSpaceOnUse">
<stop stop-color="#6BDEC5"/>
<stop offset="1" stop-color="#39B993"/>
</linearGradient>
<linearGradient id="paint20_linear" x1="44.0958" y1="58.4471" x2="63.196" y2="77.5485" gradientUnits="userSpaceOnUse">
<stop stop-color="#E2EDF2"/>
<stop offset="0.146" stop-color="#D9E5EA"/>
<stop offset="0.382" stop-color="#C2CDD5"/>
<stop offset="0.678" stop-color="#9BA8B3"/>
<stop offset="1" stop-color="#697786"/>
</linearGradient>
<linearGradient id="paint21_linear" x1="48.0612" y1="54.2098" x2="59.9821" y2="64.0874" gradientUnits="userSpaceOnUse">
<stop stop-color="#F8F6FB"/>
<stop offset="1" stop-color="#EFDCFB"/>
</linearGradient>
<linearGradient id="paint22_linear" x1="51.7669" y1="47.8462" x2="51.7669" y2="50.3112" gradientUnits="userSpaceOnUse">
<stop stop-color="#F18D00"/>
<stop offset="1" stop-color="#ED7103"/>
</linearGradient>
<linearGradient id="paint23_linear" x1="63.8212" y1="51.3478" x2="53.0194" y2="39.2097" gradientUnits="userSpaceOnUse">
<stop stop-color="#B7C4C9" stop-opacity="0.01"/>
<stop offset="1" stop-color="#909698"/>
</linearGradient>
<linearGradient id="paint24_linear" x1="43.94" y1="55.388" x2="46.114" y2="57.3818" gradientUnits="userSpaceOnUse">
<stop stop-color="#FFC198"/>
<stop offset="1" stop-color="#FFA162"/>
</linearGradient>
<linearGradient id="paint25_linear" x1="58.2567" y1="41.4317" x2="60.4306" y2="43.4255" gradientUnits="userSpaceOnUse">
<stop stop-color="#FFC198"/>
<stop offset="1" stop-color="#FFA162"/>
</linearGradient>
<linearGradient id="paint26_linear" x1="57.9632" y1="55.388" x2="60.1372" y2="57.3818" gradientUnits="userSpaceOnUse">
<stop stop-color="#FFC198"/>
<stop offset="1" stop-color="#FFA162"/>
</linearGradient>
<linearGradient id="paint27_linear" x1="43.9399" y1="41.3647" x2="46.1138" y2="43.3585" gradientUnits="userSpaceOnUse">
<stop stop-color="#FFC198"/>
<stop offset="1" stop-color="#FFA162"/>
</linearGradient>
<linearGradient id="paint28_linear" x1="52.4298" y1="38.4982" x2="53.5026" y2="38.709" gradientUnits="userSpaceOnUse">
<stop stop-color="#FFC198"/>
<stop offset="1" stop-color="#FFA162"/>
</linearGradient>
<linearGradient id="paint29_linear" x1="52.4298" y1="58.3303" x2="53.5026" y2="58.5411" gradientUnits="userSpaceOnUse">
<stop stop-color="#FFC198"/>
<stop offset="1" stop-color="#FFA162"/>
</linearGradient>
<linearGradient id="paint30_linear" x1="60.2552" y1="48.2847" x2="60.5244" y2="49.4367" gradientUnits="userSpaceOnUse">
<stop stop-color="#FFC198"/>
<stop offset="1" stop-color="#FFA162"/>
</linearGradient>
<linearGradient id="paint31_linear" x1="40.4232" y1="48.2847" x2="40.6924" y2="49.4367" gradientUnits="userSpaceOnUse">
<stop stop-color="#FFC198"/>
<stop offset="1" stop-color="#FFA162"/>
</linearGradient>
<linearGradient id="paint32_linear" x1="51.6697" y1="48.5385" x2="53.288" y2="50.1568" gradientUnits="userSpaceOnUse">
<stop stop-color="#FF5964"/>
<stop offset="0.242" stop-color="#FF505B"/>
<stop offset="0.643" stop-color="#FF3841"/>
<stop offset="1" stop-color="#FF1D25"/>
</linearGradient>
<linearGradient id="paint33_linear" x1="47.0633" y1="22.4186" x2="47.0633" y2="25.457" gradientUnits="userSpaceOnUse">
<stop stop-color="#FFE7A5"/>
<stop offset="0.216" stop-color="#FFE29C"/>
<stop offset="0.577" stop-color="#FFD482"/>
<stop offset="1" stop-color="#FFBF5C"/>
</linearGradient>
</defs>
</svg>
