<svg width="76" height="76" viewBox="0 0 76 76" fill="none" xmlns="http://www.w3.org/2000/svg">
<path d="M71.8141 75.7803L3.9524 75.7704C1.76938 75.7704 -0.00197738 73.9991 1.65669e-06 71.816L0.00791832 3.95438C0.00989736 1.76938 1.77927 0 3.96427 0L71.8259 0.00989581C74.0109 0.00989581 75.7803 1.78125 75.7803 3.96427L75.7704 71.8279C75.7704 74.0109 73.9991 75.7803 71.8141 75.7803Z" fill="url(#paint0_linear)"/>
<path d="M26.4832 28.1991L66.114 67.8398L66.8621 68.5029C67.731 69.2728 69.0372 69.2728 69.9061 68.5048L69.9081 68.5029C70.7769 67.733 72.0832 67.733 72.952 68.5029C73.7477 69.2094 74.9134 69.2668 75.7704 68.677L75.7763 25.7153L50.0748 0.00588544L25.7153 0.00390625L25.7113 26.4792C25.7113 27.1363 25.9923 27.7637 26.4832 28.1991Z" fill="url(#paint1_linear)"/>
<path d="M50.0748 0.00786458L50.0709 26.4832C50.0709 27.1403 49.7898 27.7657 49.297 28.2011L48.5449 28.8661C47.6781 29.636 46.3718 29.634 45.503 28.8661L45.501 28.8641C44.6321 28.0942 43.3259 28.0942 42.457 28.8641C41.5882 29.634 40.2819 29.634 39.4131 28.8641L39.4111 28.8621C38.5422 28.0922 37.236 28.0942 36.3671 28.8621C35.4983 29.632 34.192 29.632 33.3232 28.8621C32.4543 28.0922 31.1481 28.0922 30.2792 28.8602L30.2772 28.8621C29.4084 29.632 28.1021 29.632 27.2333 28.8621L26.4852 28.1971C25.9923 27.7617 25.7113 27.1363 25.7113 26.4792L25.7153 0.00390625L50.0748 0.00786458Z" fill="url(#paint2_linear)"/>
<path d="M6.13147 64.8217H22.8475V69.6409H6.13147V64.8217Z" fill="url(#paint3_linear)"/>
<path d="M6.13342 54.6012H32.6543V59.4205H6.13342V54.6012Z" fill="url(#paint4_linear)"/>
<defs>
<linearGradient id="paint0_linear" x1="-32.2421" y1="35.0661" x2="37.8902" y2="110.846" gradientUnits="userSpaceOnUse">
<stop stop-color="#F7D0AD"/>
<stop offset="1" stop-color="#E89F7B"/>
</linearGradient>
<linearGradient id="paint1_linear" x1="79.8341" y1="13.5597" x2="31.9977" y2="-11.5757" gradientUnits="userSpaceOnUse">
<stop stop-color="#FFC77E" stop-opacity="0.01"/>
<stop offset="0.1923" stop-color="#DE7B09" stop-opacity="0.108173"/>
<stop offset="0.503695" stop-color="#FF9A50" stop-opacity="0.501961"/>
<stop offset="0.887854" stop-color="#FFBC86" stop-opacity="0.886275"/>
<stop offset="1" stop-color="#FFECAD"/>
</linearGradient>
<linearGradient id="paint2_linear" x1="12.0362" y1="6.05463" x2="41.12" y2="33.6164" gradientUnits="userSpaceOnUse">
<stop stop-color="#F8F6FB"/>
<stop offset="1" stop-color="#FBF1DC"/>
</linearGradient>
<linearGradient id="paint3_linear" x1="5.6994" y1="68.0328" x2="8.22022" y2="74.487" gradientUnits="userSpaceOnUse">
<stop stop-color="#F8F6FB"/>
<stop offset="1" stop-color="#FBE8DC"/>
</linearGradient>
<linearGradient id="paint4_linear" x1="5.44793" y1="57.8124" x2="7.17453" y2="64.826" gradientUnits="userSpaceOnUse">
<stop stop-color="#F8F6FB"/>
<stop offset="1" stop-color="#FBE8DC"/>
</linearGradient>
</defs>
</svg>
