<svg width="320" height="212" viewBox="0 0 320 212" fill="none" xmlns="http://www.w3.org/2000/svg">
<rect opacity="0.5" x="14.5709" y="32.5291" width="291.419" height="168.254" fill="url(#paint0_linear)"/>
<mask id="mask0" mask-type="alpha" maskUnits="userSpaceOnUse" x="14" y="32" width="292" height="169">
<rect x="14.5709" y="32.5291" width="291.419" height="168.254" fill="white"/>
</mask>
<g mask="url(#mask0)">
<path opacity="0.31064" fill-rule="evenodd" clip-rule="evenodd" d="M314.256 19.6296C314.256 19.6296 198.249 172.18 -4.90368 192.09C-208.056 212 -4.90368 216.487 -4.90368 216.487L326.305 223.497L320.42 42.0635L314.256 19.6296Z" fill="url(#paint1_linear)"/>
</g>
<path fill-rule="evenodd" clip-rule="evenodd" d="M109.133 146.256C99.8353 155.191 120.041 147.762 114.673 151.832C114.673 151.832 118.243 155.105 125.149 160.608C134.522 167.948 145.494 170.091 156.821 154.418C167.429 141.331 175.042 124.095 184.696 109.298C188.714 103.244 189.975 95.5694 186.332 89.1579C182.689 82.7464 175.496 79.2246 168.207 80.2829C160.919 81.3413 156.776 86.8489 153.345 93.9467L135.899 129.626C129.995 141.703 123.903 149.349 109.133 146.256Z" fill="url(#paint2_linear)"/>
<path opacity="0.376651" fill-rule="evenodd" clip-rule="evenodd" d="M138.347 167.458C138.976 166.677 139.601 165.852 140.218 164.983C141.158 163.597 142.085 162.218 143.002 160.846C142.67 159.143 143.046 157.31 144.191 155.831L144.421 155.533C144.779 155.072 145.188 154.675 145.633 154.344C145.79 153.904 145.992 153.492 146.234 153.111C146.289 152.987 146.349 152.866 146.412 152.747C146.636 152.199 146.934 151.693 147.294 151.239L147.589 150.858C147.753 150.566 147.937 150.303 148.13 150.046C148.167 149.981 148.203 149.917 148.24 149.855C148.363 149.575 148.511 149.313 148.656 149.044C148.812 148.754 148.989 148.482 149.182 148.227L149.268 148.075C149.419 147.646 149.605 147.246 149.844 146.858L150.082 146.455C150.291 146.104 150.527 145.803 150.775 145.483C151.346 144.744 152.052 144.17 152.829 143.768C152.896 143.676 152.963 143.585 153.032 143.498C153.227 143.236 153.38 142.96 153.585 142.697L154.873 141.033C155.139 140.608 155.421 140.234 155.72 139.85C155.901 139.485 156.079 139.153 156.318 138.818C156.49 138.476 156.69 138.155 156.913 137.86L156.981 137.749C157.196 137.244 157.47 136.782 157.791 136.367C157.997 135.979 158.225 135.636 158.468 135.262C158.562 135.117 158.662 134.976 158.767 134.84L158.901 134.667C159.376 134.055 159.942 133.555 160.566 133.173C162.19 130.458 163.767 127.772 165.295 125.118L153.256 124.281C142.704 132.268 136.392 140.124 136.372 148.185C136.092 156.109 133.284 162.561 129.393 166.837L138.347 167.458Z" fill="url(#paint3_linear)"/>
<path fill-rule="evenodd" clip-rule="evenodd" d="M171.173 81.0186C166.594 83.2174 163.689 86.5523 162.459 91.0232C157.165 111.623 150.998 144.531 143.957 189.747C143.302 193.506 143.085 200.359 146.321 200.602C158.729 201.534 171.137 200.292 183.855 200.602C198.164 200.952 213.24 200.503 225.849 200.783C229.33 200.861 226.638 199.183 226.707 196.038C227.464 129.784 227.835 97.274 227.835 97.274C229.693 89.7256 226.564 84.6298 218.449 81.9893C194.276 85.9915 178.517 85.6683 171.173 81.0186Z" fill="url(#paint4_linear)"/>
<mask id="mask1" mask-type="alpha" maskUnits="userSpaceOnUse" x="143" y="81" width="86" height="120">
<path fill-rule="evenodd" clip-rule="evenodd" d="M171.173 81.0186C166.594 83.2174 163.689 86.5523 162.459 91.0232C157.165 111.623 150.998 144.531 143.957 189.747C143.302 193.506 143.085 200.359 146.321 200.602C158.729 201.534 171.137 200.292 183.855 200.602C198.164 200.952 213.24 200.503 225.849 200.783C229.33 200.861 226.638 199.183 226.707 196.038C227.464 129.784 227.835 97.274 227.835 97.274C229.693 89.7256 226.564 84.6298 218.449 81.9893C194.276 85.9915 178.517 85.6683 171.173 81.0186Z" fill="white"/>
</mask>
<g mask="url(#mask1)">
<path opacity="0.400507" fill-rule="evenodd" clip-rule="evenodd" d="M232 154.569C223.144 119.159 218.717 101.453 218.717 101.453C212.738 98.6353 205.664 99.6124 200.669 103.943C195.675 108.276 191.884 115.573 193.813 121.903C198.171 135.847 197.206 157.421 180.845 162.448C207.369 171.98 228.835 169.186 232 154.569ZM186.666 164.31C206.683 174.694 220.815 180.082 229.06 180.474C229.06 180.474 228.985 185.799 228.831 196.447C228.403 201.715 219.202 206.32 203.131 211.568C215.279 200.168 195.409 183.613 179.823 177.143C184.693 167.405 186.975 163.128 186.666 164.31Z" fill="url(#paint5_linear)"/>
</g>
<path fill-rule="evenodd" clip-rule="evenodd" d="M212.191 80.6545C213.995 80.585 215.999 80.762 218.449 81.9892C201.633 105.533 170.47 104.14 171.173 81.0184C172.656 80.0712 173.325 79.8896 174.494 79.8806C175.867 81.3029 178.629 82.4299 180.696 82.7504C181.185 82.866 181.69 82.9446 182.209 82.9807L193.783 83.7844C194.482 83.8332 195.115 83.8025 195.75 83.7068C196.138 83.6706 196.508 83.6056 196.891 83.537C198.357 83.2769 199.681 82.6863 200.801 81.8555C200.897 81.8835 200.992 81.9106 201.089 81.935C202.037 82.3098 203.02 82.5175 204.003 82.568L205.856 82.6963C208.17 82.857 210.466 81.9431 212.191 80.6545Z" fill="white"/>
<path fill-rule="evenodd" clip-rule="evenodd" d="M181.786 72.94C197.153 74.0643 204.836 74.6269 204.836 74.6269C203.92 78.5551 206.371 80.5643 212.191 80.6546C198.783 99.4277 173.934 98.317 174.494 79.8807C178.495 79.7741 180.924 77.4606 181.786 72.94Z" fill="url(#paint6_linear)"/>
<mask id="mask2" mask-type="alpha" maskUnits="userSpaceOnUse" x="174" y="72" width="39" height="23">
<path fill-rule="evenodd" clip-rule="evenodd" d="M181.786 72.94C197.153 74.0643 204.836 74.6269 204.836 74.6269C203.92 78.5551 206.371 80.5643 212.191 80.6546C198.783 99.4277 173.934 98.317 174.494 79.8807C178.495 79.7741 180.924 77.4606 181.786 72.94Z" fill="white"/>
</mask>
<g mask="url(#mask2)">
<path opacity="0.290574" fill-rule="evenodd" clip-rule="evenodd" d="M206.27 75.6235C199.329 75.3663 192.411 74.6792 185.552 73.5663C190.279 80.7908 199.391 83.5869 207.265 80.2281C206.356 78.8822 205.998 77.2307 206.27 75.6235Z" fill="url(#paint7_linear)"/>
</g>
<path fill-rule="evenodd" clip-rule="evenodd" d="M187.13 25.8333C218.834 20.3131 229.841 28.9858 220.15 51.8532C216.629 77.9138 193.983 80.7999 181.288 72.8379C171.891 66.9447 168.662 54.8676 178.939 43.1038C180.305 41.4277 180.499 40.4759 180.819 37.756C181.707 31.1106 183.81 27.1364 187.13 25.8333Z" fill="url(#paint8_linear)"/>
<path fill-rule="evenodd" clip-rule="evenodd" d="M227.426 20.666C228.226 21.0738 228.974 21.5139 229.667 21.9825C229.87 22.1195 230.068 22.259 230.262 22.4007C230.303 22.4306 230.343 22.4606 230.384 22.4907C230.431 22.5259 230.478 22.5612 230.525 22.5967L230.525 22.5968C232.232 23.8947 233.561 25.3816 234.493 26.9929C234.493 26.9931 234.492 26.9933 234.492 26.9935C237.923 32.926 235.955 40.5524 227.564 46.6883C216.133 55.1055 210.148 53.1613 214.758 49.9167C217.07 48.3336 218.625 45.7787 219.067 42.9503C219.067 42.9503 219.067 42.9503 219.067 42.9503C219.155 42.3878 219.199 41.8152 219.196 41.2364C219.178 37.748 217.459 34.5765 214.668 32.8779C213.225 33.4351 211.998 33.2978 210.99 32.4671L210.99 32.4663C210.61 32.153 210.261 31.7411 209.943 31.2305C204.881 32.3331 201.917 31.5719 201.052 28.9486C194.344 31.6243 188.485 30.8296 182.906 27.9182C165.107 18.8292 171.284 -3.49914 188.605 5.28645C190.799 -2.08861 200.542 -1.84299 211.723 9.02951C216.366 2.82207 225.268 6.83966 227.426 20.666Z" fill="url(#paint9_linear)"/>
<path fill-rule="evenodd" clip-rule="evenodd" d="M203.668 41.7268C204.679 41.9172 205.343 42.8923 205.151 43.9031C204.961 44.9139 203.988 45.5784 202.978 45.3879C201.969 45.1975 201.303 44.2224 201.495 43.2116C201.686 42.1997 202.659 41.5363 203.668 41.7268Z" fill="#00545B"/>
<path fill-rule="evenodd" clip-rule="evenodd" d="M187.547 36.0497C188.557 36.2402 189.22 37.2153 189.03 38.2261C188.839 39.2369 187.866 39.9014 186.856 39.7109C185.848 39.5194 185.182 38.5454 185.373 37.5346C185.564 36.5237 186.536 35.8592 187.547 36.0497Z" fill="#00545B"/>
<path fill-rule="evenodd" clip-rule="evenodd" d="M211.112 40.7298C211.841 41.8116 212.968 41.7665 213.108 40.7487C213.394 37.3001 211.058 34.7156 206.098 32.998C204.883 32.5962 203.63 32.9917 203.079 34.0085C202.528 35.0244 202.803 36.4575 203.97 36.9217C208.253 38.7377 210.634 40.0074 211.112 40.7298Z" fill="url(#paint10_linear)"/>
<path fill-rule="evenodd" clip-rule="evenodd" d="M185.084 30.4883C183.939 30.8413 183.159 30.1568 183.645 29.3468C185.429 26.7118 188.591 26.2142 193.132 27.8541C194.233 28.2686 194.903 29.2773 194.711 30.3239C194.52 31.3705 193.496 32.2365 192.392 31.8934C188.28 30.7167 185.844 30.248 185.084 30.4883Z" fill="url(#paint11_linear)"/>
<path fill-rule="evenodd" clip-rule="evenodd" d="M193.55 41.322C195.944 39.2875 197.448 40.4867 196.344 43.5805C196.344 43.5805 195.722 45.3757 194.481 48.9662C195.141 49.0285 195.749 49.4773 196.047 50.1211C196.343 50.7641 196.272 51.4865 195.866 51.976C195.46 52.4654 194.791 52.6343 194.147 52.4103C193.474 51.9507 192.651 51.9001 192.022 52.2794C190.855 52.8275 189.415 52.6171 188.287 51.7321C187.159 50.8472 186.532 49.4357 186.657 48.0703C186.784 46.705 187.643 45.6132 188.888 45.2375C191.996 42.6269 193.55 41.322 193.55 41.322Z" fill="url(#paint12_linear)"/>
<path fill-rule="evenodd" clip-rule="evenodd" d="M197.771 57.3336C198.663 56.9182 199.301 57.6795 198.458 58.578C191.438 66.9075 182.091 64.8378 182.695 54.8421C182.762 53.3341 183.479 52.9666 183.824 53.9861C184.571 56.2527 186.487 57.8944 189.124 58.5265C191.761 59.1595 194.887 58.7279 197.771 57.3336Z" fill="white"/>
<path fill-rule="evenodd" clip-rule="evenodd" d="M217.679 50.8091C209.397 59.1431 213.439 65.4942 223.987 60.7749C234.007 56.1929 225.888 42.7604 217.679 50.8091Z" fill="url(#paint13_linear)"/>
<path fill-rule="evenodd" clip-rule="evenodd" d="M219.841 53.8793C215.258 58.4929 217.493 62.0084 223.333 59.3959C228.879 56.8602 224.386 49.4237 219.841 53.8793Z" fill="#F89B71"/>
<path fill-rule="evenodd" clip-rule="evenodd" d="M157.732 150.535C164.695 158.674 168.175 162.744 168.175 162.744C168.175 162.744 180.684 162.272 205.701 161.329C209.053 161.85 212.388 168.675 215.707 181.804C215.707 181.804 199.967 180.001 168.489 176.396C162.517 175.947 158.395 173.83 156.125 170.047C150.034 163.386 146.988 160.055 146.988 160.055C145.847 159.866 144.682 160.215 143.831 161C142.98 161.784 142.537 162.918 142.63 164.073C142.7 164.882 141.88 165.435 141.141 165.678C140.4 165.92 139.43 165.959 138.992 165.263C134.593 156.949 133.512 151.487 136.122 149.786C141.519 146.567 145.304 145.171 147.478 145.597C152.415 146.625 155.832 148.272 157.732 150.535Z" fill="url(#paint14_linear)"/>
<mask id="mask3" mask-type="alpha" maskUnits="userSpaceOnUse" x="134" y="145" width="82" height="37">
<path fill-rule="evenodd" clip-rule="evenodd" d="M157.732 150.535C164.695 158.674 168.175 162.744 168.175 162.744C168.175 162.744 180.684 162.272 205.701 161.329C209.053 161.85 212.388 168.675 215.707 181.804C215.707 181.804 199.967 180.001 168.489 176.396C162.517 175.947 158.395 173.83 156.125 170.047C150.034 163.386 146.988 160.055 146.988 160.055C145.847 159.866 144.682 160.215 143.831 161C142.98 161.784 142.537 162.918 142.63 164.073C142.7 164.882 141.88 165.435 141.141 165.678C140.4 165.92 139.43 165.959 138.992 165.263C134.593 156.949 133.512 151.487 136.122 149.786C141.519 146.567 145.304 145.171 147.478 145.597C152.415 146.625 155.832 148.272 157.732 150.535Z" fill="white"/>
</mask>
<g mask="url(#mask3)">
<path fill-rule="evenodd" clip-rule="evenodd" d="M148.691 160.707C146.931 158.078 144.646 158.8 146.239 160.668L155.439 170.545C158.677 174.576 163.738 176.891 170.621 177.489C204.398 181.304 221.286 183.213 221.286 183.213C221.81 178.386 220.377 172.031 215.845 170.343C207.108 169.236 199.796 173.039 191.278 174.695C183.006 176.227 173.073 176.324 169.311 172.549C166.113 169.361 162.776 167.488 159.299 166.934C154.192 165.676 150.656 163.6 148.691 160.707Z" fill="url(#paint15_linear)"/>
</g>
<path fill-rule="evenodd" clip-rule="evenodd" d="M205.847 160.059C204.002 172.833 214.898 175.825 213.165 182.341C213.165 182.341 217.991 182.723 226.814 182.807C238.712 182.821 244.057 175.796 243.978 157.37C244.307 140.516 243.735 123.281 242.262 105.667C241.712 98.4182 237.994 91.5895 231.184 88.7784C224.376 85.9673 216.542 87.6207 211.444 92.945C206.347 98.2701 206.462 105.165 208.115 112.876L216.268 151.756C217.732 158.738 214.025 159.341 205.847 160.059Z" fill="url(#paint16_linear)"/>
<mask id="mask4" mask-type="alpha" maskUnits="userSpaceOnUse" x="205" y="87" width="40" height="96">
<path fill-rule="evenodd" clip-rule="evenodd" d="M205.847 160.059C204.002 172.833 214.898 175.825 213.165 182.341C213.165 182.341 217.991 182.723 226.814 182.807C238.712 182.821 244.057 175.796 243.978 157.37C244.307 140.516 243.735 123.281 242.262 105.667C241.712 98.4182 237.994 91.5895 231.184 88.7784C224.376 85.9673 216.542 87.6207 211.444 92.945C206.347 98.2701 206.462 105.165 208.115 112.876L216.268 151.756C217.732 158.738 214.025 159.341 205.847 160.059Z" fill="white"/>
</mask>
<g mask="url(#mask4)">
<path opacity="0.32373" fill-rule="evenodd" clip-rule="evenodd" d="M230.179 189.544C227.483 191.468 227.644 192.483 230.146 192.529C241.392 192.458 246.98 182.537 247.429 166.811C247.441 164.775 247.447 162.755 247.445 160.747C245.962 159.253 245.104 157.148 245.261 154.879L245.292 154.421C245.341 153.714 245.486 153.037 245.712 152.4C245.573 151.849 245.5 151.296 245.484 150.747C245.458 150.585 245.436 150.421 245.419 150.26C245.275 149.555 245.235 148.842 245.291 148.139L245.33 147.555C245.298 147.149 245.307 146.76 245.328 146.367C245.321 146.279 245.316 146.19 245.312 146.102C245.246 145.735 245.219 145.369 245.184 145.002C245.145 144.602 245.14 144.207 245.162 143.82L245.146 143.608C245.01 143.072 244.928 142.542 244.906 141.988L244.874 141.421C244.847 140.924 244.882 140.46 244.917 139.97C244.994 138.836 245.319 137.778 245.83 136.845C245.834 136.707 245.841 136.57 245.853 136.434C245.872 136.038 245.84 135.655 245.869 135.251L246.045 132.698C246.027 132.089 246.058 131.521 246.1 130.931C246.036 130.439 245.993 129.984 246.006 129.484C245.949 129.022 245.935 128.563 245.961 128.113L245.954 127.954C245.83 127.3 245.794 126.646 245.839 126.01C245.784 125.479 245.783 124.978 245.776 124.436C245.773 124.224 245.779 124.015 245.793 123.807L245.811 123.542C245.876 122.601 246.11 121.714 246.479 120.905C246.205 115.439 245.871 110.103 245.479 104.895C244.636 96.4828 241.618 90.0391 236.238 86.8672C233.587 85.7214 232.976 86.3996 234.402 88.902C238.005 95.2985 239.635 101.389 236.863 107.134C228.586 126.912 225.703 142.633 232.231 152.461C241.592 167.614 238.846 183.55 230.179 189.544Z" fill="url(#paint17_linear)"/>
</g>
<path fill-rule="evenodd" clip-rule="evenodd" d="M93.6771 159.519C96.9588 159.164 101.784 161.363 104.401 164.404L109.596 170.443C112.214 173.485 111.67 176.264 108.389 176.618C105.108 176.972 100.283 174.774 97.6665 171.732L92.4699 165.694C89.8536 162.652 90.3963 159.873 93.6771 159.519Z" fill="url(#paint18_linear)"/>
<path fill-rule="evenodd" clip-rule="evenodd" d="M82.9522 145.299C80.3622 145.549 79.297 148.752 81.2215 150.503L110.339 177.002H137.497C138.602 177.002 139.497 176.107 139.497 175.002V170.701C139.497 170.163 139.28 169.648 138.896 169.272L114.24 145.137C112.553 143.486 110.224 142.664 107.874 142.891L82.9522 145.299Z" fill="url(#paint19_linear)"/>
<path fill-rule="evenodd" clip-rule="evenodd" d="M88.0318 149.052C85.4231 149.289 84.3503 152.522 86.2995 154.272L110.699 176.18C111.066 176.509 111.542 176.692 112.035 176.692H134.492C136.298 176.692 137.179 174.487 135.87 173.242L109.791 148.441C108.956 147.647 107.82 147.251 106.672 147.356L88.0318 149.052Z" fill="url(#paint20_linear)"/>
<path fill-rule="evenodd" clip-rule="evenodd" d="M94.6377 162.626C98.5459 162.316 104.801 165.04 108.54 168.681L112.719 172.753C116.457 176.394 116.319 179.628 112.411 179.939C108.503 180.25 102.247 177.524 98.509 173.883L94.3293 169.813C90.5915 166.171 90.7294 162.937 94.6377 162.626Z" fill="url(#paint21_linear)"/>
<path fill-rule="evenodd" clip-rule="evenodd" d="M46.5149 76.2751H111.524V18.5079H46.5149V76.2751Z" fill="url(#paint22_linear)"/>
<mask id="mask5" mask-type="alpha" maskUnits="userSpaceOnUse" x="29" y="17" width="83" height="56">
<path fill-rule="evenodd" clip-rule="evenodd" d="M29.7023 17.1724H111.524V72.6773H29.7023V17.1724Z" fill="white"/>
</mask>
<g mask="url(#mask5)">
<path fill-rule="evenodd" clip-rule="evenodd" d="M111.524 16.9168L105.974 17.3189L46.1699 17.1724C46.1699 17.1724 43.4379 55.3802 31.8275 72.6213L100.366 73.4274L111.524 16.9168Z" fill="url(#paint23_linear)"/>
</g>
<path fill-rule="evenodd" clip-rule="evenodd" d="M54.1626 27.4483L52.2355 39.0406L63.7916 39.462L65.4179 28.0282L54.1626 27.4483Z" fill="url(#paint24_linear)"/>
<path fill-rule="evenodd" clip-rule="evenodd" d="M51.9234 41.7209L49.0544 53.3133L60.8062 53.6732L63.0483 41.9918L51.9234 41.7209Z" fill="url(#paint25_linear)"/>
<path fill-rule="evenodd" clip-rule="evenodd" d="M48.3514 56.4559L45.3821 68.0482L57.7466 68.4082L60.2178 56.9489L48.3514 56.4559Z" fill="url(#paint26_linear)"/>
<path fill-rule="evenodd" clip-rule="evenodd" d="M68.8617 28.1425L67.1014 39.1399L78.0223 39.5097L79.1411 28.517L68.8617 28.1425Z" fill="url(#paint27_linear)"/>
<path fill-rule="evenodd" clip-rule="evenodd" d="M66.1063 42.3405L64.2008 53.5511L74.8071 53.5969L76.7904 42.5663L66.1063 42.3405Z" fill="url(#paint28_linear)"/>
<path fill-rule="evenodd" clip-rule="evenodd" d="M63.7764 57.1177L61.6713 67.9869L72.5622 68.3563L74.249 57.0727L63.7764 57.1177Z" fill="url(#paint29_linear)"/>
<path fill-rule="evenodd" clip-rule="evenodd" d="M82.3153 28.271L81.0934 39.1401L92.0143 39.5095L92.7847 28.2263L82.3153 28.271Z" fill="url(#paint30_linear)"/>
<path fill-rule="evenodd" clip-rule="evenodd" d="M80.0097 42.5437L77.9042 53.4132L88.7952 53.7826L90.4823 42.4989L80.0097 42.5437Z" fill="url(#paint31_linear)"/>
<path fill-rule="evenodd" clip-rule="evenodd" d="M77.0901 57.2786L75.0725 68.1481L85.1783 68.5175L86.8103 57.2339L77.0901 57.2786Z" fill="url(#paint32_linear)"/>
<path fill-rule="evenodd" clip-rule="evenodd" d="M57.9765 18.5086C59.1112 18.5086 60.0312 19.4368 60.0312 20.5818C60.0312 21.7267 59.1112 22.6546 57.9765 22.6546C56.8421 22.6546 55.9222 21.7267 55.9222 20.5818C55.9222 19.4368 56.8421 18.5086 57.9765 18.5086Z" fill="url(#paint33_linear)"/>
<path fill-rule="evenodd" clip-rule="evenodd" d="M71.6269 18.6845C72.7612 18.6845 73.6812 19.6128 73.6812 20.7577C73.6812 21.9026 72.7612 22.8305 71.6269 22.8305C70.4922 22.8305 69.5722 21.9026 69.5722 20.7577C69.5722 19.6128 70.4922 18.6845 71.6269 18.6845Z" fill="url(#paint34_linear)"/>
<path fill-rule="evenodd" clip-rule="evenodd" d="M85.719 18.5824C86.8537 18.5824 87.7737 19.5103 87.7737 20.6556C87.7737 21.8006 86.8537 22.7284 85.719 22.7284C84.5846 22.7284 83.6647 21.8006 83.6647 20.6556C83.6647 19.5103 84.5846 18.5824 85.719 18.5824Z" fill="url(#paint35_linear)"/>
<path fill-rule="evenodd" clip-rule="evenodd" d="M99.4982 18.5615C100.633 18.5615 101.552 19.4897 101.552 20.6346C101.552 21.7796 100.633 22.7075 99.4982 22.7075C98.3634 22.7075 97.4435 21.7796 97.4435 20.6346C97.4435 19.4897 98.3634 18.5615 99.4982 18.5615Z" fill="url(#paint36_linear)"/>
<mask id="mask6" mask-type="alpha" maskUnits="userSpaceOnUse" x="50" y="12" width="10" height="11">
<path fill-rule="evenodd" clip-rule="evenodd" d="M50.7056 12.9711H59.6766V22.6703H50.7056V12.9711Z" fill="white"/>
</mask>
<g mask="url(#mask6)">
<path fill-rule="evenodd" clip-rule="evenodd" d="M59.662 17.3414L57.1883 17.2945C57.1883 17.2945 56.842 15.5991 55.1891 15.8631C53.5359 16.1274 53.4202 17.5745 53.4814 18.1075C53.5939 19.0856 54.97 20.6098 56.9847 19.054C56.9847 19.054 58.2419 18.8085 58.8606 20.1247C59.1813 20.8054 58.6653 21.165 58.0171 21.806C55.9667 23.8312 50.4506 22.1936 50.7147 17.9828C51.0383 12.8282 55.0489 12.6486 56.6175 13.1653C58.4275 13.7612 59.8364 15.6595 59.662 17.3414Z" fill="url(#paint37_linear)"/>
</g>
<path fill-rule="evenodd" clip-rule="evenodd" d="M73.7179 17.5407L71.2442 17.4938C71.2442 17.4938 70.8975 15.7983 69.245 16.0623C67.5917 16.3263 67.4757 17.7737 67.5373 18.3067C67.6497 19.2848 69.0255 20.809 71.0406 19.2532C71.0406 19.2532 72.2974 19.0078 72.9165 20.3236C73.2368 21.0046 72.7212 21.3642 72.0726 22.0048C70.0226 24.03 64.5061 22.3928 64.7706 18.182C65.0942 13.0274 69.1048 12.8478 70.6734 13.3645C72.4834 13.9604 73.8919 15.8583 73.7179 17.5407Z" fill="url(#paint38_linear)"/>
<path fill-rule="evenodd" clip-rule="evenodd" d="M87.5826 17.4576L85.1089 17.4107C85.1089 17.4107 84.7626 15.7152 83.1097 15.9792C81.4564 16.2432 81.3408 17.6906 81.4024 18.2233C81.5145 19.2017 82.8906 20.7255 84.9053 19.1701C84.9053 19.1701 86.1625 18.9243 86.7816 20.2405C87.1019 20.9215 86.5859 21.2811 85.9377 21.9217C83.8873 23.9469 78.3712 22.3097 78.6353 18.0989C78.9593 12.9443 82.9699 12.7647 84.5381 13.281C86.3481 13.8773 87.757 15.7752 87.5826 17.4576Z" fill="url(#paint39_linear)"/>
<path fill-rule="evenodd" clip-rule="evenodd" d="M101.333 17.3592L98.8588 17.3123C98.8588 17.3123 98.5125 15.6169 96.8596 15.8808C95.2064 16.1448 95.0907 17.5923 95.152 18.1249C95.2644 19.1033 96.6405 20.6275 98.6552 19.0717C98.6552 19.0717 99.9125 18.8263 100.531 20.1421C100.852 20.8231 100.336 21.1827 99.6876 21.8233C97.6373 23.8485 92.1211 22.2113 92.3853 18.0006C92.7089 12.846 96.7198 12.6663 98.288 13.1826C100.098 13.7789 101.507 15.6769 101.333 17.3592Z" fill="url(#paint40_linear)"/>
<path d="M130.018 68.7035C130.018 78.7704 121.863 86.9312 111.804 86.9312C101.745 86.9312 93.5902 78.7704 93.5902 68.7035C93.5902 58.637 101.745 50.4762 111.804 50.4762C121.863 50.4762 130.018 58.637 130.018 68.7035Z" fill="url(#paint41_linear)"/>
<path d="M127.215 68.984C127.215 77.3474 120.441 84.127 112.084 84.127C103.727 84.127 96.9528 77.3474 96.9528 68.984C96.9528 60.6208 103.727 53.8413 112.084 53.8413C120.441 53.8413 127.215 60.6208 127.215 68.984Z" fill="url(#paint42_linear)"/>
<path d="M111.749 59.4046C111.286 59.4046 110.912 58.9902 110.912 58.4788V57.0105C110.912 56.4991 111.286 56.0847 111.749 56.0847C112.211 56.0847 112.586 56.4991 112.586 57.0105V58.4788C112.586 58.9902 112.211 59.4046 111.749 59.4046Z" fill="url(#paint43_linear)"/>
<path d="M111.749 81.8144C111.286 81.8144 110.912 81.4 110.912 80.8886V79.4202C110.912 78.9089 111.286 78.4944 111.749 78.4944C112.211 78.4944 112.586 78.9089 112.586 79.4202V80.8886C112.586 81.4 112.211 81.8144 111.749 81.8144Z" fill="url(#paint44_linear)"/>
<path d="M120.955 68.9494C120.955 68.4911 121.373 68.1195 121.888 68.1195H123.369C123.885 68.1195 124.303 68.4911 124.303 68.9494C124.303 69.4079 123.885 69.7795 123.369 69.7795H121.888C121.373 69.7795 120.955 69.4079 120.955 68.9494V68.9494Z" fill="url(#paint45_linear)"/>
<path d="M99.1945 68.9494C99.1945 68.4911 99.6124 68.1195 100.128 68.1195H101.609C102.124 68.1195 102.542 68.4911 102.542 68.9494C102.542 69.4079 102.124 69.7795 101.609 69.7795H100.128C99.6124 69.7795 99.1945 69.4079 99.1945 68.9494Z" fill="url(#paint46_linear)"/>
<path opacity="0.48098" d="M111.826 60.51C111.748 60.3471 111.584 60.2346 111.393 60.2346C111.127 60.2346 110.912 60.4527 110.912 60.7216V68.8415C110.912 68.9709 110.962 69.0947 111.052 69.1863L111.277 69.4129L120.655 78.9094C122.31 77.3472 123.579 75.3717 124.303 73.1449L111.826 60.51Z" fill="url(#paint47_linear)"/>
<path d="M115.441 73.0995C115.315 73.0995 115.189 73.0529 115.093 72.9592L111.056 69.0329C110.963 68.9428 110.912 68.8212 110.912 68.694V60.7133C110.912 60.4489 111.132 60.2346 111.404 60.2346C111.676 60.2346 111.897 60.4489 111.897 60.7133V68.4958L115.789 72.282C115.982 72.4689 115.982 72.7722 115.789 72.9592C115.693 73.0529 115.567 73.0995 115.441 73.0995Z" fill="url(#paint48_linear)" stroke="#F8C866"/>
<path d="M113.004 68.9494C113.004 69.6371 112.442 70.1945 111.749 70.1945C111.055 70.1945 110.493 69.6371 110.493 68.9494C110.493 68.262 111.055 67.7046 111.749 67.7046C112.442 67.7046 113.004 68.262 113.004 68.9494Z" fill="url(#paint49_linear)"/>
<path d="M318.237 204.979L290.742 211.327C290.192 211.454 289.64 211.098 289.51 210.533L285.44 192.907C285.31 192.342 285.65 191.781 286.2 191.654L313.695 185.306C314.245 185.179 314.797 185.534 314.927 186.1L318.997 203.726C319.127 204.291 318.787 204.852 318.237 204.979Z" fill="url(#paint50_linear)"/>
<path d="M285.849 194.149L315.336 187.342L316.345 191.713L286.858 198.521L285.849 194.149Z" fill="url(#paint51_linear)"/>
<path d="M288.716 207.379L289.353 210.138C289.489 210.727 290.045 211.101 290.595 210.974L318.09 204.627C318.64 204.5 318.976 203.919 318.84 203.33L318.203 200.571L288.716 207.379Z" fill="url(#paint52_linear)"/>
<path d="M291.419 201.173L297.971 199.661L298.224 200.754L291.671 202.266L291.419 201.173Z" fill="url(#paint53_linear)"/>
<path d="M292.54 203.978L299.093 202.465L299.345 203.558L292.792 205.071L292.54 203.978Z" fill="url(#paint54_linear)"/>
<ellipse cx="311.198" cy="197.614" rx="3.92294" ry="3.92593" transform="rotate(-13 311.198 197.614)" fill="url(#paint55_linear)"/>
<path d="M314.867 201.007C314.98 201.261 315.021 201.529 314.989 201.811C314.96 202.087 314.851 202.354 314.663 202.613C314.477 202.865 314.22 203.079 313.889 203.255L314.153 203.847L313.685 204.056L313.418 203.456C312.912 203.629 312.454 203.658 312.046 203.542C311.636 203.421 311.331 203.148 311.131 202.724L312.227 202.236C312.412 202.573 312.687 202.705 313.051 202.631L312.429 201.235C312.039 201.303 311.718 201.341 311.464 201.349C311.211 201.357 310.963 201.298 310.72 201.172C310.477 201.047 310.281 200.816 310.132 200.48C309.943 200.056 309.94 199.643 310.123 199.24C310.31 198.836 310.637 198.507 311.102 198.253L310.838 197.661L311.306 197.453L311.569 198.045C312.054 197.875 312.49 197.851 312.876 197.971C313.267 198.088 313.575 198.354 313.8 198.768L312.697 199.259C312.619 199.124 312.514 199.025 312.381 198.962C312.25 198.892 312.104 198.866 311.944 198.885L312.559 200.266C312.965 200.196 313.293 200.158 313.541 200.153C313.793 200.14 314.04 200.197 314.282 200.322C314.523 200.443 314.718 200.671 314.867 201.007ZM311.176 199.954C311.247 200.114 311.355 200.224 311.498 200.283C311.639 200.337 311.816 200.355 312.029 200.336L311.466 199.071C311.301 199.174 311.192 199.301 311.137 199.454C311.083 199.607 311.096 199.773 311.176 199.954ZM313.525 202.437C313.695 202.32 313.805 202.181 313.855 202.018C313.91 201.854 313.901 201.689 313.827 201.523C313.756 201.362 313.647 201.256 313.501 201.204C313.356 201.152 313.174 201.137 312.955 201.158L313.525 202.437Z" fill="white"/>
<ellipse cx="265.359" cy="79.3598" rx="7.56567" ry="7.57143" fill="white"/>
<path fill-rule="evenodd" clip-rule="evenodd" d="M266.851 82.8735L266.919 83.3023C266.974 83.6479 266.726 83.9734 266.364 84.0307L265.933 84.099C265.571 84.1563 265.235 83.9234 265.18 83.5777L265.113 83.1556C264.445 83.2171 263.797 83.0847 263.245 82.7973C262.899 82.617 262.805 82.1822 263.038 81.8728L263.301 81.5313C263.496 81.2722 263.852 81.2022 264.148 81.3392C264.422 81.4696 264.74 81.5214 265.067 81.4696L266.368 81.2636C266.625 81.2228 266.847 81.048 266.914 80.8126C267.019 80.4416 266.754 80.0986 266.394 80.0567L264.075 79.7734C263.046 79.6468 262.245 78.9117 262.059 77.9395C261.835 76.7551 262.67 75.6077 263.867 75.2852L263.799 74.8565C263.744 74.5108 263.992 74.1854 264.354 74.1281L264.785 74.0598C265.147 74.0025 265.483 74.2354 265.538 74.581L265.605 75.0031C266.272 74.9417 266.921 75.074 267.476 75.3609C267.819 75.5417 267.912 75.9766 267.679 76.2827L267.417 76.6275C267.222 76.8865 266.866 76.9566 266.573 76.819C266.296 76.6891 265.978 76.6374 265.651 76.6891L264.346 76.8957C264.019 76.9475 263.76 77.2237 263.782 77.5405C263.8 77.8341 264.025 78.0641 264.323 78.102L266.643 78.3854C267.672 78.512 268.473 79.2471 268.659 80.2193C268.883 81.4036 268.048 82.5511 266.851 82.8735ZM264.087 71.3276C259.656 72.0295 256.631 76.1966 257.333 80.631C258.035 85.0654 262.2 88.0938 266.631 87.392C271.062 86.6901 274.087 82.523 273.385 78.0886C272.683 73.6542 268.518 70.6258 264.087 71.3276Z" fill="url(#paint56_linear)"/>
<ellipse cx="15.972" cy="144.418" rx="10.9282" ry="10.9365" transform="rotate(-9 15.972 144.418)" fill="white"/>
<path fill-rule="evenodd" clip-rule="evenodd" d="M18.9206 149.135L19.116 149.736C19.2736 150.221 18.991 150.746 18.4834 150.911L17.8782 151.108C17.3707 151.273 16.8334 151.014 16.6759 150.529L16.4834 149.937C15.5365 150.178 14.573 150.135 13.7133 149.847C13.1744 149.667 12.9402 149.062 13.2045 148.564L13.5056 148.012C13.7261 147.595 14.2228 147.413 14.6804 147.543C15.1041 147.668 15.5742 147.67 16.0329 147.521L17.8582 146.928C18.2193 146.811 18.4988 146.508 18.5404 146.155C18.6073 145.597 18.1481 145.163 17.621 145.185L14.2179 145.306C12.708 145.358 11.3876 144.483 10.8982 143.126C10.307 141.473 11.2463 139.631 12.8954 138.894L12.6999 138.292C12.5423 137.807 12.825 137.283 13.3325 137.118L13.9377 136.921C14.4452 136.756 14.9825 137.015 15.1401 137.5L15.3325 138.092C16.2795 137.851 17.2429 137.894 18.1075 138.18C18.6415 138.362 18.8757 138.967 18.6099 139.46L18.3104 140.017C18.0898 140.434 17.5932 140.616 17.1404 140.484C16.7118 140.361 16.2417 140.359 15.783 140.508L13.9529 141.103C13.4941 141.252 13.1838 141.708 13.2872 142.159C13.38 142.578 13.7568 142.857 14.1949 142.844L17.598 142.723C19.1079 142.671 20.4283 143.546 20.9177 144.903C21.509 146.556 20.5696 148.398 18.9206 149.135ZM12.3101 133.148C6.09291 135.168 2.68896 141.855 4.71058 148.077C6.73221 154.299 13.4165 157.708 19.6337 155.688C25.8509 153.668 29.2549 146.981 27.2333 140.759C25.2116 134.537 18.5273 131.128 12.3101 133.148Z" fill="url(#paint57_linear)"/>
<defs>
<linearGradient id="paint0_linear" x1="-77.0229" y1="119.377" x2="41.3352" y2="321.182" gradientUnits="userSpaceOnUse">
<stop stop-color="#FFE1A1"/>
<stop offset="1" stop-color="#FEDC93"/>
</linearGradient>
<linearGradient id="paint1_linear" x1="171.738" y1="-54.0627" x2="41.9636" y2="240.456" gradientUnits="userSpaceOnUse">
<stop stop-color="#F7CD6D"/>
<stop offset="1" stop-color="#FFDA5E" stop-opacity="0.01"/>
</linearGradient>
<linearGradient id="paint2_linear" x1="165.642" y1="191.229" x2="225.05" y2="124.339" gradientUnits="userSpaceOnUse">
<stop stop-color="#59A696"/>
<stop offset="1" stop-color="#39B993"/>
</linearGradient>
<linearGradient id="paint3_linear" x1="124.55" y1="69.2428" x2="28.8643" y2="157.404" gradientUnits="userSpaceOnUse">
<stop stop-color="#6BDEC5"/>
<stop offset="1" stop-color="#39B993"/>
</linearGradient>
<linearGradient id="paint4_linear" x1="174.343" y1="1.88656" x2="55.9485" y2="100.148" gradientUnits="userSpaceOnUse">
<stop stop-color="#6BDEC5"/>
<stop offset="1" stop-color="#39B993"/>
</linearGradient>
<linearGradient id="paint5_linear" x1="222.027" y1="70.0773" x2="195.923" y2="76.4098" gradientUnits="userSpaceOnUse">
<stop stop-color="#6BDEC5"/>
<stop offset="0.620042" stop-color="#6ADDC4"/>
<stop offset="1" stop-color="#39B993"/>
</linearGradient>
<linearGradient id="paint6_linear" x1="174.485" y1="72.94" x2="174.485" y2="94.2301" gradientUnits="userSpaceOnUse">
<stop stop-color="#FFB584"/>
<stop offset="1" stop-color="#FFB686"/>
</linearGradient>
<linearGradient id="paint7_linear" x1="184.141" y1="80.5188" x2="201.836" y2="85.495" gradientUnits="userSpaceOnUse">
<stop stop-color="#DC934B"/>
<stop offset="1" stop-color="#DB843C"/>
</linearGradient>
<linearGradient id="paint8_linear" x1="172.59" y1="24.223" x2="172.59" y2="76.748" gradientUnits="userSpaceOnUse">
<stop stop-color="#FFBB8D"/>
<stop offset="1" stop-color="#FFBA8C"/>
</linearGradient>
<linearGradient id="paint9_linear" x1="172.216" y1="0.23291" x2="172.216" y2="52.6891" gradientUnits="userSpaceOnUse">
<stop stop-color="#0A717A"/>
<stop offset="1" stop-color="#00545B"/>
</linearGradient>
<linearGradient id="paint10_linear" x1="202.806" y1="32.8432" x2="202.806" y2="41.5266" gradientUnits="userSpaceOnUse">
<stop stop-color="#033B40"/>
<stop offset="1" stop-color="#00545B"/>
</linearGradient>
<linearGradient id="paint11_linear" x1="183.498" y1="26.9105" x2="183.498" y2="31.9697" gradientUnits="userSpaceOnUse">
<stop stop-color="#033B40"/>
<stop offset="1" stop-color="#00545B"/>
</linearGradient>
<linearGradient id="paint12_linear" x1="192.985" y1="32.8515" x2="183.102" y2="46.2608" gradientUnits="userSpaceOnUse">
<stop stop-color="#E08E58" stop-opacity="0.323481"/>
<stop offset="1" stop-color="#E0925E"/>
</linearGradient>
<linearGradient id="paint13_linear" x1="208.574" y1="54.4068" x2="219.7" y2="67.2548" gradientUnits="userSpaceOnUse">
<stop stop-color="#FFC198"/>
<stop offset="1" stop-color="#FFB380"/>
</linearGradient>
<linearGradient id="paint14_linear" x1="110.079" y1="161.262" x2="130.857" y2="210.348" gradientUnits="userSpaceOnUse">
<stop stop-color="#FFC198"/>
<stop offset="1" stop-color="#FFB380"/>
</linearGradient>
<linearGradient id="paint15_linear" x1="124.144" y1="172.279" x2="136.743" y2="208.385" gradientUnits="userSpaceOnUse">
<stop stop-color="#FFC198"/>
<stop offset="1" stop-color="#FFA162"/>
</linearGradient>
<linearGradient id="paint16_linear" x1="212.147" y1="208.384" x2="267.082" y2="183.403" gradientUnits="userSpaceOnUse">
<stop stop-color="#59A696"/>
<stop offset="1" stop-color="#39B993"/>
</linearGradient>
<linearGradient id="paint17_linear" x1="251.161" y1="-35.0895" x2="199.776" y2="-31.1945" gradientUnits="userSpaceOnUse">
<stop stop-color="#6BDEC5"/>
<stop offset="1" stop-color="#39B993"/>
</linearGradient>
<linearGradient id="paint18_linear" x1="84.5944" y1="166.932" x2="97.9373" y2="183.738" gradientUnits="userSpaceOnUse">
<stop stop-color="#FFC198"/>
<stop offset="1" stop-color="#FFB380"/>
</linearGradient>
<linearGradient id="paint19_linear" x1="8.53849" y1="17.9606" x2="-0.785207" y2="169.859" gradientUnits="userSpaceOnUse">
<stop stop-color="#F87777"/>
<stop offset="1" stop-color="#EE4242"/>
</linearGradient>
<linearGradient id="paint20_linear" x1="221.252" y1="174.607" x2="195.692" y2="95.2323" gradientUnits="userSpaceOnUse">
<stop stop-color="#FFA981"/>
<stop offset="0.428" stop-color="#FF8666"/>
<stop offset="1" stop-color="#FF5C45"/>
<stop offset="1" stop-color="#FF5C45"/>
</linearGradient>
<linearGradient id="paint21_linear" x1="84.3658" y1="170.134" x2="97.3034" y2="188.921" gradientUnits="userSpaceOnUse">
<stop stop-color="#FFC198"/>
<stop offset="1" stop-color="#FFB380"/>
</linearGradient>
<linearGradient id="paint22_linear" x1="19.0358" y1="45.4119" x2="53.5274" y2="98.1465" gradientUnits="userSpaceOnUse">
<stop stop-color="#F87777"/>
<stop offset="1" stop-color="#EE4242"/>
</linearGradient>
<linearGradient id="paint23_linear" x1="7.63983" y1="49.8914" x2="57.7541" y2="112.621" gradientUnits="userSpaceOnUse">
<stop stop-color="#FFA162"/>
<stop offset="0.32348" stop-color="#EF9B63"/>
<stop offset="0.636296" stop-color="#F0A675"/>
<stop offset="1" stop-color="#FFC198"/>
</linearGradient>
<linearGradient id="paint24_linear" x1="53.7629" y1="30.2323" x2="53.7629" y2="39.462" gradientUnits="userSpaceOnUse">
<stop stop-color="#F4F6FA"/>
<stop offset="1" stop-color="white"/>
</linearGradient>
<linearGradient id="paint25_linear" x1="50.6758" y1="44.4907" x2="50.6758" y2="53.6732" gradientUnits="userSpaceOnUse">
<stop stop-color="#F4F6FA"/>
<stop offset="1" stop-color="white"/>
</linearGradient>
<linearGradient id="paint26_linear" x1="47.1011" y1="59.2257" x2="47.1011" y2="68.4082" gradientUnits="userSpaceOnUse">
<stop stop-color="#F4F6FA"/>
<stop offset="1" stop-color="white"/>
</linearGradient>
<linearGradient id="paint27_linear" x1="68.4964" y1="30.7767" x2="68.4964" y2="39.5097" gradientUnits="userSpaceOnUse">
<stop stop-color="#F4F6FA"/>
<stop offset="1" stop-color="white"/>
</linearGradient>
<linearGradient id="paint28_linear" x1="58.8792" y1="47.583" x2="65.6166" y2="57.8207" gradientUnits="userSpaceOnUse">
<stop stop-color="#F87777"/>
<stop offset="1" stop-color="#EE4242"/>
</linearGradient>
<linearGradient id="paint29_linear" x1="63.1286" y1="59.6875" x2="63.1286" y2="68.3563" gradientUnits="userSpaceOnUse">
<stop stop-color="#F4F6FA"/>
<stop offset="1" stop-color="white"/>
</linearGradient>
<linearGradient id="paint30_linear" x1="82.448" y1="30.841" x2="82.448" y2="39.5095" gradientUnits="userSpaceOnUse">
<stop stop-color="#F4F6FA"/>
<stop offset="1" stop-color="white"/>
</linearGradient>
<linearGradient id="paint31_linear" x1="79.3616" y1="45.1138" x2="79.3616" y2="53.7826" gradientUnits="userSpaceOnUse">
<stop stop-color="#F4F6FA"/>
<stop offset="1" stop-color="white"/>
</linearGradient>
<linearGradient id="paint32_linear" x1="76.4325" y1="59.8487" x2="76.4325" y2="68.5175" gradientUnits="userSpaceOnUse">
<stop stop-color="#F4F6FA"/>
<stop offset="1" stop-color="white"/>
</linearGradient>
<linearGradient id="paint33_linear" x1="55.816" y1="21.2712" x2="58.8655" y2="23.5021" gradientUnits="userSpaceOnUse">
<stop stop-color="#F8F6FB"/>
<stop offset="1" stop-color="#EFDCFB"/>
</linearGradient>
<linearGradient id="paint34_linear" x1="69.466" y1="21.4471" x2="72.5155" y2="23.678" gradientUnits="userSpaceOnUse">
<stop stop-color="#F8F6FB"/>
<stop offset="1" stop-color="#EFDCFB"/>
</linearGradient>
<linearGradient id="paint35_linear" x1="83.5585" y1="21.345" x2="86.608" y2="23.5759" gradientUnits="userSpaceOnUse">
<stop stop-color="#F8F6FB"/>
<stop offset="1" stop-color="#EFDCFB"/>
</linearGradient>
<linearGradient id="paint36_linear" x1="97.3373" y1="21.324" x2="100.387" y2="23.555" gradientUnits="userSpaceOnUse">
<stop stop-color="#F8F6FB"/>
<stop offset="1" stop-color="#EFDCFB"/>
</linearGradient>
<linearGradient id="paint37_linear" x1="63.4695" y1="4.30181" x2="44.6273" y2="10.3471" gradientUnits="userSpaceOnUse">
<stop stop-color="#FFA981"/>
<stop offset="0.428" stop-color="#FF8666"/>
<stop offset="1" stop-color="#FF5C45"/>
</linearGradient>
<linearGradient id="paint38_linear" x1="77.5253" y1="4.50129" x2="58.6833" y2="10.5467" gradientUnits="userSpaceOnUse">
<stop stop-color="#FFA981"/>
<stop offset="0.428" stop-color="#FF8666"/>
<stop offset="1" stop-color="#FF5C45"/>
</linearGradient>
<linearGradient id="paint39_linear" x1="91.3901" y1="4.41785" x2="72.5479" y2="10.4632" gradientUnits="userSpaceOnUse">
<stop stop-color="#FFA981"/>
<stop offset="0.428" stop-color="#FF8666"/>
<stop offset="1" stop-color="#FF5C45"/>
</linearGradient>
<linearGradient id="paint40_linear" x1="105.14" y1="4.31949" x2="86.2979" y2="10.3648" gradientUnits="userSpaceOnUse">
<stop stop-color="#FFA981"/>
<stop offset="0.428" stop-color="#FF8666"/>
<stop offset="1" stop-color="#FF5C45"/>
</linearGradient>
<linearGradient id="paint41_linear" x1="84.0604" y1="80.0926" x2="116.378" y2="99.1452" gradientUnits="userSpaceOnUse">
<stop stop-color="#F87777"/>
<stop offset="1" stop-color="#EE4242"/>
</linearGradient>
<linearGradient id="paint42_linear" x1="100.459" y1="60.8596" x2="100.459" y2="84.127" gradientUnits="userSpaceOnUse">
<stop stop-color="#F4F6FA"/>
<stop offset="1" stop-color="white"/>
</linearGradient>
<linearGradient id="paint43_linear" x1="113.293" y1="53.1174" x2="109.531" y2="53.7754" gradientUnits="userSpaceOnUse">
<stop stop-color="#FFA981"/>
<stop offset="0.428" stop-color="#FF8666"/>
<stop offset="1" stop-color="#FF5C45"/>
</linearGradient>
<linearGradient id="paint44_linear" x1="113.293" y1="75.5271" x2="109.531" y2="76.1852" gradientUnits="userSpaceOnUse">
<stop stop-color="#FFA981"/>
<stop offset="0.428" stop-color="#FF8666"/>
<stop offset="1" stop-color="#FF5C45"/>
</linearGradient>
<linearGradient id="paint45_linear" x1="125.718" y1="66.6359" x2="120.512" y2="70.2786" gradientUnits="userSpaceOnUse">
<stop stop-color="#FFA981"/>
<stop offset="0.428" stop-color="#FF8666"/>
<stop offset="1" stop-color="#FF5C45"/>
</linearGradient>
<linearGradient id="paint46_linear" x1="103.958" y1="66.6359" x2="98.7508" y2="70.2786" gradientUnits="userSpaceOnUse">
<stop stop-color="#FFA981"/>
<stop offset="0.428" stop-color="#FF8666"/>
<stop offset="1" stop-color="#FF5C45"/>
</linearGradient>
<linearGradient id="paint47_linear" x1="117.377" y1="53.5621" x2="94.411" y2="53.5287" gradientUnits="userSpaceOnUse">
<stop stop-color="#A1B5D8" stop-opacity="0.01"/>
<stop offset="0.0343" stop-color="#9FB3D5" stop-opacity="0.035294"/>
<stop offset="0.4515" stop-color="#8898AF" stop-opacity="0.45098"/>
<stop offset="0.788" stop-color="#798898" stop-opacity="0.788235"/>
<stop offset="1" stop-color="#748290"/>
</linearGradient>
<linearGradient id="paint48_linear" x1="109.319" y1="66.9113" x2="116.312" y2="69.5981" gradientUnits="userSpaceOnUse">
<stop stop-color="#FFD77A"/>
<stop offset="1" stop-color="#FFDA5E"/>
</linearGradient>
<linearGradient id="paint49_linear" x1="114.066" y1="65.4791" x2="108.883" y2="67.2918" gradientUnits="userSpaceOnUse">
<stop stop-color="#FFA981"/>
<stop offset="0.428" stop-color="#FF8666"/>
<stop offset="1" stop-color="#FF5C45"/>
</linearGradient>
<linearGradient id="paint50_linear" x1="297.677" y1="178.643" x2="285.797" y2="210.064" gradientUnits="userSpaceOnUse">
<stop stop-color="#FFA981"/>
<stop offset="0.428" stop-color="#FF8666"/>
<stop offset="1" stop-color="#FF5C45"/>
</linearGradient>
<linearGradient id="paint51_linear" x1="289.499" y1="194.373" x2="290.274" y2="197.732" gradientUnits="userSpaceOnUse">
<stop stop-color="#F4F6FA"/>
<stop offset="1" stop-color="white"/>
</linearGradient>
<linearGradient id="paint52_linear" x1="304.396" y1="200.026" x2="305.437" y2="209.281" gradientUnits="userSpaceOnUse">
<stop stop-color="#FFA981"/>
<stop offset="0.428" stop-color="#FF8666"/>
<stop offset="1" stop-color="#FF5C45"/>
<stop offset="1" stop-color="#FF5C45"/>
</linearGradient>
<linearGradient id="paint53_linear" x1="292.236" y1="201.251" x2="292.43" y2="202.091" gradientUnits="userSpaceOnUse">
<stop stop-color="#F4F6FA"/>
<stop offset="1" stop-color="white"/>
</linearGradient>
<linearGradient id="paint54_linear" x1="293.358" y1="204.056" x2="293.552" y2="204.895" gradientUnits="userSpaceOnUse">
<stop stop-color="#F4F6FA"/>
<stop offset="1" stop-color="white"/>
</linearGradient>
<linearGradient id="paint55_linear" x1="308.604" y1="203.645" x2="314.562" y2="196.927" gradientUnits="userSpaceOnUse">
<stop stop-color="#39B993"/>
<stop offset="1" stop-color="#56CEB0"/>
</linearGradient>
<linearGradient id="paint56_linear" x1="249.437" y1="81.583" x2="267.167" y2="93.337" gradientUnits="userSpaceOnUse">
<stop stop-color="#6BDEC5"/>
<stop offset="1" stop-color="#39B993"/>
</linearGradient>
<linearGradient id="paint57_linear" x1="-6.43686" y1="151.247" x2="21.7604" y2="164.122" gradientUnits="userSpaceOnUse">
<stop stop-color="#6BDEC5"/>
<stop offset="1" stop-color="#39B993"/>
</linearGradient>
</defs>
</svg>
