<svg width="34" height="34" viewBox="0 0 34 34" fill="none" xmlns="http://www.w3.org/2000/svg">
<path d="M17 0C7.61423 0 0 7.61423 0 17C0 26.3858 7.61423 34 17 34C26.3858 34 34 26.3858 34 17C34 7.61423 26.3858 0 17 0Z" fill="url(#paint0_linear)"/>
<path d="M11.625 13.186C11.6984 11.7193 12.2117 10.59 13.165 9.798C14.133 8.99133 15.4017 8.588 16.971 8.588C18.0417 8.588 18.9584 8.77867 19.721 9.16C20.4837 9.52667 21.0557 10.0327 21.437 10.678C21.833 11.3087 22.031 12.0273 22.031 12.834C22.031 13.758 21.789 14.5427 21.305 15.188C20.8357 15.8187 20.271 16.244 19.611 16.464V16.552C20.4617 16.816 21.1217 17.2853 21.591 17.96C22.075 18.6347 22.317 19.5 22.317 20.556C22.317 21.436 22.1117 22.2207 21.701 22.91C21.305 23.5993 20.711 24.142 19.919 24.538C19.1417 24.9193 18.203 25.11 17.103 25.11C15.4457 25.11 14.0964 24.692 13.055 23.856C12.0137 23.02 11.4637 21.788 11.405 20.16H14.397C14.4264 20.8787 14.6684 21.458 15.123 21.898C15.5924 22.3233 16.2304 22.536 17.037 22.536C17.785 22.536 18.357 22.3307 18.753 21.92C19.1637 21.4947 19.369 20.952 19.369 20.292C19.369 19.412 19.0904 18.7813 18.533 18.4C17.9757 18.0187 17.1104 17.828 15.937 17.828H15.299V15.298H15.937C18.0197 15.298 19.061 14.6013 19.061 13.208C19.061 12.5773 18.8704 12.086 18.489 11.734C18.1224 11.382 17.587 11.206 16.883 11.206C16.1937 11.206 15.6584 11.3967 15.277 11.778C14.9104 12.1447 14.6977 12.614 14.639 13.186H11.625Z" fill="white"/>
<defs>
<linearGradient id="paint0_linear" x1="48.3748" y1="-30.3884" x2="-21.9277" y2="-6.00145" gradientUnits="userSpaceOnUse">
<stop stop-color="#FFA981"/>
<stop offset="0.428" stop-color="#FF8666"/>
<stop offset="1" stop-color="#FF5C45"/>
</linearGradient>
</defs>
</svg>
