<svg width="34" height="34" viewBox="0 0 34 34" fill="none" xmlns="http://www.w3.org/2000/svg">
<path d="M17 0C7.61423 0 0 7.61423 0 17C0 26.3858 7.61423 34 17 34C26.3858 34 34 26.3858 34 17C34 7.61423 26.3858 0 17 0Z" fill="url(#paint0_linear)"/>
<path d="M12.8176 21.524C14.2256 20.3507 15.3476 19.3753 16.1836 18.598C17.0196 17.806 17.7163 16.9847 18.2736 16.134C18.8309 15.2833 19.1096 14.4473 19.1096 13.626C19.1096 12.878 18.9336 12.2913 18.5816 11.866C18.2296 11.4407 17.6869 11.228 16.9536 11.228C16.2203 11.228 15.6556 11.4773 15.2596 11.976C14.8636 12.46 14.6583 13.1273 14.6436 13.978H11.6516C11.7103 12.218 12.2309 10.8833 13.2136 9.974C14.2109 9.06467 15.4723 8.61 16.9976 8.61C18.6696 8.61 19.9529 9.05733 20.8476 9.952C21.7423 10.832 22.1896 11.998 22.1896 13.45C22.1896 14.594 21.8816 15.6867 21.2656 16.728C20.6496 17.7693 19.9456 18.6787 19.1536 19.456C18.3616 20.2187 17.3276 21.1427 16.0516 22.228H22.5416V24.78H11.6736V22.492L12.8176 21.524Z" fill="white"/>
<defs>
<linearGradient id="paint0_linear" x1="48.3748" y1="-30.3884" x2="-21.9277" y2="-6.00145" gradientUnits="userSpaceOnUse">
<stop stop-color="#FFA981"/>
<stop offset="0.428" stop-color="#FF8666"/>
<stop offset="1" stop-color="#FF5C45"/>
</linearGradient>
</defs>
</svg>
