<svg width="91" height="94" viewBox="0 0 91 94" fill="none" xmlns="http://www.w3.org/2000/svg">
<path d="M52.7059 28.1275C54.6271 34.5133 57.9264 64.2374 51.4927 65.9921C45.0593 67.7468 31.3292 40.8676 29.408 34.4819C27.4869 28.0961 31.1449 21.497 37.5783 19.7423C44.0118 17.9876 50.7848 21.7418 52.7059 28.1275Z" fill="url(#paint0_linear)"/>
<path d="M51.9228 32.9065C51.8306 33.0727 51.6749 33.2035 51.4773 33.2597L44.1186 35.353C43.7234 35.4653 43.3106 35.2365 43.1964 34.8418C43.0824 34.4472 43.3103 34.0361 43.7054 33.9236L51.0641 31.8304C51.4593 31.7181 51.8721 31.9469 51.9863 32.3416C52.0433 32.5389 52.0149 32.7403 51.9228 32.9065Z" fill="#FF5D00"/>
<path d="M52.7009 38.3848C52.6088 38.5509 52.453 38.6818 52.2554 38.738L45.3782 40.6943C44.983 40.8066 44.5702 40.5778 44.4561 40.1831C44.3421 39.7885 44.57 39.3774 44.965 39.2649L51.8422 37.3087C52.2374 37.1963 52.6502 37.4252 52.7644 37.8198C52.8214 38.0172 52.793 38.2186 52.7009 38.3848Z" fill="#FF5D00"/>
<path d="M53.2272 43.9348C53.1351 44.101 52.9793 44.2319 52.7818 44.2881L46.5479 46.0614C46.1527 46.1737 45.7399 45.9449 45.6257 45.5502C45.5118 45.1556 45.7397 44.7445 46.1347 44.632L52.3686 42.8588C52.7638 42.7464 53.1766 42.9752 53.2907 43.3699C53.3477 43.5672 53.3193 43.7687 53.2272 43.9348Z" fill="#FF5D00"/>
<path d="M53.5226 49.5504C53.4305 49.7166 53.2747 49.8475 53.0771 49.9037L47.6378 51.4509C47.2426 51.5633 46.8298 51.3344 46.7157 50.9398C46.6016 50.5451 46.8295 50.134 47.2246 50.0216L52.6639 48.4743C53.0591 48.362 53.4719 48.5908 53.5861 48.9855C53.6431 49.1828 53.6147 49.3842 53.5226 49.5504Z" fill="#FF5D00"/>
<path d="M53.5238 55.2496C53.4317 55.4157 53.276 55.5466 53.0784 55.6028L48.6209 56.8709C48.2257 56.9832 47.8129 56.7544 47.6987 56.3597C47.5848 55.9651 47.8127 55.554 48.2077 55.4415L52.6652 54.1735C53.0604 54.0611 53.4732 54.29 53.5874 54.6847C53.6443 54.8821 53.6159 55.0835 53.5238 55.2496Z" fill="#FF5D00"/>
<path d="M53.0197 61.0914C52.9276 61.2576 52.7719 61.3884 52.5743 61.4446L49.4269 62.34C49.0317 62.4524 48.6189 62.2235 48.5047 61.8289C48.3906 61.4342 48.6185 61.0231 49.0137 60.9107L52.161 60.0154C52.5562 59.903 52.9691 60.1319 53.0832 60.5265C53.1403 60.7238 53.1118 60.9253 53.0197 61.0914Z" fill="#FF5D00"/>
<ellipse cx="34.0516" cy="36.114" rx="1.20065" ry="1.20574" transform="rotate(-61 34.0516 36.114)" fill="#FF5D00"/>
<ellipse cx="36.2102" cy="35.4999" rx="0.600817" ry="0.603366" transform="rotate(-61 36.2102 35.4999)" fill="#FF5D00"/>
<ellipse cx="38.4206" cy="45.6552" rx="0.600817" ry="0.603366" transform="rotate(-61 38.4206 45.6552)" fill="#FF5D00"/>
<ellipse cx="42.6361" cy="46.1938" rx="0.600817" ry="0.603366" transform="rotate(-61 42.6361 46.1938)" fill="#FF5D00"/>
<ellipse cx="40.7897" cy="43.3719" rx="0.600817" ry="0.603366" transform="rotate(-61 40.7897 43.3719)" fill="#FF5D00"/>
<path d="M36.6801 20.4716C34.6841 21.1099 32.9334 22.2171 31.5132 23.6359L52.5041 35.2713C52.1984 32.3691 51.8368 30.0253 51.4958 28.684C49.814 22.0694 43.1808 18.3925 36.6801 20.4716Z" fill="url(#paint1_linear)"/>
<path d="M35.98 18.8873C34.4524 16.7866 31.8996 15.5668 29.3347 15.8057C28.274 15.9045 27.1555 16.2528 26.0791 17.02C22.0603 19.8839 25.275 24.3704 28.877 22.8076C32.479 21.2449 39.1719 23.2766 39.1719 23.2766L35.98 18.8873Z" fill="url(#paint2_linear)"/>
<path d="M39.856 20.0628C40.0962 18.0574 41.5513 16.4295 43.6064 15.9943C44.3709 15.8324 45.2513 15.8221 46.2402 16.0825C50.1956 17.1241 49.5347 21.1483 46.3603 20.9344C43.186 20.7205 39.4377 23.5554 39.4377 23.5554L39.856 20.0628Z" fill="url(#paint3_linear)"/>
<path d="M38.4955 10.1386C39.342 12.5041 41.1844 23.7152 38.8296 24.6128C36.4748 25.5105 30.8145 15.7547 29.9681 13.3894C29.1217 11.0241 30.3445 8.37878 32.6992 7.48113C35.0539 6.58348 37.6492 7.77323 38.4955 10.1386Z" fill="url(#paint4_linear)"/>
<path d="M39.2684 15.3123C39.2684 15.3123 37.8699 8.8487 42.5756 7.74836C47.2813 6.64802 50.2414 12.3992 46.9007 14.9303C43.56 17.4614 41.2537 23.8665 41.2537 23.8665L39.2684 15.3123Z" fill="url(#paint5_linear)"/>
<path fill-rule="evenodd" clip-rule="evenodd" d="M34 39.4699C34 41.6419 32.3581 43.4711 30.1769 43.7289L27.5714 44.0371V44.2528C27.5714 44.6528 27.8141 45.0136 28.1873 45.1681L31.4276 46.5098C32.4426 46.9302 33.1034 47.9118 33.1034 49H19.7918C19.7918 47.9118 20.4525 46.9302 21.4676 46.5098L24.7079 45.1681C25.081 45.0136 25.3237 44.6528 25.3237 44.2528H25.2981C22.0743 44.2531 19.1172 42.2082 18.0602 39.1357C17.8505 38.5263 18.2064 37.8619 18.85 37.7001C19.4184 37.5571 20.0042 37.8927 20.1954 38.4409C20.9503 40.6061 23.0424 42.0414 25.3237 42.0305V39.2893C25.3237 36.8812 27.3413 34.9301 29.7932 35.0019C32.1527 35.071 34 37.0464 34 39.3804V39.4699ZM29.6616 37.2224C28.5088 37.2224 27.571 38.1497 27.571 39.2895H27.5707V41.7989L29.9096 41.5225C30.96 41.3983 31.7521 40.5159 31.7521 39.4701V39.2895C31.7521 38.1497 30.8145 37.2224 29.6616 37.2224Z" fill="url(#paint6_linear)"/>
<ellipse cx="9.91059" cy="66.7487" rx="9.80024" ry="16.1142" fill="url(#paint7_linear)"/>
<ellipse cx="43.1406" cy="66.7487" rx="9.80024" ry="16.1142" fill="url(#paint8_linear)"/>
<path d="M42.3684 50.6841C37.3168 51.3315 33.3403 58.2764 33.3403 66.7486C33.3403 75.6483 37.7281 82.8628 43.1406 82.8628C48.5531 82.8628 52.9408 75.6483 52.9408 66.7486C52.9408 64.4195 52.6397 62.2062 52.0991 60.2071L42.3684 50.6841Z" fill="url(#paint9_radial)"/>
<ellipse cx="17.0377" cy="66.0238" rx="11.7041" ry="18.2652" fill="url(#paint10_linear)"/>
<ellipse cx="36.0133" cy="66.0238" rx="11.7041" ry="18.2652" fill="url(#paint11_linear)"/>
<path d="M32.9313 48.4C27.9629 50.5114 24.3092 57.601 24.3092 66.0238C24.3092 76.1113 29.5493 84.289 36.0133 84.289C42.4773 84.289 47.7174 76.1115 47.7174 66.0238C47.7174 64.881 47.6494 63.7628 47.5207 62.6781L32.9313 48.4Z" fill="url(#paint12_radial)"/>
<path d="M39.5302 64.8641C39.5302 76.0724 33.7078 85.1586 26.5256 85.1586C19.3434 85.1586 13.521 76.0724 13.521 64.8641C13.521 53.6557 19.3434 46.1649 26.5256 46.1649C33.7078 46.1649 39.5302 53.6557 39.5302 64.8641Z" fill="url(#paint13_linear)"/>
<g opacity="0.37">
<ellipse cx="22.687" cy="71.9212" rx="2.27045" ry="2.22198" fill="url(#paint14_linear)"/>
<ellipse cx="23.3046" cy="78.3317" rx="1.26154" ry="1.23461" fill="url(#paint15_linear)"/>
<ellipse cx="20.3374" cy="75.7317" rx="1.70561" ry="1.6692" fill="url(#paint16_linear)"/>
</g>
<path d="M31.3762 47.3944C29.1719 46.2144 26.5292 46.2144 24.3249 47.3944C19.5452 49.9535 16.1709 56.3314 16.1709 64.8641C16.1709 75.3744 21.2907 84.0187 27.8505 85.0546C34.4104 84.0187 39.5302 75.3747 39.5302 64.8641C39.5302 56.3314 36.1559 49.9535 31.3762 47.3944Z" fill="url(#paint17_linear)"/>
<path d="M32.2293 48C34.7329 51.3326 36.2893 56.1536 36.2893 61.9569C36.2893 73.3387 30.3052 82.5654 22.9234 82.5654C21.1849 82.5654 19.5239 82.0531 18 81.1216C20.3291 84.164 23.3424 86 26.6341 86C34.0159 86 40 76.7733 40 65.3916C40.0002 57.0905 36.8165 50.7985 32.2293 48Z" fill="url(#paint18_linear)"/>
<path d="M31.9025 40.0004C31.9025 40.9163 31.1632 41.6891 30.1829 41.7979L28 42.04V44L30.4319 43.7301C32.4676 43.5042 34 41.9023 34 40L31.9025 40.0004Z" fill="url(#paint19_linear)"/>
<path d="M20.0983 38.8224C19.9156 38.2398 19.3557 37.8831 18.8124 38.0351C18.1973 38.207 17.8571 38.9132 18.0576 39.5609C19.0679 42.8267 21.8942 45.0002 24.9755 45H25V42.6381C22.8195 42.6495 20.8201 41.1238 20.0983 38.8224Z" fill="url(#paint20_linear)"/>
<path fill-rule="evenodd" clip-rule="evenodd" d="M70.1843 59.9759L71.2075 61.6177L79.4081 56.5428L81.168 59.367C81.9115 60.56 83.0764 61.3929 84.4485 61.7126C85.8204 62.0322 87.2355 61.8004 88.4334 61.059L88.4997 61.0177C89.6967 60.2769 90.5326 59.1159 90.8534 57.7486C91.1741 56.3812 90.9413 54.9713 90.1981 53.7785C89.4547 52.5856 88.2897 51.7526 86.9176 51.4329C85.5455 51.1133 84.1307 51.3451 82.9335 52.0859L80.0322 53.8816L75.8879 47.9331L75.115 48.4313L78.3845 54.9008L70.1843 59.9759ZM82.8151 58.3474L81.0552 55.5231L83.9565 53.7275C84.7133 53.2591 85.608 53.1123 86.4757 53.3145C87.3435 53.5167 88.0803 54.0433 88.5503 54.7977C89.0205 55.5521 89.1676 56.4439 88.9647 57.3084C88.7618 58.1732 88.2334 58.9074 87.4754 59.3764L87.4091 59.4176C86.652 59.8862 85.7574 60.0328 84.8896 59.8306C84.0218 59.6284 83.2851 59.1018 82.8151 58.3474Z" fill="url(#paint21_linear)"/>
<ellipse cx="41.4589" cy="79.3992" rx="6.59882" ry="6.44452" fill="url(#paint22_linear)"/>
<ellipse cx="41.459" cy="79.3992" rx="5.50725" ry="5.37847" fill="url(#paint23_linear)"/>
<path d="M48.0578 79.2848C47.4766 80.0717 46.7042 80.7423 45.7638 81.2221C42.5337 82.8703 38.5469 81.6491 36.8593 78.4945C36.368 77.5758 36.1259 76.5948 36.1092 75.6246C34.6944 77.5404 34.4142 80.1475 35.6104 82.3835C37.298 85.5381 41.2848 86.7593 44.5149 85.1112C46.8045 83.9429 48.0989 81.6465 48.0578 79.2848Z" fill="url(#paint24_linear)"/>
<ellipse cx="46.1337" cy="68.1048" rx="6.59882" ry="6.44452" fill="url(#paint25_linear)"/>
<ellipse cx="46.1337" cy="68.1048" rx="5.50725" ry="5.37847" fill="url(#paint26_linear)"/>
<path d="M52.7326 67.9904C52.1514 68.7773 51.379 69.4479 50.4386 69.9278C47.2085 71.5759 43.2219 70.3547 41.5341 67.2001C41.0428 66.2815 40.8008 65.3004 40.784 64.3302C39.3692 66.246 39.089 68.8531 40.2852 71.0891C41.9728 74.2437 45.9596 75.4649 49.1897 73.8168C51.4791 72.6485 52.7737 70.3521 52.7326 67.9904Z" fill="url(#paint27_linear)"/>
<ellipse cx="51.1612" cy="77.5023" rx="6.59882" ry="6.44452" fill="url(#paint28_linear)"/>
<ellipse cx="51.1612" cy="77.5023" rx="5.50744" ry="5.37866" fill="url(#paint29_linear)"/>
<path d="M57.7601 77.3877C57.1788 78.1746 56.4065 78.8452 55.4661 79.325C52.2359 80.9732 48.2492 79.752 46.5616 76.5974C46.0702 75.6787 45.8282 74.6977 45.8115 73.7275C44.3967 75.6433 44.1164 78.2504 45.3127 80.4864C47.0003 83.641 50.987 84.8622 54.2172 83.2141C56.5066 82.046 57.8012 79.7496 57.7601 77.3877Z" fill="url(#paint30_linear)"/>
<ellipse cx="51.7554" cy="58.7321" rx="6.59882" ry="6.44452" fill="url(#paint31_linear)"/>
<ellipse cx="51.7554" cy="58.7319" rx="5.50725" ry="5.37847" fill="url(#paint32_linear)"/>
<path d="M58.3543 58.6174C57.7731 59.4043 57.0007 60.0749 56.0603 60.5548C52.8302 62.2029 48.8434 60.9817 47.1558 57.8271C46.6645 56.9085 46.4225 55.9274 46.4057 54.9572C44.9909 56.873 44.7107 59.4801 45.9069 61.7161C47.5945 64.8708 51.5813 66.0919 54.8114 64.4438C57.101 63.2755 58.3954 60.9793 58.3543 58.6174Z" fill="url(#paint33_linear)"/>
<ellipse cx="74.0933" cy="77.2897" rx="6.59882" ry="6.44452" fill="url(#paint34_linear)"/>
<ellipse cx="74.0933" cy="77.2897" rx="5.50725" ry="5.37847" fill="url(#paint35_linear)"/>
<path d="M80.6922 77.1753C80.111 77.9622 79.3386 78.6329 78.3982 79.1127C75.1681 80.7608 71.1813 79.5397 69.4937 76.385C69.0024 75.4664 68.7603 74.4853 68.7436 73.5151C67.3288 75.431 67.0486 78.038 68.2448 80.2741C69.9324 83.4287 73.9192 84.6499 77.1493 83.0017C79.4387 81.8335 80.7333 79.537 80.6922 77.1753Z" fill="url(#paint36_linear)"/>
<ellipse cx="57.8282" cy="68.032" rx="6.59882" ry="6.44452" fill="url(#paint37_linear)"/>
<ellipse cx="57.8281" cy="68.032" rx="5.50744" ry="5.37866" fill="url(#paint38_linear)"/>
<path d="M64.4269 67.9176C63.8457 68.7045 63.0734 69.3751 62.133 69.855C58.9028 71.5031 54.916 70.2819 53.2284 67.1273C52.7371 66.2087 52.4953 65.2276 52.4784 64.2574C51.0635 66.1732 50.7833 68.7803 51.9796 71.0163C53.6671 74.1709 57.6539 75.3921 60.8841 73.744C63.1734 72.5757 64.4679 70.2793 64.4269 67.9176Z" fill="url(#paint39_linear)"/>
<ellipse cx="62.1311" cy="78.4864" rx="6.59882" ry="6.44452" fill="url(#paint40_linear)"/>
<ellipse cx="62.131" cy="78.4864" rx="5.50725" ry="5.37847" fill="url(#paint41_linear)"/>
<path d="M68.7299 78.372C68.1487 79.1589 67.3764 79.8295 66.4359 80.3094C63.2058 81.9575 59.219 80.7363 57.5314 77.5817C57.0401 76.6631 56.7983 75.682 56.7814 74.7118C55.3665 76.6276 55.0863 79.2347 56.2825 81.4707C57.9701 84.6253 61.9569 85.8465 65.1871 84.1984C67.4764 83.0301 68.771 80.7337 68.7299 78.372Z" fill="url(#paint42_linear)"/>
<ellipse cx="74.3466" cy="64.9822" rx="6.59882" ry="6.44452" fill="url(#paint43_linear)"/>
<ellipse cx="74.3466" cy="64.9822" rx="5.50725" ry="5.37847" fill="url(#paint44_linear)"/>
<path d="M80.9455 64.8676C80.3643 65.6545 79.5919 66.3251 78.6515 66.805C75.4214 68.4531 71.4346 67.2319 69.747 64.0773C69.2557 63.1587 69.0136 62.1776 68.9969 61.2074C67.5821 63.1232 67.3018 65.7303 68.4981 67.9663C70.1857 71.1209 74.1725 72.3421 77.4026 70.694C79.692 69.5257 80.9866 67.2295 80.9455 64.8676Z" fill="url(#paint45_linear)"/>
<ellipse cx="68.8471" cy="54.7023" rx="6.59882" ry="6.44452" fill="url(#paint46_linear)"/>
<path d="M71.3976 59.4694C68.7018 60.845 65.3744 59.8259 63.9661 57.1931C62.5576 54.5603 63.6011 51.3108 66.2969 49.9352C68.9928 48.5596 72.3201 49.5788 73.7286 52.2115C75.1369 54.8445 74.0934 58.0939 71.3976 59.4694Z" fill="url(#paint47_linear)"/>
<path d="M75.446 54.5879C74.8648 55.3748 74.0924 56.0455 73.152 56.5253C69.9218 58.1734 65.9351 56.9522 64.2475 53.7976C63.7561 52.879 63.5143 51.8979 63.4974 50.9277C62.0826 52.8436 61.8023 55.4504 62.9986 57.6866C64.6862 60.8413 68.6729 62.0625 71.9031 60.4143C74.1927 59.2461 75.4871 56.9496 75.446 54.5879Z" fill="url(#paint48_linear)"/>
<ellipse cx="58.7988" cy="49.8365" rx="6.59882" ry="6.44452" fill="url(#paint49_linear)"/>
<path d="M61.349 54.6037C58.6532 55.9793 55.3258 54.9601 53.9175 52.3274C52.509 49.6946 53.5526 46.445 56.2484 45.0695C58.9442 43.6939 62.2715 44.713 63.68 47.346C65.0885 49.9788 64.045 53.2281 61.349 54.6037Z" fill="url(#paint50_linear)"/>
<path d="M65.3976 49.7221C64.8164 50.509 64.0441 51.1796 63.1037 51.6595C59.8735 53.3076 55.8867 52.0864 54.1991 48.9318C53.7078 48.0132 53.4658 47.0321 53.4491 46.0619C52.0342 47.9777 51.754 50.5846 52.9503 52.8208C54.6378 55.9754 58.6246 57.1966 61.8548 55.5485C64.1441 54.3802 65.4388 52.0838 65.3976 49.7221Z" fill="url(#paint51_linear)"/>
<ellipse cx="68.6404" cy="68.9667" rx="6.59882" ry="6.44452" fill="url(#paint52_linear)"/>
<path d="M71.1909 73.7339C68.495 75.1095 65.1677 74.0903 63.7592 71.4575C62.3507 68.8248 63.3942 65.5752 66.09 64.1997C68.7858 62.8241 72.1132 63.8432 73.5217 66.476C74.9302 69.109 73.8867 72.3583 71.1909 73.7339Z" fill="url(#paint53_linear)"/>
<path d="M75.2392 68.8523C74.658 69.6392 73.8856 70.3099 72.9452 70.7897C69.7151 72.4378 65.7283 71.2167 64.0407 68.062C63.5494 67.1434 63.3073 66.1623 63.2906 65.1921C61.8758 67.108 61.5955 69.715 62.7918 71.9511C64.4794 75.1057 68.4662 76.3269 71.6963 74.6787C73.9857 73.5105 75.2803 71.214 75.2392 68.8523Z" fill="url(#paint54_linear)"/>
<ellipse cx="63.432" cy="58.497" rx="6.59882" ry="6.44452" fill="url(#paint55_linear)"/>
<ellipse cx="63.4319" cy="58.497" rx="5.50744" ry="5.37866" fill="url(#paint56_linear)"/>
<path d="M70.0307 58.3826C69.4495 59.1695 68.6771 59.8401 67.7367 60.32C64.5066 61.9681 60.52 60.7469 58.8322 57.5923C58.3409 56.6737 58.0988 55.6926 58.0821 54.7224C56.6673 56.6382 56.3871 59.2453 57.5833 61.4813C59.2709 64.636 63.2577 65.8571 66.4878 64.209C68.7774 63.0407 70.0718 60.7443 70.0307 58.3826Z" fill="url(#paint57_linear)"/>
<path d="M79.5909 74.4522C78.7713 72.8975 77.405 71.8104 75.8481 71.2978C76.2625 71.1791 76.6712 71.018 77.0682 70.8125C80.2768 69.1513 81.5189 65.2271 79.8426 62.0475C78.6413 59.7691 76.2674 58.4919 73.8376 58.5619C75.2833 56.6255 75.5809 53.9649 74.3797 51.6867C72.7033 48.5071 68.7432 47.2763 65.5345 48.9374C65.3899 49.0123 65.2508 49.0932 65.1144 49.177C65.0369 48.3636 64.8036 47.5512 64.3983 46.7823C62.722 43.6027 58.7618 42.3719 55.5532 44.033C52.4995 45.614 51.2291 49.2443 52.5584 52.3321C51.2331 52.1353 49.8355 52.3367 48.5568 52.9986C45.3657 54.6507 44.121 58.5409 45.7565 61.711C44.814 61.7462 43.8642 61.9838 42.9726 62.4453C39.7639 64.1065 38.5218 68.0307 40.1982 71.2103C40.5882 71.9499 41.103 72.5825 41.7019 73.0994C40.5695 73.0405 39.407 73.2707 38.329 73.8289C35.1203 75.4902 33.8782 79.4143 35.5546 82.5938C37.2309 85.7734 41.1911 87.0042 44.3997 85.343C45.5417 84.7518 46.4329 83.8732 47.0337 82.8445C48.9932 84.3191 51.7122 84.635 54.0373 83.4312C54.8705 82.9999 55.5696 82.415 56.121 81.7311C57.8147 84.8675 61.7451 86.0742 64.9341 84.423C66.5 83.6123 67.5959 82.262 68.1143 80.723C69.8639 83.7118 73.6953 84.8329 76.8165 83.217C80.0252 81.556 81.2673 77.6318 79.5909 74.4522Z" fill="url(#paint58_linear)"/>
<path d="M79.5824 74.2185C78.7556 72.6754 77.3775 71.5964 75.8072 71.0877C76.2252 70.9698 76.6374 70.8099 77.0379 70.6059C80.2742 68.9572 81.527 65.0622 79.8362 61.9063C78.6246 59.6449 76.2302 58.3772 73.7794 58.4467C75.2376 56.5247 75.5378 53.884 74.3261 51.6227C72.6353 48.4669 68.641 47.2452 65.4046 48.894C65.2588 48.9683 65.1185 49.0486 64.9809 49.1317C64.9027 48.3244 64.6674 47.5181 64.2586 46.7549C62.6594 43.7702 59.0003 42.5172 55.8702 43.7848C56.0403 44.6666 55.9804 45.6026 55.6473 46.5085L55.6452 46.5141C55.5938 46.6539 55.6171 46.8008 55.6922 46.9149C55.7511 47.0044 73.5009 74.656 78.1885 81.9585C80.3467 80.0333 81.0009 76.8662 79.5824 74.2185Z" fill="url(#paint59_linear)"/>
<path d="M55.7888 46.1316L55.7909 46.126C56.3741 44.5418 56.1223 42.8647 55.2581 41.5488C55.1411 41.3706 55.2285 41.1332 55.4351 41.068C56.961 40.5865 58.2498 39.4474 58.8331 37.8634L58.8352 37.8578C58.9331 37.592 59.256 37.4736 59.5052 37.6179C59.8217 37.8012 60.1607 37.9576 60.5204 38.0834C61.5104 38.4291 62.5331 38.4983 63.4996 38.3326C63.5692 38.3206 63.6021 38.2412 63.5617 38.1846L61.408 35.1704C61.1467 34.8046 61.0899 34.3316 61.2731 33.9233C61.9254 32.4693 61.9541 30.7592 61.2038 29.2117C61.0407 28.8753 60.8479 28.5618 60.6301 28.2727C60.4584 28.045 60.5481 27.7206 60.8103 27.6L60.8159 27.5973C62.3786 26.8789 63.4182 25.5195 63.7626 23.9938C63.8096 23.7864 64.0426 23.6792 64.2369 23.7757C65.6654 24.4861 67.4038 24.568 68.9664 23.8495L68.972 23.8469C69.2342 23.7264 69.5484 23.8651 69.6198 24.1388C69.7107 24.4865 69.8367 24.8305 69.9997 25.1671C70.7499 26.7145 72.124 27.7797 73.6912 28.2131C74.1313 28.3347 74.4703 28.678 74.5942 29.107L75.6156 32.6419C75.6348 32.7082 75.7187 32.7341 75.7724 32.6893C76.5178 32.0676 77.1128 31.2546 77.4678 30.2905C77.5967 29.9403 77.6879 29.5857 77.7439 29.2312C77.788 28.952 78.087 28.7845 78.3599 28.88L78.3656 28.8821C79.9923 29.4501 81.7145 29.2048 83.0656 28.3632C83.2486 28.2493 83.4924 28.3343 83.5594 28.5356C84.0537 30.0216 85.2234 31.2768 86.8499 31.8447L86.8557 31.8468C87.1286 31.9422 87.25 32.2568 87.1018 32.4997C86.9138 32.8079 86.753 33.1379 86.624 33.4882C86.0335 35.092 86.2275 36.7838 87.0127 38.1662C87.2379 38.5625 87.24 39.043 87.0123 39.438L84.8923 43.1195C84.6117 43.6069 84.822 44.2199 85.3437 44.4528C86.1474 44.8118 86.9063 45.2485 87.6096 45.7533C87.9128 45.971 87.8975 46.4191 87.5815 46.6187C85.4593 47.9595 82.9111 48.707 80.1911 48.6275C79.8217 48.6166 79.4563 48.5908 79.0959 48.5505C77.0574 48.3224 75.078 49.2326 73.9635 50.9105C73.7663 51.2073 73.5548 51.4983 73.3285 51.7832C71.6631 53.8791 69.4513 55.3202 67.0397 56.0643C66.6805 56.1751 66.3154 55.902 66.3356 55.5355C66.3824 54.6859 66.5184 53.8379 66.7443 53.0052C66.891 52.4649 66.5386 51.9172 65.9739 51.8186L61.7078 51.0735C61.25 50.9937 60.8704 50.6867 60.6991 50.2657C60.1021 48.7969 58.8839 47.5759 57.2369 47.0009C56.8773 46.8754 56.5136 46.7866 56.1496 46.7322C55.8633 46.6888 55.6911 46.3975 55.7888 46.1316Z" fill="url(#paint60_linear)"/>
<path d="M56.1496 46.7313C56.5136 46.786 56.8777 46.8752 57.2371 47C58.884 47.5757 60.1024 48.7963 60.6993 50.2655C60.8707 50.6864 61.2506 50.9933 61.7077 51.0733L65.9739 51.818C66.5388 51.9168 66.8915 52.4649 66.7445 53.0044C66.5188 53.8375 66.3822 54.6857 66.3362 55.5353C66.3154 55.9015 66.6806 56.1747 67.0397 56.0643C69.4509 55.3198 71.6635 53.8787 73.3287 51.7828C73.5548 51.4981 73.766 51.2069 73.9636 50.9103C74.5211 50.0715 75.2938 49.4241 76.1832 49.0152L83.3692 28.3373C83.2748 28.2991 83.1624 28.3036 83.066 28.3634C81.7144 29.2049 79.9927 29.4499 78.3654 28.8823L78.3602 28.8798C78.087 28.7844 77.7881 28.9516 77.7441 29.2314C77.6879 29.5859 77.5963 29.9403 77.4682 30.2905C77.1126 31.2546 76.5176 32.0673 75.7724 32.6897C75.7191 32.7343 75.6346 32.7088 75.6157 32.6415L74.5942 29.1073C74.532 28.8937 74.4168 28.7007 74.2623 28.5468C74.1078 28.3911 73.9121 28.2744 73.6912 28.2136C72.1239 27.78 70.7499 26.7145 69.9996 25.167C69.8367 24.8307 69.7104 24.487 69.6198 24.1394C69.5482 23.8658 69.2342 23.7266 68.9719 23.8472L68.9663 23.8499C67.4041 24.5683 65.665 24.4864 64.2369 23.7757C64.0424 23.6797 63.8099 23.7865 63.7624 23.9938C63.4185 25.5195 62.3783 26.8792 60.8159 27.5975L60.8103 27.6001C60.548 27.7208 60.4588 28.0454 60.6302 28.273C60.8482 28.562 61.0406 28.8753 61.2038 29.2117C61.954 30.7592 61.9256 32.4695 61.2737 33.9235C61.0897 34.332 61.147 34.8044 61.4085 35.1705L63.5615 38.1845C63.6029 38.2415 63.5696 38.3212 63.5001 38.333C62.533 38.4979 61.5107 38.4289 60.5203 38.0837C60.1611 37.9576 59.8219 37.8013 59.5051 37.6182C59.2565 37.474 58.9329 37.592 58.8349 37.8581L58.8336 37.8635C58.2496 39.4477 56.9614 40.5869 55.4353 41.0687C55.229 41.1337 55.1409 41.3713 55.2585 41.5488C56.1226 42.865 56.3741 44.542 55.7913 46.1266L55.7888 46.1316C55.6906 46.3973 55.8636 46.6887 56.1496 46.7313Z" fill="url(#paint61_linear)"/>
<path d="M73.9635 50.9102C73.7663 51.207 73.5548 51.498 73.3285 51.7829C71.6631 53.8788 69.4513 55.3199 67.0397 56.064C66.6805 56.1748 66.3155 55.9017 66.3357 55.5352C66.3824 54.6856 66.5185 53.8376 66.7444 53.0048C66.891 52.4646 66.5387 51.9169 65.9739 51.8183L61.7078 51.0732C61.25 50.9932 60.8704 50.6864 60.6992 50.2654C60.1021 48.7966 58.8839 47.5756 57.237 47.0005C56.8773 46.8749 56.5137 46.7861 56.1496 46.7317C55.8629 46.6888 55.6907 46.3978 55.7884 46.1319L55.7906 46.1263C56.3738 44.5421 56.1219 42.8649 55.2578 41.5491C55.1408 41.3708 55.2281 41.1334 55.4348 41.0682C56.9607 40.5868 58.2495 39.4477 58.8327 37.8636L58.8348 37.858C58.9328 37.5923 59.2556 37.4739 59.5048 37.6182C59.8213 37.8014 60.1604 37.9579 60.52 38.0836C61.51 38.4294 62.5327 38.4985 63.4992 38.3329C63.5689 38.3209 63.6018 38.2414 63.5614 38.1848L61.4076 35.1706C61.1463 34.8048 61.0896 34.3319 61.2727 33.9235C61.925 32.4696 61.9537 30.7594 61.2035 29.212C61.0403 28.8756 60.8475 28.5621 60.6297 28.2729C60.4581 28.0453 60.5477 27.7209 60.81 27.6002L60.8156 27.5976C62.3782 26.8791 63.4178 25.5198 63.7623 23.9941C63.7857 23.8902 63.8558 23.8115 63.9441 23.7709L76.1831 49.0155C75.2943 49.4244 74.5208 50.0712 73.9635 50.9102Z" fill="url(#paint62_linear)"/>
<path d="M56.1496 46.7313C56.5136 46.786 56.8777 46.8752 57.2371 47C58.884 47.5757 60.1024 48.7964 60.6993 50.2655C60.8708 50.6864 61.2506 50.9933 61.7078 51.0733L65.9739 51.818C66.5388 51.9168 66.8915 52.4649 66.7445 53.0044C66.5188 53.8376 66.3822 54.6857 66.3362 55.5353C66.3154 55.9015 66.6806 56.1747 67.0397 56.0643C69.4509 55.3198 71.6635 53.8788 73.3287 51.7828C73.5548 51.4982 73.7661 51.207 73.9637 50.9103C74.5207 50.0708 75.2939 49.4241 76.1832 49.0152L55.2219 41.2799C55.1929 41.3663 55.2029 41.4645 55.2585 41.5486C56.1227 42.8649 56.3741 44.5418 55.7913 46.1264L55.7888 46.1315C55.6907 46.3974 55.8637 46.6888 56.1496 46.7313Z" fill="url(#paint63_linear)"/>
<path d="M73.1576 42.7745L75.547 36.2844C71.8664 34.9991 67.813 36.8631 66.4932 40.4475L73.1576 42.7745Z" fill="url(#paint64_linear)"/>
<path d="M70.782 37.8746L73.1714 31.3845C69.4908 30.0992 65.4374 31.9632 64.1176 35.5476L70.782 37.8746Z" fill="url(#paint65_linear)"/>
<path d="M68.4065 32.9745L70.7959 26.4844C67.1153 25.1991 63.0619 27.063 61.7421 30.6475L68.4065 32.9745Z" fill="url(#paint66_linear)"/>
<path d="M77.6558 44.9576L83.9998 41.897C82.2642 38.4848 78.0167 37.0891 74.5132 38.7793L77.6558 44.9576Z" fill="url(#paint67_linear)"/>
<path d="M79.0901 40.7601L85.4341 37.6995C83.6985 34.2872 79.4511 32.8916 75.9475 34.5818L79.0901 40.7601Z" fill="url(#paint68_linear)"/>
<path d="M80.672 36.1065L85.7014 33.6802C86.076 33.4995 86.2292 33.0573 86.0437 32.6924L85.9979 32.6023C84.6473 29.9472 81.3422 28.8608 78.6156 30.1761L78.523 30.2207C78.1484 30.4014 77.9952 30.8436 78.1807 31.2085L80.672 36.1065Z" fill="url(#paint69_linear)"/>
<path d="M72.1838 48.0116L65.7261 50.8374C64.1236 47.3641 65.7157 43.2831 69.2822 41.7225L72.1838 48.0116Z" fill="url(#paint70_linear)"/>
<path d="M67.6158 46.0361L61.1581 48.862C59.5556 45.3887 61.1477 41.3077 64.7142 39.7471L67.6158 46.0361Z" fill="url(#paint71_linear)"/>
<path d="M62.9025 44.1167L57.9006 46.3054C57.5281 46.4684 57.0904 46.3065 56.9231 45.9437L56.8818 45.8542C55.6634 43.2134 56.8739 40.1106 59.5856 38.9241L59.6776 38.8838C60.0501 38.7207 60.4879 38.8827 60.6553 39.2454L62.9025 44.1167Z" fill="url(#paint72_linear)"/>
<path d="M76.7117 48.8071C76.3502 48.9266 76.0062 49.0852 75.6813 49.2799C75.5313 49.1071 75.3165 48.9926 75.0783 48.9669C74.7293 48.9268 74.3027 48.8732 74.1433 48.8371C73.5726 48.7115 73.0258 48.552 72.487 48.3879C72.3814 48.3562 72.2784 48.3229 72.1741 48.2904L71.6488 48.4896C71.417 48.5732 71.1861 48.6615 70.9531 48.7406C70.7195 48.8217 70.4868 48.904 70.2521 48.9804C70.0183 49.0582 69.782 49.132 69.5455 49.206C69.4291 49.2428 69.3096 49.2778 69.1903 49.3128C69.0731 49.3485 68.9536 49.3833 68.8347 49.4163C68.5965 49.4843 68.3566 49.5497 68.1164 49.6119L68.1008 49.616C67.8288 49.685 67.6781 49.3179 67.924 49.185L67.9371 49.1772C68.1555 49.061 68.3748 48.9461 68.5952 48.8358C68.7048 48.7799 68.8155 48.7254 68.9269 48.6722C69.0375 48.6176 69.1486 48.561 69.2596 48.5099C69.4832 48.4047 69.707 48.2994 69.9317 48.199C70.1549 48.0959 70.3821 47.9992 70.6071 47.902C70.6675 47.8742 70.7283 47.8499 70.7897 47.8235C70.3108 47.6565 69.8397 47.4848 69.3808 47.3094C68.802 47.0915 68.2419 46.8711 67.6962 46.6508C67.6132 46.6832 67.5309 46.7135 67.4472 46.7447C67.2859 46.7997 67.1272 46.8584 66.9654 46.9122C66.8026 46.9646 66.6413 47.0196 66.4776 47.0675C66.3154 47.1179 66.1505 47.1644 65.985 47.2098C65.9028 47.2347 65.8195 47.2551 65.737 47.2767C65.6537 47.2969 65.5711 47.3186 65.487 47.3376C65.319 47.379 65.1513 47.4149 64.9814 47.4506C64.9744 47.4511 64.9663 47.4526 64.9602 47.4545C64.6995 47.5043 64.56 47.1657 64.7845 47.028L64.8028 47.0169C64.9509 46.9274 65.0987 46.8398 65.2482 46.7581C65.3225 46.715 65.397 46.6751 65.473 46.6347C65.5488 46.5942 65.6225 46.5529 65.7 46.5149C65.8507 46.4379 66.0029 46.3601 66.1568 46.2882C66.2575 46.2379 66.3583 46.1911 66.4601 46.1454C65.5919 45.7839 64.7379 45.3484 63.9867 45.0135C63.6837 44.8801 63.392 44.7504 63.1122 44.6223L63.0247 44.6558C62.6675 44.7939 62.3002 44.9047 61.9161 44.9776C61.8692 44.9865 61.8191 44.9937 61.7714 45.0014C61.7224 45.0098 61.6745 45.0175 61.625 45.0225C61.5273 45.0373 61.4276 45.0463 61.3271 45.054C61.3135 45.0553 61.2996 45.0564 61.2873 45.057C61.0578 45.0701 60.9436 44.7888 61.1193 44.6455C61.1295 44.6357 61.1391 44.6281 61.149 44.6206C61.2277 44.5587 61.306 44.4991 61.3866 44.4433C61.426 44.4141 61.4672 44.3875 61.5076 44.3595C61.5488 44.3329 61.5879 44.3058 61.6298 44.2805C61.7391 44.2126 61.8503 44.1506 61.9612 44.0906C61.3042 43.7872 60.7395 43.5112 60.2767 43.2869C59.8328 43.0723 59.8905 42.9436 60.3545 43.1124C60.839 43.2882 61.4328 43.5043 62.1164 43.7526C62.0718 43.6257 62.0285 43.4979 61.9925 43.3675C61.9677 43.2745 61.9438 43.1829 61.9231 43.0875C61.903 42.9935 61.8857 42.8979 61.8709 42.8006C61.8696 42.7873 61.8674 42.7725 61.8655 42.7579C61.8355 42.5372 62.1149 42.4054 62.275 42.5651C62.285 42.575 62.2948 42.5849 62.3056 42.596C62.3739 42.6661 62.4405 42.7392 62.5044 42.8137C62.5675 42.887 62.6279 42.962 62.6871 43.0377C62.9207 43.3441 63.117 43.666 63.2848 44.0033L63.3901 44.2139C63.6521 44.3086 63.9221 44.4071 64.2015 44.5089C64.9981 44.795 65.898 45.1833 66.8089 45.5118C66.8505 45.5257 66.895 45.5412 66.9373 45.5562C66.9165 45.5122 66.8957 45.4681 66.8774 45.4226C66.8122 45.2691 66.7445 45.1172 66.6833 44.9614C66.6208 44.8063 66.5609 44.6498 66.5022 44.4922C66.4435 44.3348 66.3885 44.177 66.335 44.0164C66.2825 43.8571 66.2325 43.6962 66.1853 43.5337C66.183 43.5245 66.1795 43.5161 66.1772 43.5067C66.1072 43.2571 66.4443 43.0991 66.6019 43.3066C66.6081 43.3135 66.6131 43.3212 66.62 43.3293C66.7195 43.4655 66.8199 43.6028 66.9163 43.7428C67.0119 43.8813 67.1058 44.0228 67.1961 44.1646C67.2879 44.3056 67.377 44.4482 67.462 44.593C67.5498 44.7364 67.6315 44.8816 67.7152 45.0272C67.7574 45.099 67.7957 45.1732 67.8351 45.2466L67.9559 45.4674L68.184 45.9134L68.2375 46.0172C68.7093 46.1814 69.1901 46.3487 69.6802 46.516C70.1967 46.6903 70.7227 46.8659 71.2555 47.0374L71.2426 47.0115C71.1928 46.9019 71.1401 46.7939 71.0908 46.6822C70.9923 46.4623 70.8903 46.2424 70.7972 46.0193C70.6993 45.7972 70.6059 45.574 70.5153 45.3491C70.4233 45.1252 70.334 44.8996 70.2473 44.6725C70.1613 44.4467 70.0774 44.2179 69.9965 43.9889L69.9896 43.9666C69.8998 43.7059 70.264 43.5335 70.4174 43.7627L70.4304 43.7831C70.5663 43.9876 70.6987 44.1924 70.8286 44.3989C70.9584 44.6052 71.0847 44.8119 71.2094 45.0216C71.3331 45.2298 71.4564 45.4402 71.5748 45.6518C71.6971 45.8609 71.8118 46.0747 71.929 46.2869C71.9877 46.3929 72.0427 46.4994 72.1001 46.6064L72.2692 46.9287L72.5255 47.4301C72.6061 47.4539 72.6854 47.4785 72.766 47.5023C73.2929 47.6561 73.8262 47.7972 74.3565 47.9134C74.6155 47.9691 74.8732 48.0169 75.122 48.0451L72.6883 43.0264L72.1682 42.8207L71.7908 42.665C71.6646 42.6121 71.5376 42.5615 71.4131 42.5059C71.1632 42.3987 70.9105 42.2932 70.6619 42.1798C70.4124 42.0706 70.1638 41.9572 69.9157 41.8419C69.669 41.7258 69.4214 41.6083 69.177 41.487C68.9313 41.3667 68.6873 41.2434 68.4431 41.1169L68.4191 41.1049C68.1695 40.9728 68.3213 40.6012 68.5965 40.6737L68.6229 40.6809C68.8882 40.7523 69.1518 40.8265 69.4156 40.9039C69.6794 40.9814 69.9407 41.0605 70.2022 41.143C70.4637 41.2254 70.7241 41.3086 70.9827 41.3982C71.2425 41.4835 71.4993 41.5758 71.7581 41.6654C71.8878 41.7091 72.015 41.7578 72.143 41.8043L72.2297 41.835C72.0623 41.4585 71.8921 41.0802 71.7191 40.7035C71.4104 40.0285 71.1024 39.3547 70.7989 38.6908C70.7726 38.6323 70.7449 38.5748 70.7187 38.5163L70.6912 38.5047L70.1666 38.2946L69.9059 38.185C69.8199 38.1468 69.732 38.1115 69.6471 38.0726C69.4755 37.9942 69.3027 37.9198 69.1328 37.8387C68.9615 37.7583 68.7922 37.6749 68.6227 37.5915C68.4537 37.5061 68.2875 37.4191 68.1208 37.3288C67.9529 37.2392 67.7882 37.1461 67.6238 37.0509C67.615 37.0457 67.6071 37.0415 67.5982 37.0363C67.3689 36.8989 67.5101 36.5534 67.7739 36.6079C67.7832 36.6111 67.793 36.6122 67.8028 36.6133C67.989 36.6546 68.1747 36.698 68.3594 36.7456C68.5434 36.7919 68.7275 36.8414 68.9092 36.8927C69.0916 36.9452 69.2727 36.9984 69.453 37.0558C69.635 37.1103 69.812 37.1714 69.9915 37.2308C70.05 37.2484 70.1055 37.2698 70.1622 37.2904C70.0779 37.1043 69.9946 36.9194 69.9115 36.7378C69.6267 36.1031 69.3502 35.4899 69.0885 34.9086C68.8688 34.4186 68.6615 33.9513 68.4645 33.5113L68.2255 33.4187C67.8297 33.2652 67.4451 33.0838 67.0789 32.8629C66.9856 32.8078 66.895 32.7512 66.8053 32.6903C66.7143 32.6303 66.6265 32.5666 66.5392 32.5009C66.5288 32.493 66.5182 32.4851 66.507 32.4761C66.3215 32.3335 66.4408 32.0419 66.6771 32.0618C66.6904 32.0625 66.7037 32.0635 66.7177 32.0655C66.8284 32.0766 66.9363 32.0892 67.0441 32.1071C67.1524 32.1231 67.2588 32.1418 67.3643 32.1647C67.5544 32.2037 67.7412 32.2516 67.9267 32.3058C67.6612 31.7125 67.4351 31.2069 67.2623 30.8108C67.0002 30.2173 67.1137 30.1645 67.4185 30.7394C67.6231 31.12 67.8805 31.6119 68.1834 32.1896C68.2577 32.0155 68.3379 31.8448 68.4287 31.6767C68.4512 31.6295 68.4803 31.5836 68.5049 31.5369C68.5317 31.4906 68.5573 31.4451 68.5861 31.3994C68.6406 31.3081 68.6993 31.2178 68.7601 31.1278C68.7674 31.1164 68.7741 31.107 68.7808 31.0977C68.9153 30.9067 69.223 31.0019 69.218 31.2332C69.2184 31.2453 69.2169 31.257 69.2172 31.2689C69.2136 31.3773 69.2084 31.4831 69.1976 31.5886C69.1938 31.6422 69.1868 31.6943 69.1809 31.7474C69.1753 31.7985 69.1701 31.853 69.1611 31.9044C69.1028 32.32 69.0023 32.724 68.8749 33.1196L68.7972 33.3595C69.0208 33.7869 69.2584 34.2395 69.5082 34.7168C69.8018 35.2825 70.1133 35.8795 70.4349 36.4973C70.5267 36.6754 70.62 36.856 70.7133 37.0367C70.7331 36.9823 70.7533 36.9257 70.7753 36.8718C70.8415 36.699 70.9067 36.5251 70.9779 36.3546C71.0483 36.1829 71.1216 36.0129 71.1961 35.842C71.2311 35.7572 71.2715 35.6726 71.3098 35.5874C71.3491 35.5034 71.3873 35.4183 71.4287 35.335C71.5084 35.1665 71.5923 34.9988 71.6771 34.8326C71.7495 34.695 71.818 34.5492 72.0712 34.7837C72.122 34.829 72.1472 34.897 72.1368 34.9634C72.1358 34.9675 72.136 34.9709 72.1351 34.975C72.1068 35.1584 72.0749 35.3423 72.0402 35.5242C72.0248 35.6168 72.0042 35.7071 71.9858 35.7978C71.9673 35.8885 71.9498 35.9807 71.9284 36.0697C71.8872 36.2504 71.8463 36.4308 71.8008 36.6105C71.7589 36.7899 71.7085 36.9671 71.6602 37.145C71.6127 37.3241 71.558 37.5005 71.5055 37.6774C71.453 37.8542 71.3962 38.0302 71.3406 38.2052L71.3315 38.2337C71.3606 38.2905 71.3895 38.3473 71.4197 38.4033C71.7531 39.0545 72.091 39.7154 72.4302 40.3756C72.6192 40.7461 72.8114 41.113 73.0037 41.4799C73.0577 41.3251 73.1116 41.1703 73.1697 41.0167C73.2615 40.7646 73.3521 40.5135 73.4491 40.2637C73.544 40.0136 73.6442 39.7634 73.7441 39.5155C73.7931 39.3903 73.8453 39.2666 73.8974 39.1431C73.9486 39.0183 74.0008 38.8948 74.055 38.7719C74.1605 38.5242 74.2696 38.2793 74.3816 38.033L74.3885 38.0182C74.5053 37.7654 74.8974 37.8874 74.842 38.1597L74.8393 38.1754C74.7839 38.4389 74.7268 38.6999 74.6663 38.9614C74.6371 39.0922 74.6059 39.2226 74.5724 39.3526C74.5411 39.4831 74.512 39.614 74.4764 39.7433C74.4108 40.0025 74.3433 40.2609 74.2721 40.5199C74.2036 40.7772 74.1274 41.0339 74.0533 41.291C73.9792 41.5481 73.9001 41.803 73.8218 42.0591L73.6563 42.5803L76.0899 47.599C76.2244 47.3938 76.3508 47.1704 76.471 46.9403C76.7146 46.4673 76.9432 45.9769 77.1549 45.4826C77.1886 45.4072 77.2182 45.331 77.2511 45.2545L77.0158 44.7457L76.8691 44.4133C76.8205 44.3029 76.7706 44.1933 76.7246 44.0813C76.6302 43.8588 76.5334 43.636 76.4449 43.4117C76.3529 43.1878 76.2636 42.9622 76.1776 42.7364C76.0908 42.5092 76.0063 42.2825 75.9257 42.0535C75.8438 41.8253 75.7666 41.5959 75.6898 41.3645L75.6829 41.3422C75.599 41.0796 75.9669 40.9157 76.1172 41.1486L76.1293 41.1677C76.26 41.3753 76.3885 41.5826 76.513 41.7921C76.6367 42.0005 76.76 42.2107 76.8784 42.4223C76.999 42.6342 77.1162 42.8465 77.2307 43.0604C77.3479 43.2727 77.4578 43.4876 77.5695 43.7029C77.6269 43.8099 77.6802 43.9192 77.7341 44.0264L77.7462 44.0509C77.948 43.5412 78.1435 43.0356 78.3317 42.5358C78.512 42.0606 78.686 41.5925 78.8545 41.1332L78.8056 41.0283L78.5988 40.5729L78.4993 40.3428C78.4664 40.2654 78.4329 40.1901 78.4025 40.1112C78.3408 39.9573 78.275 39.8026 78.2184 39.6457C78.1585 39.489 78.102 39.3322 78.0481 39.1737C77.9929 39.0159 77.9417 38.8559 77.8918 38.6949C77.842 38.5339 77.7968 38.372 77.7529 38.2092C77.7506 38.2 77.7472 38.1916 77.7448 38.1822C77.6815 37.932 78.0221 37.7791 78.1743 37.9895C78.1801 37.9985 78.1849 38.0062 78.1911 38.013C78.2888 38.152 78.3852 38.2918 78.4783 38.432C78.5709 38.5742 78.6613 38.7159 78.7498 38.8605C78.8376 39.0039 78.9226 39.1487 79.0044 39.294C79.0897 39.4388 79.1674 39.5865 79.2486 39.7338C79.2721 39.7761 79.2934 39.8181 79.3156 39.8614C79.3311 39.8202 79.3458 39.7776 79.36 39.7373C79.6808 38.8442 79.944 37.9208 80.2222 37.1403C80.3196 36.8656 80.4148 36.5991 80.5057 36.3424L80.4064 36.1299C80.2459 35.7898 80.1141 35.4378 80.02 35.0681C79.9973 34.9757 79.9752 34.8811 79.9586 34.7867C79.9399 34.6918 79.9238 34.5953 79.9113 34.4986C79.9099 34.4853 79.908 34.4705 79.9067 34.4572C79.8828 34.2346 80.1641 34.1087 80.3209 34.2721C80.3309 34.282 80.341 34.2919 80.3494 34.3026C80.4173 34.3748 80.4826 34.4486 80.5438 34.5249C80.6063 34.6002 80.6642 34.6768 80.7221 34.7533C80.8033 34.8635 80.877 34.9763 80.9482 35.0908C81.1855 34.4199 81.3916 33.8371 81.5607 33.3614C81.721 32.9034 81.8607 32.9429 81.7479 33.4127C81.6336 33.9029 81.4937 34.5043 81.3167 35.1899C81.4352 35.1448 81.5543 35.1011 81.6769 35.0623C81.7233 35.0468 81.7698 35.0344 81.818 35.0213C81.8651 35.0068 81.9109 34.9933 81.9598 34.9815C82.0552 34.9574 82.1524 34.9358 82.2524 34.9161C82.264 34.9145 82.2771 34.9118 82.29 34.9094C82.517 34.8695 82.6663 35.1348 82.5091 35.2988C82.5003 35.3078 82.4914 35.3166 82.4833 35.3267C82.4125 35.3979 82.3413 35.4658 82.2684 35.531C82.2334 35.5645 82.1968 35.5954 82.1589 35.6273C82.1224 35.6582 82.0845 35.6901 82.0471 35.7197C81.7456 35.9622 81.4235 36.1694 81.0877 36.3495L81.0079 36.3924C80.9309 36.6849 80.8472 36.9868 80.762 37.3003C80.5493 38.0784 80.3529 38.9953 80.0872 39.8779C80.188 39.831 80.2898 39.7855 80.391 39.7418C80.5466 39.6725 80.7046 39.6069 80.8614 39.5423C80.9401 39.5089 81.0211 39.4793 81.1006 39.4473C81.1809 39.4163 81.2611 39.3856 81.3409 39.3568C81.5022 39.2964 81.6648 39.2406 81.8289 39.1873C81.8362 39.1847 81.8437 39.1819 81.851 39.1793C82.1035 39.0993 82.2821 39.4193 82.0771 39.5822C82.0714 39.5874 82.0656 39.5927 82.0604 39.5959C81.9249 39.7025 81.7891 39.8059 81.6509 39.9054C81.5817 39.9562 81.5128 40.0049 81.4418 40.0533C81.3715 40.1028 81.3036 40.1528 81.2317 40.1998C81.0902 40.2943 80.95 40.3878 80.806 40.4785C80.6638 40.5716 80.5174 40.6584 80.3731 40.7457C80.2284 40.8351 80.0796 40.9179 79.9336 41.0026C79.8572 41.0453 79.7801 41.0866 79.7037 41.1293C79.5299 41.6802 79.349 42.2428 79.1543 42.8152C79.0008 43.2727 78.8372 43.7342 78.6667 44.2019C78.7256 44.1718 78.7831 44.1422 78.8414 44.1141C79.0643 44.0076 79.2846 43.8972 79.5085 43.7955C79.73 43.6898 79.9561 43.5884 80.1809 43.488C80.2938 43.4374 80.4073 43.39 80.5211 43.3405C80.6336 43.292 80.7475 43.2425 80.862 43.1943C81.09 43.099 81.3206 43.0073 81.5505 42.9177L81.5653 42.9123C81.8282 42.8117 82.0219 43.1582 81.7939 43.3191L81.7822 43.3263C81.5799 43.4679 81.3762 43.6072 81.1709 43.7438C81.0693 43.8124 80.9646 43.8791 80.8622 43.9463C80.7589 44.0123 80.6552 44.0803 80.5511 44.1452C80.3425 44.2767 80.1343 44.4062 79.9236 44.5317C79.7133 44.6607 79.501 44.7838 79.2888 44.9069C79.0773 45.0313 78.8618 45.1492 78.6475 45.2718L78.1564 45.5388C78.1166 45.6389 78.0762 45.7378 78.0342 45.8373C77.8233 46.3472 77.6015 46.8599 77.3385 47.3675C77.2648 47.5113 77.0364 47.8653 76.8459 48.1538C76.7164 48.3495 76.6713 48.5839 76.7117 48.8071Z" fill="url(#paint73_linear)"/>
<path d="M84.2917 61.3371L84.751 59.4025C84.0558 59.1389 83.4673 58.6661 83.0674 58.0322L81.2499 55.1506L79.5486 56.191L81.3661 59.0725C82.049 60.1547 83.0763 60.9457 84.2917 61.3371Z" fill="url(#paint74_linear)"/>
<path d="M76.1227 47.9331L75.3867 48.4124L78.5 54.6351L80.0689 53.6545L76.1227 47.9331Z" fill="url(#paint75_linear)"/>
<path d="M59.4997 57.5745C57.4126 52.9468 52.3727 50.4669 47.4719 51.7001C46.2211 52.0149 44.8565 52.1994 43.4274 52.2236C41.9975 52.248 40.6313 52.1094 39.3785 51.8365C34.5628 50.7877 29.5813 53.3118 27.4771 57.8921C26.3953 60.2469 25.7928 63.0844 25.7989 66.4354C25.8112 73.29 28.3644 79.3649 32.351 83.31C34.7706 85.7042 38.0304 86.4538 40.9842 85.1933C41.7545 84.8647 42.5992 84.6761 43.4858 84.6611C44.3723 84.6461 45.2179 84.8061 45.9891 85.1086C48.9472 86.2688 52.2042 85.409 54.6149 82.9331C58.587 78.8534 61.1183 72.6925 61.106 65.8377C61.1002 62.5933 60.5258 59.8496 59.4997 57.5745Z" fill="url(#paint76_linear)"/>
<ellipse cx="50.7206" cy="71.9427" rx="1.98019" ry="2.02633" transform="rotate(20 50.7206 71.9427)" fill="url(#paint77_linear)"/>
<ellipse cx="51.2714" cy="77.7634" rx="1.10027" ry="1.12591" transform="rotate(20 51.2714 77.7634)" fill="url(#paint78_linear)"/>
<ellipse cx="48.6722" cy="75.4427" rx="1.48752" ry="1.52218" transform="rotate(20 48.6722 75.4427)" fill="url(#paint79_linear)"/>
<path d="M59.4998 57.5744C58.3068 54.9291 56.1479 52.9872 53.6026 52.038C54.5908 52.9662 55.4137 54.0997 56.0019 55.404C57.0279 57.6792 57.6024 60.4229 57.6082 63.6672C57.6205 70.5218 55.0892 76.6827 51.1171 80.7624C48.7065 83.2384 45.4495 84.0982 42.4913 82.938C41.7201 82.6355 40.8745 82.4756 39.9879 82.4907C39.1014 82.5057 38.2565 82.6942 37.4864 83.0229C35.7918 83.746 33.9966 83.8065 32.3169 83.2752C32.3285 83.2865 32.3397 83.2986 32.3511 83.3099C34.7706 85.7041 38.0304 86.4537 40.9843 85.1933C41.7545 84.8646 42.5993 84.6761 43.4858 84.661C44.3724 84.646 45.2179 84.806 45.9891 85.1086C48.9473 86.2688 52.2043 85.409 54.6149 82.933C58.587 78.8533 61.1183 72.6924 61.106 65.8376C61.1003 62.5932 60.5259 59.8493 59.4998 57.5744Z" fill="url(#paint80_linear)"/>
<path d="M43.0642 55.0752C42.4052 55.0888 41.8809 54.5405 41.8932 53.8508C41.9805 48.9449 45.8649 44.8752 50.5516 44.7786C51.2106 44.765 51.735 45.3133 51.7228 46.0031C51.7105 46.6929 51.1662 47.2633 50.5072 47.2769C47.1365 47.3464 44.343 50.2733 44.2801 53.8017C44.2674 54.4913 43.7232 55.0615 43.0642 55.0752Z" fill="url(#paint81_linear)"/>
<path d="M43.3806 52.5108C41.9354 52.5473 40.5559 52.4155 39.292 52.1445C39.2254 52.1303 39.1585 52.1192 39.0919 52.1063C38.5767 52.5521 38.2748 53.0745 38.2715 53.6277C38.2624 55.1609 40.5395 56.3462 43.3579 56.2754C46.1764 56.2046 48.4683 54.9044 48.4776 53.3712C48.481 52.8181 48.1854 52.3107 47.6754 51.8907C47.6076 51.9071 47.5395 51.9215 47.4719 51.9394C46.2055 52.2735 44.8249 52.4745 43.3806 52.5108Z" fill="url(#paint82_linear)"/>
<defs>
<linearGradient id="paint0_linear" x1="44.3266" y1="48.2453" x2="54.1574" y2="45.2876" gradientUnits="userSpaceOnUse">
<stop stop-color="#FF931E"/>
<stop offset="0.569" stop-color="#FF760E"/>
<stop offset="1" stop-color="#FF5D00"/>
</linearGradient>
<linearGradient id="paint1_linear" x1="55.9186" y1="31.3872" x2="54.7276" y2="18.1181" gradientUnits="userSpaceOnUse">
<stop stop-color="#FF931E" stop-opacity="0.01"/>
<stop offset="1" stop-color="#FF5D00"/>
</linearGradient>
<linearGradient id="paint2_linear" x1="32.6397" y1="23.4182" x2="36.3154" y2="20.0116" gradientUnits="userSpaceOnUse">
<stop stop-color="#9EB644"/>
<stop offset="1" stop-color="#738611"/>
</linearGradient>
<linearGradient id="paint3_linear" x1="45.1733" y1="17.259" x2="41.0331" y2="16.6053" gradientUnits="userSpaceOnUse">
<stop stop-color="#9EB644"/>
<stop offset="1" stop-color="#738611"/>
</linearGradient>
<linearGradient id="paint4_linear" x1="35.9707" y1="18.0759" x2="39.4889" y2="16.4571" gradientUnits="userSpaceOnUse">
<stop stop-color="#9EB644"/>
<stop offset="1" stop-color="#738611"/>
</linearGradient>
<linearGradient id="paint5_linear" x1="36.5264" y1="22.3526" x2="44.9995" y2="26.3007" gradientUnits="userSpaceOnUse">
<stop stop-color="#9EB644"/>
<stop offset="1" stop-color="#738611"/>
</linearGradient>
<linearGradient id="paint6_linear" x1="11.8644" y1="41.9778" x2="23.1413" y2="58.3712" gradientUnits="userSpaceOnUse">
<stop stop-color="#FFA325"/>
<stop offset="1" stop-color="#5A6313"/>
</linearGradient>
<linearGradient id="paint7_linear" x1="1.1276" y1="71.21" x2="8.81348" y2="71.8243" gradientUnits="userSpaceOnUse">
<stop stop-color="#FFD945"/>
<stop offset="0.3043" stop-color="#FFCD3E"/>
<stop offset="0.8558" stop-color="#FFAD2B"/>
<stop offset="1" stop-color="#FFA325"/>
</linearGradient>
<linearGradient id="paint8_linear" x1="39.9019" y1="74.5924" x2="50.696" y2="76.0669" gradientUnits="userSpaceOnUse">
<stop stop-color="#FFD945"/>
<stop offset="0.3043" stop-color="#FFCD3E"/>
<stop offset="0.8558" stop-color="#FFAD2B"/>
<stop offset="1" stop-color="#FFA325"/>
</linearGradient>
<radialGradient id="paint9_radial" cx="0" cy="0" r="1" gradientUnits="userSpaceOnUse" gradientTransform="translate(41.3631 64.7398) scale(9.08768 14.9195)">
<stop stop-color="#FF7044"/>
<stop offset="0.3496" stop-color="#FC7048" stop-opacity="0.65"/>
<stop offset="0.7144" stop-color="#F37155" stop-opacity="0.286"/>
<stop offset="1" stop-color="#E87264" stop-opacity="0.01"/>
</radialGradient>
<linearGradient id="paint10_linear" x1="3.80679" y1="74.0859" x2="18.5815" y2="75.7418" gradientUnits="userSpaceOnUse">
<stop stop-color="#FFD945"/>
<stop offset="0.3043" stop-color="#FFCD3E"/>
<stop offset="0.8558" stop-color="#FFAD2B"/>
<stop offset="1" stop-color="#FFA325"/>
</linearGradient>
<linearGradient id="paint11_linear" x1="29.1097" y1="75.6965" x2="44.2304" y2="77.8171" gradientUnits="userSpaceOnUse">
<stop stop-color="#FFD945"/>
<stop offset="0.3043" stop-color="#FFCD3E"/>
<stop offset="0.8558" stop-color="#FFAD2B"/>
<stop offset="1" stop-color="#FFA325"/>
</linearGradient>
<radialGradient id="paint12_radial" cx="0" cy="0" r="1" gradientUnits="userSpaceOnUse" gradientTransform="translate(31.2735 64.4497) scale(12.1382 18.6101)">
<stop stop-color="#FF7044"/>
<stop offset="0.3433" stop-color="#FB7049" stop-opacity="0.657"/>
<stop offset="0.775" stop-color="#F07159" stop-opacity="0.225"/>
<stop offset="1" stop-color="#E87264" stop-opacity="0.01"/>
</radialGradient>
<linearGradient id="paint13_linear" x1="11.0684" y1="78.033" x2="33.4827" y2="81.0664" gradientUnits="userSpaceOnUse">
<stop stop-color="#FFD945"/>
<stop offset="0.3043" stop-color="#FFCD3E"/>
<stop offset="0.8558" stop-color="#FFAD2B"/>
<stop offset="1" stop-color="#FFA325"/>
</linearGradient>
<linearGradient id="paint14_linear" x1="20.0993" y1="72.7724" x2="23.4822" y2="76.2291" gradientUnits="userSpaceOnUse">
<stop stop-color="#E87264" stop-opacity="0.01"/>
<stop offset="1" stop-color="#FF7044"/>
</linearGradient>
<linearGradient id="paint15_linear" x1="21.8217" y1="78.4366" x2="23.3775" y2="80.0263" gradientUnits="userSpaceOnUse">
<stop stop-color="#E87264" stop-opacity="0.01"/>
<stop offset="1" stop-color="#FF7044"/>
</linearGradient>
<linearGradient id="paint16_linear" x1="17.7739" y1="76.3154" x2="20.8657" y2="79.4746" gradientUnits="userSpaceOnUse">
<stop stop-color="#E87264" stop-opacity="0.01"/>
<stop offset="1" stop-color="#FF7044"/>
</linearGradient>
<linearGradient id="paint17_linear" x1="31.838" y1="53.1594" x2="14.8452" y2="44.5029" gradientUnits="userSpaceOnUse">
<stop stop-color="#FFD945" stop-opacity="0.01"/>
<stop offset="1" stop-color="#FBED21"/>
</linearGradient>
<linearGradient id="paint18_linear" x1="27.3786" y1="85.6483" x2="45.6369" y2="93.6976" gradientUnits="userSpaceOnUse">
<stop stop-color="#E87264" stop-opacity="0.01"/>
<stop offset="1" stop-color="#FF7044"/>
</linearGradient>
<linearGradient id="paint19_linear" x1="29.9345" y1="41.2545" x2="27.6971" y2="41.2545" gradientUnits="userSpaceOnUse">
<stop stop-color="#5A6313" stop-opacity="0.01"/>
<stop offset="1" stop-color="#544F43"/>
</linearGradient>
<linearGradient id="paint20_linear" x1="23.1909" y1="42.9366" x2="25.5539" y2="43.3172" gradientUnits="userSpaceOnUse">
<stop stop-color="#5A6313" stop-opacity="0.01"/>
<stop offset="1" stop-color="#544F43"/>
</linearGradient>
<linearGradient id="paint21_linear" x1="99.4239" y1="70.8542" x2="97.122" y2="50.2175" gradientUnits="userSpaceOnUse">
<stop stop-color="#FFA325"/>
<stop offset="1" stop-color="#5A6313"/>
</linearGradient>
<linearGradient id="paint22_linear" x1="36.6483" y1="74.2467" x2="33.1858" y2="85.5534" gradientUnits="userSpaceOnUse">
<stop stop-color="#C4D143"/>
<stop offset="1" stop-color="#7C8A1A"/>
</linearGradient>
<linearGradient id="paint23_linear" x1="45.1187" y1="81.3645" x2="47.538" y2="73.4641" gradientUnits="userSpaceOnUse">
<stop stop-color="#C4D143" stop-opacity="0.01"/>
<stop offset="1" stop-color="#FFED82"/>
</linearGradient>
<linearGradient id="paint24_linear" x1="33.2003" y1="88.3262" x2="51.2569" y2="101.008" gradientUnits="userSpaceOnUse">
<stop stop-color="#7C8A1A" stop-opacity="0.01"/>
<stop offset="0.3152" stop-color="#768319" stop-opacity="0.315"/>
<stop offset="0.7806" stop-color="#646F15" stop-opacity="0.781"/>
<stop offset="1" stop-color="#5A6313"/>
</linearGradient>
<linearGradient id="paint25_linear" x1="41.321" y1="62.9556" x2="37.8585" y2="74.2622" gradientUnits="userSpaceOnUse">
<stop stop-color="#C4D143"/>
<stop offset="1" stop-color="#7C8A1A"/>
</linearGradient>
<linearGradient id="paint26_linear" x1="49.7913" y1="70.0734" x2="52.2106" y2="62.173" gradientUnits="userSpaceOnUse">
<stop stop-color="#C4D143" stop-opacity="0.01"/>
<stop offset="1" stop-color="#FFED82"/>
</linearGradient>
<linearGradient id="paint27_linear" x1="37.8731" y1="77.0352" x2="55.9299" y2="89.7174" gradientUnits="userSpaceOnUse">
<stop stop-color="#7C8A1A" stop-opacity="0.01"/>
<stop offset="0.3152" stop-color="#768319" stop-opacity="0.315"/>
<stop offset="0.7806" stop-color="#646F15" stop-opacity="0.781"/>
<stop offset="1" stop-color="#5A6313"/>
</linearGradient>
<linearGradient id="paint28_linear" x1="46.3474" y1="72.35" x2="42.8849" y2="83.6566" gradientUnits="userSpaceOnUse">
<stop stop-color="#C4D143"/>
<stop offset="1" stop-color="#7C8A1A"/>
</linearGradient>
<linearGradient id="paint29_linear" x1="54.8179" y1="79.4676" x2="57.2371" y2="71.5673" gradientUnits="userSpaceOnUse">
<stop stop-color="#C4D143" stop-opacity="0.01"/>
<stop offset="1" stop-color="#FFED82"/>
</linearGradient>
<linearGradient id="paint30_linear" x1="42.8996" y1="86.4295" x2="60.9564" y2="99.1115" gradientUnits="userSpaceOnUse">
<stop stop-color="#7C8A1A" stop-opacity="0.01"/>
<stop offset="0.3152" stop-color="#768319" stop-opacity="0.315"/>
<stop offset="0.7806" stop-color="#646F15" stop-opacity="0.781"/>
<stop offset="1" stop-color="#5A6313"/>
</linearGradient>
<linearGradient id="paint31_linear" x1="46.9406" y1="53.5852" x2="43.478" y2="64.8919" gradientUnits="userSpaceOnUse">
<stop stop-color="#C4D143"/>
<stop offset="1" stop-color="#7C8A1A"/>
</linearGradient>
<linearGradient id="paint32_linear" x1="55.4109" y1="60.7031" x2="57.8303" y2="52.8027" gradientUnits="userSpaceOnUse">
<stop stop-color="#C4D143" stop-opacity="0.01"/>
<stop offset="1" stop-color="#FFED82"/>
</linearGradient>
<linearGradient id="paint33_linear" x1="43.4927" y1="67.6647" x2="61.5493" y2="80.347" gradientUnits="userSpaceOnUse">
<stop stop-color="#7C8A1A" stop-opacity="0.01"/>
<stop offset="0.3152" stop-color="#768319" stop-opacity="0.315"/>
<stop offset="0.7806" stop-color="#646F15" stop-opacity="0.781"/>
<stop offset="1" stop-color="#5A6313"/>
</linearGradient>
<linearGradient id="paint34_linear" x1="69.2726" y1="72.1364" x2="65.8101" y2="83.4431" gradientUnits="userSpaceOnUse">
<stop stop-color="#C4D143"/>
<stop offset="1" stop-color="#7C8A1A"/>
</linearGradient>
<linearGradient id="paint35_linear" x1="77.7427" y1="79.2541" x2="80.1621" y2="71.3539" gradientUnits="userSpaceOnUse">
<stop stop-color="#C4D143" stop-opacity="0.01"/>
<stop offset="1" stop-color="#FFED82"/>
</linearGradient>
<linearGradient id="paint36_linear" x1="65.8246" y1="86.2159" x2="83.8814" y2="98.8981" gradientUnits="userSpaceOnUse">
<stop stop-color="#7C8A1A" stop-opacity="0.01"/>
<stop offset="0.3152" stop-color="#768319" stop-opacity="0.315"/>
<stop offset="0.7806" stop-color="#646F15" stop-opacity="0.781"/>
<stop offset="1" stop-color="#5A6313"/>
</linearGradient>
<linearGradient id="paint37_linear" x1="53.0119" y1="62.8822" x2="49.5494" y2="74.1889" gradientUnits="userSpaceOnUse">
<stop stop-color="#C4D143"/>
<stop offset="1" stop-color="#7C8A1A"/>
</linearGradient>
<linearGradient id="paint38_linear" x1="61.4819" y1="70" x2="63.9014" y2="62.0998" gradientUnits="userSpaceOnUse">
<stop stop-color="#C4D143" stop-opacity="0.01"/>
<stop offset="1" stop-color="#FFED82"/>
</linearGradient>
<linearGradient id="paint39_linear" x1="49.5638" y1="76.9617" x2="67.6206" y2="89.6439" gradientUnits="userSpaceOnUse">
<stop stop-color="#7C8A1A" stop-opacity="0.01"/>
<stop offset="0.3152" stop-color="#768319" stop-opacity="0.315"/>
<stop offset="0.7806" stop-color="#646F15" stop-opacity="0.781"/>
<stop offset="1" stop-color="#5A6313"/>
</linearGradient>
<linearGradient id="paint40_linear" x1="57.314" y1="73.3333" x2="53.8515" y2="84.6399" gradientUnits="userSpaceOnUse">
<stop stop-color="#C4D143"/>
<stop offset="1" stop-color="#7C8A1A"/>
</linearGradient>
<linearGradient id="paint41_linear" x1="65.7841" y1="80.4509" x2="68.2036" y2="72.5507" gradientUnits="userSpaceOnUse">
<stop stop-color="#C4D143" stop-opacity="0.01"/>
<stop offset="1" stop-color="#FFED82"/>
</linearGradient>
<linearGradient id="paint42_linear" x1="53.8662" y1="87.4128" x2="71.9228" y2="100.095" gradientUnits="userSpaceOnUse">
<stop stop-color="#7C8A1A" stop-opacity="0.01"/>
<stop offset="0.3152" stop-color="#768319" stop-opacity="0.315"/>
<stop offset="0.7806" stop-color="#646F15" stop-opacity="0.781"/>
<stop offset="1" stop-color="#5A6313"/>
</linearGradient>
<linearGradient id="paint43_linear" x1="69.5252" y1="59.8325" x2="66.0627" y2="71.1392" gradientUnits="userSpaceOnUse">
<stop stop-color="#C4D143"/>
<stop offset="1" stop-color="#7C8A1A"/>
</linearGradient>
<linearGradient id="paint44_linear" x1="77.9953" y1="66.9502" x2="80.4147" y2="59.05" gradientUnits="userSpaceOnUse">
<stop stop-color="#C4D143" stop-opacity="0.01"/>
<stop offset="1" stop-color="#FFED82"/>
</linearGradient>
<linearGradient id="paint45_linear" x1="66.0773" y1="73.912" x2="84.1339" y2="86.5941" gradientUnits="userSpaceOnUse">
<stop stop-color="#7C8A1A" stop-opacity="0.01"/>
<stop offset="0.3152" stop-color="#768319" stop-opacity="0.315"/>
<stop offset="0.7806" stop-color="#646F15" stop-opacity="0.781"/>
<stop offset="1" stop-color="#5A6313"/>
</linearGradient>
<linearGradient id="paint46_linear" x1="64.0269" y1="49.5561" x2="60.5642" y2="60.8628" gradientUnits="userSpaceOnUse">
<stop stop-color="#C4D143"/>
<stop offset="1" stop-color="#7C8A1A"/>
</linearGradient>
<linearGradient id="paint47_linear" x1="72.4971" y1="56.6738" x2="74.9165" y2="48.7734" gradientUnits="userSpaceOnUse">
<stop stop-color="#C4D143" stop-opacity="0.01"/>
<stop offset="1" stop-color="#FFED82"/>
</linearGradient>
<linearGradient id="paint48_linear" x1="60.5791" y1="63.6356" x2="78.6357" y2="76.3177" gradientUnits="userSpaceOnUse">
<stop stop-color="#7C8A1A" stop-opacity="0.01"/>
<stop offset="0.3152" stop-color="#768319" stop-opacity="0.315"/>
<stop offset="0.7806" stop-color="#646F15" stop-opacity="0.781"/>
<stop offset="1" stop-color="#5A6313"/>
</linearGradient>
<linearGradient id="paint49_linear" x1="53.9811" y1="44.6923" x2="50.5187" y2="55.9991" gradientUnits="userSpaceOnUse">
<stop stop-color="#C4D143"/>
<stop offset="1" stop-color="#7C8A1A"/>
</linearGradient>
<linearGradient id="paint50_linear" x1="62.4516" y1="51.81" x2="64.8708" y2="43.9097" gradientUnits="userSpaceOnUse">
<stop stop-color="#C4D143" stop-opacity="0.01"/>
<stop offset="1" stop-color="#FFED82"/>
</linearGradient>
<linearGradient id="paint51_linear" x1="50.5333" y1="58.7718" x2="68.5901" y2="71.454" gradientUnits="userSpaceOnUse">
<stop stop-color="#7C8A1A" stop-opacity="0.01"/>
<stop offset="0.3152" stop-color="#768319" stop-opacity="0.315"/>
<stop offset="0.7806" stop-color="#646F15" stop-opacity="0.781"/>
<stop offset="1" stop-color="#5A6313"/>
</linearGradient>
<linearGradient id="paint52_linear" x1="63.8208" y1="63.8162" x2="60.3584" y2="75.123" gradientUnits="userSpaceOnUse">
<stop stop-color="#C4D143"/>
<stop offset="1" stop-color="#7C8A1A"/>
</linearGradient>
<linearGradient id="paint53_linear" x1="72.2913" y1="70.9338" x2="74.7105" y2="63.0335" gradientUnits="userSpaceOnUse">
<stop stop-color="#C4D143" stop-opacity="0.01"/>
<stop offset="1" stop-color="#FFED82"/>
</linearGradient>
<linearGradient id="paint54_linear" x1="60.3728" y1="77.8957" x2="78.4297" y2="90.5779" gradientUnits="userSpaceOnUse">
<stop stop-color="#7C8A1A" stop-opacity="0.01"/>
<stop offset="0.3152" stop-color="#768319" stop-opacity="0.315"/>
<stop offset="0.7806" stop-color="#646F15" stop-opacity="0.781"/>
<stop offset="1" stop-color="#5A6313"/>
</linearGradient>
<linearGradient id="paint55_linear" x1="58.6134" y1="53.3497" x2="55.1509" y2="64.6567" gradientUnits="userSpaceOnUse">
<stop stop-color="#C4D143"/>
<stop offset="1" stop-color="#7C8A1A"/>
</linearGradient>
<linearGradient id="paint56_linear" x1="67.0838" y1="60.4676" x2="69.5031" y2="52.5672" gradientUnits="userSpaceOnUse">
<stop stop-color="#C4D143" stop-opacity="0.01"/>
<stop offset="1" stop-color="#FFED82"/>
</linearGradient>
<linearGradient id="paint57_linear" x1="55.1655" y1="67.4293" x2="73.2221" y2="80.1116" gradientUnits="userSpaceOnUse">
<stop stop-color="#7C8A1A" stop-opacity="0.01"/>
<stop offset="0.3152" stop-color="#768319" stop-opacity="0.315"/>
<stop offset="0.7806" stop-color="#646F15" stop-opacity="0.781"/>
<stop offset="1" stop-color="#5A6313"/>
</linearGradient>
<linearGradient id="paint58_linear" x1="72.7442" y1="66.8513" x2="60.7411" y2="38.8116" gradientUnits="userSpaceOnUse">
<stop stop-color="#C4D143" stop-opacity="0.01"/>
<stop offset="1" stop-color="#FFED82"/>
</linearGradient>
<linearGradient id="paint59_linear" x1="72.9187" y1="67.0357" x2="81.0953" y2="52.2583" gradientUnits="userSpaceOnUse">
<stop stop-color="#5A6313" stop-opacity="0.01"/>
<stop offset="1" stop-color="#544F43"/>
</linearGradient>
<linearGradient id="paint60_linear" x1="58.4297" y1="24.6831" x2="58.3061" y2="51.0075" gradientUnits="userSpaceOnUse">
<stop stop-color="#FFA325"/>
<stop offset="1" stop-color="#7C8A1A"/>
</linearGradient>
<linearGradient id="paint61_linear" x1="76.4937" y1="46.4705" x2="87.9639" y2="46.4046" gradientUnits="userSpaceOnUse">
<stop stop-color="#7C8A1A" stop-opacity="0.01"/>
<stop offset="1" stop-color="#5A6313"/>
</linearGradient>
<linearGradient id="paint62_linear" x1="65.0653" y1="54.6772" x2="84.1288" y2="54.4919" gradientUnits="userSpaceOnUse">
<stop stop-color="#7C8A1A" stop-opacity="0.01"/>
<stop offset="1" stop-color="#5A6313"/>
</linearGradient>
<linearGradient id="paint63_linear" x1="72.5497" y1="47.4452" x2="72.5395" y2="37.9088" gradientUnits="userSpaceOnUse">
<stop stop-color="#7C8A1A" stop-opacity="0.01"/>
<stop offset="1" stop-color="#5A6313"/>
</linearGradient>
<linearGradient id="paint64_linear" x1="68.8234" y1="39.7758" x2="69.9955" y2="43.9404" gradientUnits="userSpaceOnUse">
<stop stop-color="#7C8A1A" stop-opacity="0.01"/>
<stop offset="1" stop-color="#544F43"/>
</linearGradient>
<linearGradient id="paint65_linear" x1="64.3948" y1="35.486" x2="66.4997" y2="42.9653" gradientUnits="userSpaceOnUse">
<stop stop-color="#7C8A1A" stop-opacity="0.01"/>
<stop offset="1" stop-color="#544F43"/>
</linearGradient>
<linearGradient id="paint66_linear" x1="62.2507" y1="30.6993" x2="64.2852" y2="37.9284" gradientUnits="userSpaceOnUse">
<stop stop-color="#7C8A1A" stop-opacity="0.01"/>
<stop offset="1" stop-color="#544F43"/>
</linearGradient>
<linearGradient id="paint67_linear" x1="76.4338" y1="40.3687" x2="75.6376" y2="44.4628" gradientUnits="userSpaceOnUse">
<stop stop-color="#7C8A1A" stop-opacity="0.01"/>
<stop offset="1" stop-color="#544F43"/>
</linearGradient>
<linearGradient id="paint68_linear" x1="75.4193" y1="36.1108" x2="74.0625" y2="43.5181" gradientUnits="userSpaceOnUse">
<stop stop-color="#7C8A1A" stop-opacity="0.01"/>
<stop offset="1" stop-color="#544F43"/>
</linearGradient>
<linearGradient id="paint69_linear" x1="77.6624" y1="31.5912" x2="76.0707" y2="38.6067" gradientUnits="userSpaceOnUse">
<stop stop-color="#7C8A1A" stop-opacity="0.01"/>
<stop offset="1" stop-color="#544F43"/>
</linearGradient>
<linearGradient id="paint70_linear" x1="67.7708" y1="48.765" x2="71.3195" y2="49.4856" gradientUnits="userSpaceOnUse">
<stop stop-color="#7C8A1A" stop-opacity="0.01"/>
<stop offset="1" stop-color="#544F43"/>
</linearGradient>
<linearGradient id="paint71_linear" x1="63.417" y1="47.3164" x2="67.7251" y2="48.0501" gradientUnits="userSpaceOnUse">
<stop stop-color="#7C8A1A" stop-opacity="0.01"/>
<stop offset="1" stop-color="#544F43"/>
</linearGradient>
<linearGradient id="paint72_linear" x1="58.0518" y1="45.101" x2="62.1733" y2="47.2388" gradientUnits="userSpaceOnUse">
<stop stop-color="#7C8A1A" stop-opacity="0.01"/>
<stop offset="1" stop-color="#544F43"/>
</linearGradient>
<linearGradient id="paint73_linear" x1="67.8677" y1="28.6205" x2="63.3679" y2="43.4388" gradientUnits="userSpaceOnUse">
<stop stop-color="#FFA325"/>
<stop offset="1" stop-color="#5A6313"/>
</linearGradient>
<linearGradient id="paint74_linear" x1="83.8393" y1="57.3578" x2="81.4953" y2="54.7283" gradientUnits="userSpaceOnUse">
<stop stop-color="#5A6313" stop-opacity="0.01"/>
<stop offset="1" stop-color="#544F43"/>
</linearGradient>
<linearGradient id="paint75_linear" x1="76.8032" y1="52.4795" x2="78.8085" y2="54.0669" gradientUnits="userSpaceOnUse">
<stop stop-color="#5A6313" stop-opacity="0.01"/>
<stop offset="1" stop-color="#544F43"/>
</linearGradient>
<linearGradient id="paint76_linear" x1="10.2871" y1="57.6848" x2="36.2437" y2="93.1383" gradientUnits="userSpaceOnUse">
<stop stop-color="#FFA325"/>
<stop offset="1" stop-color="#F82814"/>
</linearGradient>
<linearGradient id="paint77_linear" x1="48.909" y1="73.5011" x2="52.823" y2="75.2413" gradientUnits="userSpaceOnUse">
<stop stop-color="#F82814" stop-opacity="0.01"/>
<stop offset="1" stop-color="#C0272D"/>
</linearGradient>
<linearGradient id="paint78_linear" x1="50.1307" y1="78.3408" x2="51.9307" y2="79.1411" gradientUnits="userSpaceOnUse">
<stop stop-color="#F82814" stop-opacity="0.01"/>
<stop offset="1" stop-color="#C0272D"/>
</linearGradient>
<linearGradient id="paint79_linear" x1="46.7964" y1="76.767" x2="50.3735" y2="78.3576" gradientUnits="userSpaceOnUse">
<stop stop-color="#F82814" stop-opacity="0.01"/>
<stop offset="1" stop-color="#C0272D"/>
</linearGradient>
<linearGradient id="paint80_linear" x1="35.9099" y1="80.9166" x2="52.756" y2="93.2836" gradientUnits="userSpaceOnUse">
<stop stop-color="#F82814" stop-opacity="0.01"/>
<stop offset="1" stop-color="#C0272D"/>
</linearGradient>
<linearGradient id="paint81_linear" x1="42.861" y1="48.5259" x2="46.0348" y2="50.7591" gradientUnits="userSpaceOnUse">
<stop stop-color="#C7732E"/>
<stop offset="0.2408" stop-color="#C2722F"/>
<stop offset="0.5284" stop-color="#B36D32"/>
<stop offset="0.8388" stop-color="#9B6636"/>
<stop offset="1" stop-color="#8C6239"/>
</linearGradient>
<linearGradient id="paint82_linear" x1="39.8786" y1="53.1904" x2="38.9202" y2="57.824" gradientUnits="userSpaceOnUse">
<stop stop-color="#F82814" stop-opacity="0.01"/>
<stop offset="1" stop-color="#C0272D"/>
</linearGradient>
</defs>
</svg>
